<?xml version="1.0" encoding="UTF-8"?>
<svg width="76px" height="76px" viewBox="0 0 76 76" version="1.1" xmlns="http://www.w3.org/2000/svg" xmlns:xlink="http://www.w3.org/1999/xlink">
    <title>D3EC495C-0936-4CC0-A047-5DA8BE3C80A8</title>
    <g id="Page-2" stroke="none" stroke-width="1" fill="none" fill-rule="evenodd">
        <g id="1.0_Home" transform="translate(-210.000000, -3475.000000)" fill="#FFFFFF" fill-rule="nonzero">
            <g id="STATS-Copy" transform="translate(-0.000000, 3074.000000)">
                <g id="certificate" transform="translate(210.000000, 401.000000)">
                    <path d="M37.9968828,26.9422969 L9.49925781,26.9422969 C8.88442969,26.9422969 8.386125,27.44075 8.386125,28.0554297 C8.386125,28.6702578 8.88442969,29.1685625 9.49925781,29.1685625 L37.9970312,29.1685625 C38.6118594,29.1685625 39.1101641,28.6701094 39.1101641,28.0554297 C39.1101641,27.44075 38.6118594,26.9422969 37.9968828,26.9422969 Z" id="Path"></path>
                    <path d="M37.9968828,34.7643594 L9.49925781,34.7643594 C8.88442969,34.7643594 8.386125,35.2628125 8.386125,35.8774922 C8.386125,36.4921719 8.88442969,36.990625 9.49925781,36.990625 L37.9970312,36.990625 C38.6118594,36.990625 39.1101641,36.4921719 39.1101641,35.8774922 C39.1101641,35.2628125 38.6118594,34.7643594 37.9968828,34.7643594 Z" id="Path"></path>
                    <path d="M37.9968828,42.5862734 L9.49925781,42.5862734 C8.88442969,42.5862734 8.386125,43.0847266 8.386125,43.6994062 C8.386125,44.3140859 8.88442969,44.8125391 9.49925781,44.8125391 L37.9970312,44.8125391 C38.6118594,44.8125391 39.1101641,44.3140859 39.1101641,43.6994062 C39.1101641,43.0847266 38.6118594,42.5862734 37.9968828,42.5862734 Z" id="Path"></path>
                    <path d="M39.1101641,51.5216172 C39.1101641,50.9067891 38.6118594,50.4084844 37.9970312,50.4084844 L9.49925781,50.4084844 C8.88442969,50.4084844 8.386125,50.9069375 8.386125,51.5216172 C8.386125,52.1362969 8.88442969,52.63475 9.49925781,52.63475 L37.9970312,52.63475 C38.6118594,52.63475 39.1101641,52.1364453 39.1101641,51.5216172 Z" id="Path"></path>
                    <path d="M9.49925781,61.8718672 C8.88442969,61.8718672 8.386125,62.3703203 8.386125,62.985 C8.386125,63.5996797 8.88442969,64.0981328 9.49925781,64.0981328 L23.7845859,64.0981328 C24.3994141,64.0981328 24.8977187,63.5996797 24.8977187,62.985 C24.8977187,62.3703203 24.3994141,61.8718672 23.7845859,61.8718672 L9.49925781,61.8718672 Z" id="Path"></path>
                    <path d="M50.825,13.7828672 L50.825,10.1707891 C50.825,8.79477344 49.7056328,7.67525781 48.3294687,7.67525781 L25.4749922,7.67525781 C24.0989766,7.67525781 22.9796094,8.79477344 22.9796094,10.1707891 L22.9796094,13.7828672 C22.9796094,15.1588828 24.0989766,16.27825 25.4749922,16.27825 L27.4049766,16.27825 C28.0198047,16.27825 28.5181094,15.7797969 28.5181094,15.1651172 C28.5181094,14.5502891 28.0198047,14.0519844 27.4049766,14.0519844 L25.4749922,14.0519844 C25.3267031,14.0519844 25.2060234,13.9313047 25.2060234,13.7830156 L25.2060234,10.1707891 C25.2060234,10.0225 25.3267031,9.90167188 25.4749922,9.90167188 L48.3294687,9.90167188 C48.4779063,9.90167188 48.5985859,10.0223516 48.5985859,10.1707891 L48.5985859,13.7828672 C48.5985859,13.9311563 48.4779063,14.0518359 48.3294687,14.0518359 L32.6091953,14.0518359 C31.9943672,14.0518359 31.4960625,14.5502891 31.4960625,15.1649688 C31.4960625,15.7797969 31.9943672,16.2781016 32.6091953,16.2781016 L48.3296172,16.2781016 C49.7056328,16.2783984 50.825,15.1588828 50.825,13.7828672 Z" id="Path"></path>
                    <path d="M59.1484844,67.879875 C58.5336562,67.879875 58.0353516,68.3783281 58.0353516,68.9930078 L58.0353516,70.4920781 C58.0353516,72.3013828 56.5632969,73.7735859 54.7536953,73.7735859 L5.50777344,73.7735859 C3.69846875,73.7735859 2.22626562,72.3015312 2.22626562,70.4920781 L2.22626562,16.9854063 C2.22626562,16.7444922 2.25446875,16.5081797 2.30478906,16.27825 L12.4405469,16.27825 C14.5566719,16.27825 16.27825,14.5566719 16.27825,12.4405469 L16.27825,2.3049375 C16.5081797,2.25461719 16.7443437,2.22641406 16.9852578,2.22641406 L54.7535469,2.22641406 C56.563,2.22641406 58.0352031,3.69846875 58.0352031,5.50792188 L58.0352031,20.3282188 C58.0352031,20.9430469 58.5335078,21.4413516 59.1483359,21.4413516 C59.7631641,21.4413516 60.2616172,20.9428984 60.2616172,20.3282188 L60.2616172,5.50777344 C60.2616172,2.47089062 57.7907266,0 54.7536953,0 L16.9854063,0 C15.5142422,0 14.1309531,0.57296875 13.0907031,1.61321875 L1.61307031,13.0908516 C0.572820313,14.1311016 4.21884749e-15,15.5142422 4.21884749e-15,16.9855547 L4.21884749e-15,70.4922266 C4.21884749e-15,73.5292578 2.47074219,76 5.50777344,76 L54.7536953,76 C57.7907266,76 60.2616172,73.5291094 60.2616172,70.4922266 L60.2616172,68.9931562 C60.2616172,68.3783281 59.7633125,67.879875 59.1484844,67.879875 Z M14.0519844,3.80059375 L14.0519844,12.4405469 C14.0519844,13.3290938 13.3290937,14.0519844 12.4405469,14.0519844 L3.80059375,14.0519844 L14.0519844,3.80059375 Z" id="Shape"></path>
                    <path d="M74.3950938,39.7811016 C75.1764688,38.634125 75.3786406,37.2193672 74.9498047,35.8994609 C74.5209688,34.5795547 73.5256953,33.5538516 72.2194453,33.0853828 C71.3528672,32.7745547 70.7747031,31.9789297 70.7470938,31.0586172 C70.7050859,29.6714688 70.0369688,28.4079688 68.9140391,27.5921563 C67.7914063,26.7764922 66.3830313,26.5317188 65.05125,26.9203281 C64.1668594,27.1783125 63.2321484,26.8743125 62.6686797,26.1462266 C61.8194688,25.0485313 60.536375,24.4190078 59.1484844,24.4190078 C57.7607422,24.4190078 56.4775,25.0485313 55.6281406,26.1462266 C55.0646719,26.8744609 54.1293672,27.1780156 53.2457188,26.9203281 C51.9137891,26.5314219 50.5055625,26.7764922 49.3826328,27.5921563 C48.2598516,28.4079688 47.5920313,29.6713203 47.549875,31.0584688 C47.5221172,31.9787813 46.9441016,32.7742578 46.077375,33.0852344 C44.771125,33.5537031 43.7758516,34.5795547 43.3471641,35.8993125 C42.9183281,37.2192188 43.1205,38.634125 43.901875,39.7809531 C44.4202188,40.5419922 44.4202188,41.5252422 43.901875,42.2861328 C43.1205,43.4331094 42.9183281,44.8478672 43.3471641,46.1677734 C43.7758516,47.4876797 44.771125,48.5133828 46.077375,48.982 C46.9441016,49.2929766 47.5222656,50.0884531 47.549875,51.0087656 C47.5886172,52.2847344 48.1733125,53.4836641 49.1544844,54.2978437 C49.8018203,54.8351875 50.5794844,55.1713984 51.3933672,55.2837656 L51.3933672,65.4187813 C51.3933672,66.2739297 51.8572344,67.0643594 52.6037266,67.4813203 C53.3493281,67.8979844 54.2659297,67.8794297 54.9946094,67.4307031 L59.0773828,64.9173594 C59.1438828,64.8762422 59.1835156,64.8947969 59.2201797,64.9173594 L63.3026563,67.4307031 C64.0310391,67.8789844 64.9473438,67.8982812 65.6936875,67.4811719 C66.4403281,67.0640625 66.9040469,66.2736328 66.9040469,65.4186328 L66.9040469,55.2834687 C67.7176328,55.17125 68.4952969,54.8350391 69.1426328,54.2978437 C70.1239531,53.4836641 70.7087969,52.2848828 70.7475391,51.0086172 C70.7751484,50.0883047 71.3533125,49.2926797 72.2198906,48.9818516 C73.5262891,48.5133828 74.5215625,47.4875313 74.95025,46.167625 C75.3790859,44.8477188 75.1769141,43.4329609 74.3955391,42.2859844 C73.8766016,41.5253906 73.8766016,40.5421406 74.3950938,39.7811016 L74.3950938,39.7811016 Z M64.4695234,65.5348594 L60.3868984,63.0215156 C59.6279375,62.5543828 58.669625,62.5536406 57.9099219,63.0215156 L53.8272969,65.5347109 C53.734375,65.5912656 53.6196328,65.5261016 53.6196328,65.4186328 L53.6196328,55.0723906 C54.3849766,54.9837734 55.1437891,55.2951953 55.6281406,55.9211563 C56.4776484,57.0187031 57.7607422,57.6482266 59.1486328,57.6482266 C60.536375,57.6482266 61.8194688,57.0187031 62.6686797,55.9211563 C63.1531797,55.2950469 63.9121406,54.9837734 64.6773359,55.0723906 L64.6773359,65.4186328 C64.6773359,65.5268438 64.5611094,65.5914141 64.4695234,65.5348594 L64.4695234,65.5348594 Z M72.5552109,43.5399844 C72.9458984,44.11325 73.0468359,44.8202578 72.8324922,45.4799141 C72.6181484,46.1395703 72.1207344,46.6522734 71.4677578,46.8865078 C69.7337109,47.5084609 68.5773828,49.1001563 68.5217188,50.9415234 C68.5019766,51.5888594 68.2174219,52.1723672 67.7206016,52.5847266 C67.1620313,53.0482969 66.4055938,53.2231563 65.6749844,53.01 C63.9066484,52.4940313 62.0352969,53.1020312 60.9077656,54.5587969 C60.4833828,55.1072734 59.8419844,55.4219609 59.1483359,55.4219609 C58.4548359,55.4219609 57.8134375,55.1074219 57.3887578,54.5587969 C56.5279688,53.4461094 55.2334453,52.8286094 53.8822188,52.8286094 C53.4639219,52.8286094 53.0399844,52.8878359 52.6219844,53.0098516 C51.88425,53.2247891 51.1300391,53.0445859 50.5759219,52.5845781 C50.0791016,52.1722187 49.7945469,51.5887109 49.7751016,50.9415234 C49.7192891,49.1001563 48.5629609,47.5084609 46.8287656,46.8863594 C46.1759375,46.652125 45.6786719,46.1395703 45.4641797,45.4799141 C45.2498359,44.8202578 45.3507734,44.1131016 45.7414609,43.5398359 C46.7785938,42.0173125 46.7785938,40.0500703 45.7414609,38.5275469 C45.3507734,37.9542813 45.2498359,37.247125 45.4641797,36.5873203 C45.6785234,35.9276641 46.1759375,35.4149609 46.8287656,35.180875 C48.5629609,34.5587734 49.7192891,32.9670781 49.7751016,31.1257109 C49.7960313,30.4323594 50.1297188,29.8009063 50.6909609,29.3932969 C51.2519063,28.9855391 51.9555,28.8632266 52.6218359,29.0573828 C54.3897266,29.5735 56.2615234,28.9653516 57.3887578,27.5085859 C57.8132891,26.9599609 58.4545391,26.6452734 59.1483359,26.6452734 C59.8419844,26.6452734 60.4832344,26.9598125 60.9077656,27.5084375 C62.0351484,28.9653516 63.9060547,29.5733516 65.6748359,29.0573828 C66.3407266,28.8629297 67.0443203,28.9853906 67.6055625,29.3931484 C68.1668047,29.8007578 68.5007891,30.4323594 68.5215703,31.1255625 C68.5773828,32.9669297 69.7337109,34.5587734 71.4677578,35.1807266 C72.1207344,35.4148125 72.618,35.9275156 72.8324922,36.5871719 C73.0468359,37.2468281 72.9458984,37.9541328 72.5552109,38.52725 C71.5177813,40.0499219 71.5177813,42.0174609 72.5552109,43.5399844 L72.5552109,43.5399844 Z" id="Shape"></path>
                    <path d="M59.1484844,31.7037266 C54.0039375,31.7037266 49.8185937,35.8890703 49.8185937,41.0336172 C49.8185937,46.1781641 54.0039375,50.3635078 59.1484844,50.3635078 C64.2928828,50.3635078 68.4782266,46.1781641 68.4782266,41.0336172 C68.4782266,35.8890703 64.2928828,31.7037266 59.1484844,31.7037266 L59.1484844,31.7037266 Z M59.1484844,48.1372422 C55.2315156,48.1372422 52.0448594,44.9505859 52.0448594,41.0337656 C52.0448594,37.1169453 55.2315156,33.9301406 59.1484844,33.9301406 C63.0654531,33.9301406 66.2519609,37.1167969 66.2519609,41.0337656 C66.2519609,44.9507344 63.0653047,48.1372422 59.1484844,48.1372422 Z" id="Shape"></path>
                </g>
            </g>
        </g>
    </g>
</svg>