<svg xmlns="http://www.w3.org/2000/svg" width="76" height="76" viewBox="0 0 76 76">
    <g fill="none" fill-rule="evenodd">
        <g fill="#FFF" fill-rule="nonzero">
            <g>
                <g>
                    <path d="M19.53 43.383c-5.539 1.48-9.394 6.495-9.4 12.228v.195c-.76.165-1.406.663-1.76 1.357l-1.886 3.741-4.23.6c-.995.136-1.823.831-2.127 1.787-.309.944-.043 1.98.68 2.66l3.043 2.9-.718 4.096c-.174.97.222 1.954 1.019 2.533.81.602 1.891.688 2.786.222l3.79-1.95 3.79 1.95c.893.464 1.972.378 2.78-.222.798-.579 1.194-1.562 1.02-2.533l-.354-2.026h7.013l-.126.683c-.247 1.387.32 2.794 1.459 3.623.664.494 1.47.76 2.298.76.614 0 1.22-.147 1.767-.427l7.636-3.873 7.598 3.873c1.308.673 2.886.543 4.065-.337 1.138-.829 1.703-2.233 1.458-3.62l-.127-.682h7.016l-.355 2.026c-.173.97.223 1.954 1.021 2.533.81.602 1.892.688 2.786.222l3.79-1.95 3.79 1.95c.895.466 1.977.38 2.787-.222.794-.58 1.188-1.564 1.013-2.533l-.718-4.091 3.045-2.905c.723-.68.988-1.716.68-2.66-.305-.957-1.134-1.652-2.13-1.786l-4.23-.6-1.886-3.742c-.354-.694-1-1.192-1.762-1.357v-.195c-.006-5.733-3.86-10.748-9.399-12.228l-10.018-2.674c-.87-1.876-1.273-3.934-1.177-6 .97-.816 1.838-1.595 2.514-2.225 1.03-.96 1.615-2.303 1.617-3.71v-1.069c2.005-.511 3.495-2.194 3.758-4.246.264-2.052-.75-4.058-2.561-5.06.912-1.306 1.38-2.872 1.336-4.465-.027-4.47-2.927-8.416-7.187-9.775.196-.189.412-.356.645-.497.431-.225.696-.675.682-1.161-.015-.486-.306-.92-.75-1.119-2.317-.965-4.81-1.434-7.32-1.377-3.962-.056-7.662 1.97-9.751 5.336-2.734 1.386-4.378 4.269-4.18 7.327.02 1.972.59 3.898 1.647 5.562-1.934.904-3.091 2.925-2.892 5.05.199 2.125 1.71 3.896 3.779 4.425v1.069c.001 1.407.587 2.75 1.617 3.71.676.634 1.543 1.409 2.513 2.225.096 2.066-.307 4.124-1.175 6l-10.02 2.674zm-3.92 23.866c-.465.443-.678 1.09-.567 1.722l.774 4.415 1.248-.218-1.392.277-4.053-2.084c-.562-.29-1.23-.29-1.792 0l-4.052 2.084.579 1.126-.727-1.185.775-4.42c.11-.636-.107-1.284-.578-1.726l-3.214-3.227 4.531-.645c.632-.087 1.181-.479 1.47-1.048l2.11-4.063c.066 0 .08.03.088.046l2.026 4.016c.288.568.835.96 1.465 1.048l4.588.745-3.279 3.137zM48.166 73.2c-.407.307-.956.352-1.408.114l-7.598-3.872c-.735-.371-1.602-.371-2.337 0l-7.598 3.872c-.451.239-1 .194-1.408-.114-.365-.257-.549-.701-.471-1.14l1.45-8.199c.147-.823-.133-1.665-.743-2.237l-6.145-5.823c-.335-.298-.461-.768-.32-1.194.15-.463.557-.794 1.04-.847l8.497-1.197c.82-.112 1.534-.619 1.91-1.356l3.8-7.46c.232-.424.677-.687 1.16-.687.483 0 .927.263 1.16.687l3.799 7.46c.379.736 1.092 1.242 1.912 1.356l8.496 1.197c.484.053.891.384 1.041.847.141.426.015.896-.32 1.194l-6.147 5.808c-.61.571-.89 1.413-.743 2.236l1.45 8.2c.077.44-.109.887-.476 1.142v.013zM34.578 42.594c-.911-.258-1.78-.65-2.576-1.161.658-1.513 1.059-3.125 1.187-4.77.154.116.303.235.457.347.872.639 1.923.984 3.004.986h2.682c1.08-.002 2.131-.347 3.003-.986.155-.112.303-.233.458-.347.128 1.645.529 3.257 1.187 4.77-.797.512-1.665.903-2.576 1.16-.665-1.269-1.98-2.065-3.413-2.065-1.433 0-2.748.796-3.413 2.066zm30.767 15.71l2.026 4.016c.288.568.835.96 1.465 1.049l4.59.744-3.27 3.126c-.467.443-.681 1.09-.572 1.726l.775 4.414 1.248-.218-1.393.278-4.053-2.085c-.562-.29-1.23-.29-1.792 0l-4.052 2.085.579 1.126-.726-1.186.773-4.412c.112-.634-.101-1.283-.568-1.727l-3.221-3.227 4.53-.644c.63-.089 1.177-.48 1.465-1.048l2.11-4.064c.068 0 .086.032.086.047zM45.888 43.188l9.912 2.645c4.43 1.182 7.514 5.193 7.518 9.778v.962c-.162.177-.299.375-.407.59l-1.887 3.741-4.231.6c-.995.135-1.824.83-2.13 1.786-.307.943-.042 1.98.68 2.66l2.561 2.438H50.56l-.887-4.938 6.147-5.808c1.038-.968 1.425-2.447.994-3.799-.444-1.39-1.652-2.4-3.1-2.587l-8.505-1.197-2.639-5.183c1.19-.38 2.31-.95 3.318-1.688zM29.527 7.538c.316-.108.578-.335.73-.633 1.59-2.755 4.553-4.428 7.734-4.368 1.463-.013 2.923.154 4.345.498-.322.406-.596.848-.816 1.317-.166.355-.158.768.022 1.116.18.35.51.595.896.666.283.053 6.95 1.375 6.95 7.8.01.739-.13 1.471-.411 2.154-.657-1.318-2.001-2.15-3.473-2.153H41.79c-2.057.114-4.105-.36-5.904-1.365-1.278-.764-2.738-1.167-4.227-1.168-2.22.012-4.14 1.55-4.637 3.713-.278-.786-.422-1.613-.428-2.447 0-4.036 2.824-5.092 2.933-5.13zm.409 23.092c-.516-.48-.809-1.152-.81-1.856v-2.176c0-.7-.567-1.266-1.266-1.266-1.144.003-2.148-.765-2.445-1.87-.297-1.105.187-2.272 1.179-2.844v.915c0 .7.567 1.266 1.266 1.266.7 0 1.266-.567 1.266-1.266v-3.8c0-.155.052-3.798 2.533-3.798 1.084.004 2.146.311 3.065.886 2.158 1.192 4.604 1.762 7.066 1.646h3.714c.55-.005 1.048.326 1.255.835.057.137.09.283.096.432v3.799c0 .7.567 1.266 1.267 1.266s1.266-.567 1.266-1.266v-.915c.992.572 1.476 1.739 1.179 2.844-.297 1.105-1.3 1.873-2.445 1.87-.7 0-1.267.567-1.267 1.266v2.176c0 .704-.293 1.377-.809 1.856-1.644 1.544-3.378 2.989-5.192 4.329-.44.325-.972.503-1.52.506H36.65c-.548-.004-1.08-.181-1.52-.506-1.814-1.34-3.549-2.786-5.194-4.329zm3.477 14.246l-2.64 5.18-8.496 1.196c-1.448.188-2.656 1.197-3.1 2.587-.43 1.352-.044 2.831.994 3.8l6.137 5.76-.888 4.99h-7.345l2.567-2.443c.722-.68.987-1.716.68-2.66-.306-.956-1.135-1.65-2.13-1.785l-4.23-.6-1.888-3.743c-.11-.212-.248-.41-.41-.585v-.962c.003-4.586 3.088-8.598 7.52-9.78l9.91-2.643c1.008.737 2.13 1.307 3.32 1.688z" transform="translate(-472.000000, -3473.000000) translate(-0.000000, 3074.000000) translate(472.000000, 399.000000)"/>
                </g>
            </g>
        </g>
    </g>
</svg>
