<?xml version="1.0" encoding="UTF-8"?>
<svg width="76px" height="76px" viewBox="0 0 76 76" version="1.1" xmlns="http://www.w3.org/2000/svg" xmlns:xlink="http://www.w3.org/1999/xlink">
    <title>95D82ACA-6BC3-42FE-A395-C83152139E1D</title>
    <g id="Page-2" stroke="none" stroke-width="1" fill="none" fill-rule="evenodd">
        <g id="1.0_Home" transform="translate(-733.000000, -3473.000000)" fill="#FFFFFF" fill-rule="nonzero">
            <g id="STATS-Copy" transform="translate(-0.000000, 3074.000000)">
                <g id="team" transform="translate(733.000000, 399.000000)">
                    <path d="M76,31.8709677 L73.2455268,31.8709677 L69.1401525,34.0310925 C68.6780809,33.7761152 68.1974546,33.5600429 67.6791204,33.43016 L62.514932,32.1379159 L62.514932,31.5507497 C64.7995527,29.9562437 66.1935484,27.3220766 66.1935484,24.516129 L66.1935484,22.3733619 C66.1935484,17.6113911 62.4622607,13.6263232 57.8762601,13.4874623 C57.6434287,13.4814768 57.4141885,13.4898563 57.1837513,13.5012285 L58.5226815,10.3666835 L52.0315336,3.87733123 L48.205078,6.36784908 C46.7512285,5.54904868 45.2135837,4.91160542 43.6166835,4.46449727 L42.6715914,0 L33.3296056,0 L32.3845135,4.46569427 C30.7876135,4.91280242 29.2487715,5.55024568 27.796119,6.36904608 L23.9696636,3.87852823 L17.4839025,10.3642893 L18.8000881,13.5012285 C18.7498111,13.4988344 18.701928,13.4898563 18.6516506,13.4886593 C16.3041835,13.420426 14.0931829,14.2769342 12.4136845,15.9073525 C10.7317918,17.5365739 9.80645161,19.7230343 9.80645161,22.0645161 L9.80645161,24.516129 C9.80645161,27.3220766 11.1992503,29.9550467 13.483871,31.5495527 L13.483871,32.1379159 L10.1152974,32.9800592 L4.00960815,29.4193548 L0,29.4193548 L0,54.8195249 L12.0593498,58.8387097 L14.4080141,58.8387097 L14.7012978,57.8116179 L18.3978704,60.0303995 C18.4583229,62.040291 20.0701865,63.6575416 22.0782825,63.7281691 C22.14891,65.7278857 23.7559853,67.334961 25.7557019,67.4055884 C25.8263293,69.405305 27.4334047,71.0123803 29.4331213,71.0830078 C29.5061429,73.1294103 31.1820501,74.7741935 33.2452117,74.7741935 C34.0113407,74.7741935 34.7625063,74.5353767 35.3939643,74.109816 L36.4797127,75.0686744 C37.1602507,75.6678112 38.0365108,76 38.946289,76 L39.1731351,76 C41.2129536,76 42.8727003,74.3510269 42.8984375,72.3177923 C44.9161102,72.2920552 46.5501197,70.6580457 46.5758569,68.640373 C48.5947265,68.6146358 50.2299332,66.9782321 50.2532762,64.9593623 C52.2907006,64.9114793 53.9354839,63.2469443 53.9354839,61.1981478 C53.9354839,61.0748488 53.9294986,60.9533455 53.9169291,60.8306452 L76,49.7900075 L76,31.8709677 Z M63.7419355,22.3733619 L63.7419355,24.516129 C63.7419355,26.6918158 62.5664062,28.7244519 60.673828,29.8203756 L60.0609248,30.1747103 L60.0657131,34.053837 L66.1899571,35.5837009 L52.7096774,42.6787739 L52.7096774,39.3766381 C52.7096774,37.7288622 52.0441028,36.219947 50.9541646,35.1048703 L55.1612903,34.053837 L55.1612903,30.1717175 L54.5495841,29.8179813 C52.658203,28.7244519 51.483871,26.6918158 51.483871,24.516129 L51.483871,22.0645161 C51.483871,20.3927987 52.1446573,18.8294166 53.3459237,17.6652595 C54.5459929,16.501701 56.1381048,15.8744329 57.8026398,15.9390752 C61.0772429,16.0372353 63.7419355,18.9239856 63.7419355,22.3733619 Z M39.8482863,41.7151273 L34.2992376,39.9416583 C31.7704133,39.1312373 29.0332977,39.0103327 26.4446195,39.5837324 L25.7419355,39.7393522 L25.7419355,39.3766381 C25.7419355,37.6863659 26.8881364,36.21875 28.5269342,35.8081526 L35.5483871,34.053837 L35.5483871,30.1717175 L34.9366809,29.8179813 C33.0452998,28.7244519 31.8709677,26.6918158 31.8709677,24.516129 L31.8709677,22.0645161 C31.8709677,20.3927987 32.531754,18.8294166 33.7330205,17.6652595 C34.9330897,16.501701 36.5353767,15.8744329 38.1897366,15.9390752 C41.4643397,16.0372353 44.1290323,18.9239856 44.1290323,22.3733619 L44.1290323,24.516129 C44.1290323,26.6918158 42.953503,28.7244519 41.0609248,29.8203756 L40.4480216,30.1747103 L40.4528099,34.053837 L47.4730658,35.8081526 C49.1118636,36.21875 50.2580645,37.6863659 50.2580645,39.3766381 L50.2580645,43.9698211 L49.9552042,44.1290323 L49.2040386,44.1290323 L41.6678427,41.9754914 C41.0740927,41.8073021 40.4623865,41.7384703 39.8482863,41.7151273 L39.8482863,41.7151273 Z M26.0166646,18.3463962 C28.3186429,13.8860887 32.951928,11.0322581 38,11.0322581 C43.0001889,11.0322581 47.6137224,13.8477823 49.9330582,18.2476374 C49.3494833,19.4177797 49.0322581,20.7136152 49.0322581,22.0645161 L49.0322581,24.516129 C49.0322581,27.3220766 50.4250567,29.9550467 52.7096774,31.5495527 L52.7096774,32.1379159 L47.8064516,33.3655179 L42.9020288,32.1379159 L42.9020288,31.5507497 C45.1866495,29.9562437 46.5806452,27.3220766 46.5806452,24.516129 L46.5806452,22.3733619 C46.5806452,17.6113911 42.8493574,13.6263232 38.2633569,13.4874623 C35.9170867,13.4186303 33.7048891,14.2757372 32.0253905,15.9061555 C30.344695,17.5365739 29.4193548,19.7230343 29.4193548,22.0645161 L29.4193548,24.516129 C29.4193548,27.3220766 30.8121535,29.9550467 33.0967742,31.5495527 L33.0967742,32.1379159 L28.1935484,33.3655179 L23.2891256,32.1379159 L23.2891256,31.5507497 C25.5737463,29.9562437 26.9677419,27.3220766 26.9677419,24.516129 L26.9677419,22.3733619 C26.9677419,20.9308845 26.6205897,19.5614289 26.0166646,18.3463962 L26.0166646,18.3463962 Z M20.3790323,10.9329006 L24.2952684,7.0166646 L27.7422506,9.25998618 L28.4018397,8.85537428 C30.0544039,7.84264747 31.8404423,7.10105847 33.7096774,6.65395031 L34.4638357,6.47319182 L35.3167527,2.4516129 L40.6844443,2.4516129 L41.5349672,6.47199467 L42.2891256,6.65215466 C44.1583606,7.09986147 45.9443989,7.84145031 47.5969631,8.85417713 L48.2565524,9.25878902 L51.7035346,7.01546745 L55.6149824,10.9281123 L54.2245779,14.1835622 C53.2782889,14.5905683 52.4008317,15.1633695 51.6370968,15.9037614 C51.5868196,15.9528414 51.5437248,16.0055128 51.4946446,16.05579 C48.6066973,11.4650013 43.5011656,8.58064516 38,8.58064516 C32.4593309,8.58064516 27.3394342,11.4919355 24.4586694,16.1294103 C23.687752,15.3225806 22.7707913,14.6689768 21.7544732,14.212292 L20.3790323,10.9329006 Z M15.9354839,34.053837 L15.9354839,30.1717175 L15.3237776,29.8179813 C13.4323966,28.7244519 12.2580645,26.6918158 12.2580645,24.516129 L12.2580645,22.0645161 C12.2580645,20.3927987 12.9188508,18.8294166 14.1201172,17.6652595 C15.3201865,16.501701 16.9158897,15.8744329 18.5768334,15.9390752 C21.8514365,16.0372353 24.516129,18.9239856 24.516129,22.3733619 L24.516129,24.516129 C24.516129,26.6918158 23.3405998,28.7244519 21.4480216,29.8203756 L20.8351184,30.1747103 L20.8399067,34.053837 L25.0458354,35.1048702 C23.9558972,36.219947 23.2903226,37.7288622 23.2903226,39.3766381 L23.2903226,40.2846207 L19.4668599,41.1345451 L19.5662172,40.7873929 L19.6129032,38.5219254 L13.148091,34.7505356 L15.9354839,34.053837 Z M2.4516129,31.8709677 L3.34523056,31.8709677 L12.1611014,37.0130104 L7.71276469,54.8057586 L2.4516129,53.0514428 L2.4516129,31.8709677 Z M12.4567792,56.3870968 L10.0440713,55.5832598 L14.3655179,38.2992692 L17.1612903,39.9296875 L17.1612903,40.2798324 L12.5597278,56.3870968 L12.4567792,56.3870968 Z M20.8387097,59.9160786 C20.8387097,59.5545615 20.984753,59.2002268 21.2409274,58.9440524 L23.3956653,56.7893145 C23.6518397,56.5331401 24.0061744,56.3870968 24.3676915,56.3870968 C25.125441,56.3870968 25.7419355,57.0035913 25.7419355,57.7613407 C25.7419355,58.1228579 25.5958921,58.4771925 25.3397177,58.7333669 L23.1849798,60.8881048 C22.9288054,61.1442792 22.5744708,61.2903226 22.2129536,61.2903226 C21.4552042,61.2903226 20.8387097,60.673828 20.8387097,59.9160786 Z M24.516129,63.593498 C24.516129,63.2319808 24.6621724,62.8776462 24.9183468,62.6214718 L27.0730847,60.4667339 C27.3292591,60.2105595 27.6835938,60.0645161 28.0451109,60.0645161 C28.8028603,60.0645161 29.4193548,60.6810107 29.4193548,61.4387601 C29.4193548,61.8002772 29.2733115,62.1546119 29.0171371,62.4107863 L26.8623992,64.5655242 C26.6062248,64.8216986 26.2518901,64.9677419 25.890373,64.9677419 C25.1326236,64.9677419 24.516129,64.3512474 24.516129,63.593498 Z M28.1935484,67.2709173 C28.1935484,66.9094002 28.3395917,66.5550655 28.5957661,66.2988911 L30.750504,64.1441532 C31.0066784,63.8879788 31.3610131,63.7419355 31.7225302,63.7419355 C32.4802797,63.7419355 33.0967742,64.35843 33.0967742,65.1161794 C33.0967742,65.4776966 32.9507308,65.8320312 32.6945565,66.0882056 L30.5398185,68.2429435 C30.2836442,68.4991179 29.9293095,68.6451613 29.5677923,68.6451613 C28.8100429,68.6451613 28.1935484,68.0286668 28.1935484,67.2709173 Z M33.2452117,72.3225806 C32.4874623,72.3225806 31.8709677,71.7060861 31.8709677,70.9483367 C31.8709677,70.5868196 32.0170111,70.2324849 32.2731855,69.9763105 L34.4279234,67.8215726 C34.6840978,67.5653982 35.0384325,67.4193548 35.3999496,67.4193548 C36.157699,67.4193548 36.7741935,68.0358494 36.7741935,68.7935988 C36.7741935,69.1551159 36.6281502,69.5094506 36.3719758,69.765625 L34.2172379,71.9203629 C33.9610635,72.1765373 33.6067288,72.3225806 33.2452117,72.3225806 Z M39.1731351,73.5483871 L38.946289,73.5483871 C38.6338521,73.5483871 38.334583,73.4346647 38.1017514,73.2281691 L37.1847909,72.4195438 L38.1053427,71.4989919 C38.4339402,71.1703944 38.6889176,70.779549 38.8774571,70.3599735 L39.9919355,71.287708 C40.2834237,71.5307144 40.4516129,71.8886404 40.4516129,72.2699093 C40.4516129,72.9749873 39.8782131,73.5483871 39.1731351,73.5483871 L39.1731351,73.5483871 Z M50.1658897,62.516129 L49.9540071,62.516129 C49.6463583,62.516129 49.3458921,62.407195 49.1106666,62.2096774 L42.4633001,56.6702054 L40.8927356,58.5544039 L47.3479712,63.9328692 C47.6382624,64.1758757 47.8064516,64.5338017 47.8064516,64.9150706 C47.8064516,65.6201486 47.2330518,66.1935484 46.5279738,66.1935484 L46.2604271,66.1935484 C45.9629536,66.1935484 45.6720639,66.0882056 45.4428239,65.8966734 L38.7846838,60.3488219 L37.2141192,62.2330205 L43.6693548,67.6120841 C43.960843,67.8532951 44.1290323,68.2112211 44.1290323,68.5924899 C44.1290323,69.297568 43.5556325,69.8709677 42.8505544,69.8709677 C42.3801034,69.8709677 41.921623,69.7039755 41.5607043,69.4041079 L38.8247857,67.1236768 C38.2220578,65.8918851 36.983682,65.0329826 35.5334237,64.9815084 C35.4627961,62.9817918 33.8557208,61.3747164 31.8560043,61.304089 C31.7853767,59.3043724 30.1783014,57.6972971 28.178585,57.6266696 C28.1067604,55.5802671 26.4308531,53.9354839 24.3676915,53.9354839 C23.3603515,53.9354839 22.374559,54.3436869 21.6622984,55.0559476 L19.5075605,57.2106855 C19.3788747,57.3393713 19.272335,57.4854146 19.1639994,57.6302608 L15.398595,55.3707788 L18.6995337,43.8177923 L26.9749244,41.9778857 C29.1458229,41.4924711 31.4346334,41.5978138 33.5516633,42.2753592 L35.3574533,42.8529486 L29.2356035,45.9138736 C27.8368196,46.6147618 26.9677419,48.0219254 26.9677419,49.5865046 L26.9677419,49.8289126 C26.9677419,52.0931829 28.8100429,53.9354839 31.0743132,53.9354839 C31.8182964,53.9354839 32.5503088,53.733178 33.186555,53.3495148 L37.7510081,50.6123992 C38.6679688,50.062941 39.8985635,50.1832473 40.6904297,50.8955078 L51.0475366,60.2165449 C51.3246599,60.4679309 51.483871,60.8246599 51.483871,61.1981478 C51.483871,61.9253717 50.8931136,62.516129 50.1658897,62.516129 L50.1658897,62.516129 Z M73.5483871,48.2745086 L52.8970199,58.60109 C52.8299836,58.5298639 52.7599546,58.4622291 52.6863344,58.3963898 L42.3310232,49.0753528 C41.4236391,48.2565524 40.250504,47.8064516 39.0282889,47.8064516 C38.1346711,47.8064516 37.257214,48.0494582 36.4886908,48.5103327 L31.9224421,51.2486455 C31.6662676,51.4030683 31.3735824,51.483871 31.0743132,51.483871 C30.1609438,51.483871 29.4193548,50.742282 29.4193548,49.8289126 L29.4193548,49.5865046 C29.4193548,48.9550467 29.7700982,48.3888293 30.3339214,48.1069179 L37.171623,44.6880671 C38.3417654,44.1020981 39.7309728,43.9710181 40.992093,44.3337324 L48.695281,46.5339591 L50.5609248,46.5806452 L73.5483871,34.4817918 L73.5483871,48.2745086 Z" id="Shape"></path>
                </g>
            </g>
        </g>
    </g>
</svg>