<?xml version="1.0" encoding="UTF-8"?>
<svg width="76px" height="76px" viewBox="0 0 76 76" version="1.1" xmlns="http://www.w3.org/2000/svg" xmlns:xlink="http://www.w3.org/1999/xlink">
    <title>1C02DDCB-663B-4919-8675-81AFBB9559AD</title>
    <defs>
        <rect id="path-1" x="0" y="0" width="76" height="76"></rect>
    </defs>
    <g id="Page-2" stroke="none" stroke-width="1" fill="none" fill-rule="evenodd">
        <g id="1.0_Home" transform="translate(-994.000000, -3473.000000)">
            <g id="STATS-Copy" transform="translate(-0.000000, 3074.000000)">
                <g id="car_transmission_24x" transform="translate(994.000000, 399.000000)">
                    <mask id="mask-2" fill="white">
                        <use xlink:href="#path-1"></use>
                    </mask>
                    <g id="car_transmission_24x-(Background/Mask)"></g>
                    <path d="M41.6774036,31.8709677 L41.6774036,29.4193548 L43.5969156,29.4193548 L49.6672903,19.3016633 C50.8547901,17.3216986 51.4838538,15.0538371 51.4838538,12.7446762 C51.4838538,5.7172379 45.7666167,0 38.7391794,0 L37.2619871,0 C30.2333528,0 24.5161157,5.7172379 24.5161157,12.7446762 C24.5161157,15.0538371 25.1451795,17.3216987 26.3314821,19.3028604 L32.4030538,29.4193548 L34.3225659,29.4193548 L34.3225659,31.8709677 L11.0322467,31.8709677 C9.00499775,31.8709677 7.35482788,33.5211379 7.35482788,35.5483871 L7.35482788,72.3225806 C7.35482788,74.3498299 9.00499775,76 11.0322467,76 L64.9677228,76 C66.9949717,76 68.6451416,74.3498299 68.6451416,72.3225806 L68.6451416,35.5483871 C68.6451416,33.5211379 66.9949717,31.8709677 64.9677228,31.8709677 L41.6774036,31.8709677 Z M39.225791,73.5483871 L39.225791,61.2903226 L46.5806287,61.2903226 L46.5806287,53.9354839 L51.4838538,53.9354839 L51.4838538,44.1290323 L41.6774036,44.1290323 L41.6774036,39.2258065 L61.290304,39.2258065 L61.290304,51.483871 L56.3870789,51.483871 L56.3870789,58.8387097 L51.4838538,58.8387097 L51.4838538,66.1935484 L44.1290161,66.1935484 L44.1290161,73.5483871 L39.225791,73.5483871 Z M48.7245926,15.1705519 C44.5252484,13.5437249 41.6774036,9.47905116 41.6774036,4.90322581 L41.6774036,2.8843561 C45.9246308,4.15325731 49.0322412,8.09044229 49.0322412,12.7446762 C49.0322412,13.5670679 48.9167233,14.3786859 48.7245926,15.1705519 Z M34.3225659,4.90322581 C34.3225659,9.47905116 31.4747211,13.5437249 27.2753769,15.1705519 C27.0832462,14.3786859 26.9677283,13.5670679 26.9677283,12.7446762 C26.9677283,8.09044229 30.0753387,4.15325731 34.3225659,2.8843561 L34.3225659,4.90322581 Z M28.1396661,17.4653478 C33.2852992,15.4793978 36.7741785,10.5049458 36.7741785,4.90322581 L36.7741785,2.47615297 C36.9369809,2.46897051 37.0967906,2.4516129 37.26079,2.4516129 L38.7379824,2.4516129 C38.9031789,2.4516129 39.0629886,2.46897051 39.225791,2.47615297 L39.225791,4.90322581 C39.225791,10.5049458 42.7146703,15.4793978 47.8603034,17.4641507 C47.7609461,17.6550845 47.6777491,17.8537991 47.5664211,18.0399446 L42.209504,26.9677419 L33.7916625,26.9677419 L28.4335484,18.0411416 C28.3222203,17.8549962 28.2390234,17.6562815 28.1396661,17.4653478 Z M39.225791,44.1290323 L36.7741785,44.1290323 L36.7741785,29.4193548 L39.225791,29.4193548 L39.225791,44.1290323 Z M29.4193408,44.1290323 L29.4193408,39.2258065 L34.3225659,39.2258065 L34.3225659,44.1290323 L29.4193408,44.1290323 Z M9.80644043,35.5483871 C9.80644043,34.8732359 10.3558986,34.3225806 11.0322467,34.3225806 L34.3225659,34.3225806 L34.3225659,36.7741935 L26.9677283,36.7741935 L26.9677283,46.5806452 L49.0322412,46.5806452 L49.0322412,51.483871 L44.1290161,51.483871 L44.1290161,58.8387097 L36.7741785,58.8387097 L36.7741785,73.5483871 L11.0322467,73.5483871 C10.3558986,73.5483871 9.80644043,72.9989289 9.80644043,72.3225806 L9.80644043,35.5483871 Z M64.9677228,73.5483871 L46.5806287,73.5483871 L46.5806287,68.6451613 L53.9354663,68.6451613 L53.9354663,61.2903226 L58.8386914,61.2903226 L58.8386914,53.9354839 L63.7419165,53.9354839 L63.7419165,36.7741935 L41.6774036,36.7741935 L41.6774036,34.3225806 L64.9677228,34.3225806 C65.6440709,34.3225806 66.1935291,34.8732359 66.1935291,35.5483871 L66.1935291,72.3225806 C66.1935291,72.9989289 65.6440709,73.5483871 64.9677228,73.5483871 Z" id="Vector" fill="#FFFFFF" mask="url(#mask-2)"></path>
                    <path d="M24.5161209,46.5806198 L24.5161209,36.7741699 L12.2580566,36.7741699 L12.2580566,46.5806198 L24.5161209,46.5806198 Z M22.0645081,39.2257824 L22.0645081,44.1290073 L14.7096695,44.1290073 L14.7096695,39.2257824 L22.0645081,39.2257824 Z" id="Vector" fill="#FFFFFF" mask="url(#mask-2)"></path>
                    <path d="M22.0645084,71.0967369 L22.0645084,49.0322266 L12.2580566,49.0322266 L12.2580566,71.0967369 L22.0645084,71.0967369 Z M14.7096696,66.1935124 L19.6128955,66.1935124 L19.6128955,68.6451246 L14.7096696,68.6451246 L14.7096696,66.1935124 Z M19.6128955,63.7419001 L14.7096696,63.7419001 L14.7096696,61.2902879 L19.6128955,61.2902879 L19.6128955,63.7419001 Z M14.7096696,56.3870633 L19.6128955,56.3870633 L19.6128955,58.8386756 L14.7096696,58.8386756 L14.7096696,56.3870633 Z M19.6128955,53.9354511 L14.7096696,53.9354511 L14.7096696,51.4838388 L19.6128955,51.4838388 L19.6128955,53.9354511 Z" id="Vector" fill="#FFFFFF" mask="url(#mask-2)"></path>
                </g>
            </g>
        </g>
    </g>
</svg>