<?xml version="1.0" encoding="UTF-8"?>
<svg width="63px" height="63px" viewBox="0 0 63 63" version="1.1" xmlns="http://www.w3.org/2000/svg" xmlns:xlink="http://www.w3.org/1999/xlink">
    <title>6D940B26-633D-4734-BAD5-76E22A99A092</title>
    <defs>
        <rect id="path-1" x="0" y="0" width="63" height="63"></rect>
    </defs>
    <g id="Page-2" stroke="none" stroke-width="1" fill="none" fill-rule="evenodd">
        <g id="1.0_Home" transform="translate(-210.000000, -2798.000000)">
            <g id="VAL-PROP-Copy" transform="translate(210.000000, 2637.000000)">
                <g id="car_quality_service_24x" transform="translate(0.000000, 161.000000)">
                    <mask id="mask-2" fill="white">
                        <use xlink:href="#path-1"></use>
                    </mask>
                    <g id="car_quality_service_24x-(Background/Mask)"></g>
                    <g id="Group" mask="url(#mask-2)" fill="#02133C">
                        <g transform="translate(0.000000, 0.000366)" id="Vector">
                            <path d="M63,29.3999391 C63,28.8200778 62.5297247,28.3499401 61.9498635,28.3499401 L48.824899,28.3499401 L48.824899,7.34998477 C48.824899,6.77012345 48.3547613,6.29998704 47.7749001,6.29998704 L36.6333704,6.29998704 C38.0508673,4.92107746 38.8504414,3.02753752 38.8499164,1.04999781 C38.8499164,0.470136496 38.3797787,0 37.7999175,0 C35.2160044,0.00406874151 32.8239784,1.36473442 31.4999312,3.58364225 C30.175884,1.36473442 27.7838581,0.00406874151 25.199945,0 C24.6200837,0 24.149946,0.470136496 24.149946,1.04999781 C24.149421,3.02753752 24.9489951,4.92107746 26.366492,6.29998704 L15.2249611,6.29998704 C14.6450999,6.29998704 14.1749634,6.77012345 14.1749634,7.34998477 L14.1749634,28.3499401 L1.04999771,28.3499401 C0.470136444,28.3499401 0,28.8200778 0,29.3999391 L0,33.59993 C0,34.1797913 0.470136444,34.649929 1.04999771,34.649929 L35.5298239,34.649929 L29.2298351,36.7499245 L13.6499702,36.7499245 C13.3714583,36.7499245 13.1044968,36.8606971 12.9076222,37.0575717 L8.39998166,41.5652124 L7.04233423,40.2075662 C6.63231013,39.7976733 5.96766236,39.7976733 5.55763826,40.2075662 L0.307649348,45.4575536 C-0.102243482,45.8675777 -0.102243482,46.5322229 0.307649348,46.9422471 L16.0576153,62.6922169 C16.4676394,63.1021098 17.1322885,63.1021098 17.5423126,62.6922169 L22.7922998,57.4422269 C23.2021927,57.0322028 23.2021927,56.3675576 22.7922998,55.9575334 L22.6190499,55.7842835 L28.6859375,51.4498953 L49.349891,51.4498953 C49.6126529,51.4498953 49.865964,51.3513216 50.0596886,51.1737408 L61.4773627,40.7084129 C63.1990964,39.1324974 63.4990076,36.5299472 62.1808667,34.6037264 C62.655072,34.5020078 62.9953999,34.0848978 63,33.59993 L63,29.3999391 Z M32.6843299,6.16558727 C33.1406852,4.21429769 34.6642319,2.69075039 36.6155212,2.23439508 C36.159166,4.18568466 34.6356193,5.70923196 32.6843299,6.16558727 Z M26.3843437,2.23439508 C28.3356331,2.69075039 29.8591772,4.21429769 30.3155325,6.16558727 C28.3642431,5.70923196 26.840699,4.18568466 26.3843437,2.23439508 Z M46.7249061,8.39998251 L46.7249061,28.3499401 C21.9369699,28.3499401 34.4298309,28.3499401 16.2749588,28.3499401 L16.2749588,8.39998251 L46.7249061,8.39998251 Z M2.09999541,30.4499356 L60.8998695,30.4499356 L60.8998695,32.549931 L2.09999541,32.549931 L2.09999541,30.4499356 Z M44.4894495,34.649929 L53.9383787,34.649929 L46.850897,40.9499154 L43.1244533,40.9499154 C45.1817926,39.8609365 45.9668,37.3103578 44.8778212,35.2531496 C44.7657339,35.0414438 44.6357929,34.8395849 44.4894495,34.649929 Z M2.53469446,46.1999053 L6.29998624,42.4346089 L20.5652559,56.6998802 L16.7999633,60.4651716 L2.53469446,46.1999053 Z M48.9414421,49.3497671 L28.3499368,49.3497671 C28.1311436,49.3497671 27.9179954,49.4180173 27.7398895,49.545067 L21.1133529,54.2784563 L9.88467826,43.0497782 L14.0846685,38.8497873 L29.3999358,38.8497873 C29.5126793,38.8499185 29.6247673,38.8318033 29.7317358,38.7962346 L40.4732129,35.2157414 C41.5837168,34.8431234 42.7860969,35.4413644 43.1587148,36.5518684 C43.5313328,37.6623724 42.9330917,38.8647499 41.8225878,39.2373679 C41.7826879,39.2507554 41.7423963,39.2629601 41.7017089,39.2739851 L35.5592237,40.9497827 L32.5499277,40.9497827 L32.5499277,43.0497782 L47.2498981,43.0497782 C47.506885,43.0499095 47.754949,42.9556678 47.9470986,42.7851744 L56.3628266,35.3049949 C56.8374255,34.8827645 57.4506247,34.6495338 58.0858733,34.6497963 L58.3032231,34.6497963 C59.7367324,34.6446776 60.903017,35.8025605 60.9081357,37.2359386 C60.9107607,37.9700183 60.602588,38.6707605 60.0598704,39.1647845 L48.9414421,49.3497671 Z"></path>
                        </g>
                    </g>
                    <g id="Giftbox-outline" mask="url(#mask-2)" fill="#4187D4">
                        <g transform="translate(0.000000, 0.000366)" id="Vector">
                            <path d="M62.9998665,29.3999391 C62.9998665,28.8200778 62.5297288,28.3499401 61.9498675,28.3499401 L48.8249022,28.3499401 L48.8249022,7.34998478 C48.8249022,6.77012346 48.3547644,6.29998704 47.7749031,6.29998704 L36.6333728,6.29998704 C38.0508698,4.92107746 38.8504439,3.02753753 38.8499189,1.04999781 C38.8499189,0.470136496 38.3797812,0 37.7999199,0 C35.2160066,0.00406874152 32.8239805,1.36473442 31.4999332,3.58364225 C30.175886,1.36473442 27.7838598,0.00406874152 25.1999466,0 C24.6200853,0 24.1499476,0.470136496 24.1499476,1.04999781 C24.1494226,3.02753753 24.9489967,4.92107746 26.3664937,6.29998704 L15.2249621,6.29998704 C14.6451008,6.29998704 14.1749643,6.77012346 14.1749643,7.34998478 L14.1749643,28.3499401 L1.04999777,28.3499401 C0.470136474,28.3499401 0,28.8200778 0,29.3999391 L0,33.5999301 C0,34.1797914 0.470136474,34.649929 1.04999777,34.649929 C41.8039123,34.6191273 62.1808699,34.6037264 62.1808707,34.6037264 C62.655076,34.5020079 62.995404,34.0848978 62.9998665,33.5999301 L62.9998665,29.3999391 Z M32.684332,6.16558727 C33.1406873,4.21429769 34.6642341,2.69075039 36.6155236,2.23439509 C36.1591683,4.18568467 34.6356215,5.70923197 32.684332,6.16558727 Z M26.3843454,2.23439509 C28.3356349,2.69075039 29.8591792,4.21429769 30.3155344,6.16558727 C28.3642449,5.70923197 26.8407007,4.18568467 26.3843454,2.23439509 Z M46.7249091,8.39998251 L46.7249091,28.3499401 C21.9369713,28.3499401 34.4298331,28.3499401 16.2749599,28.3499401 L16.2749599,8.39998251 L46.7249091,8.39998251 Z"></path>
                        </g>
                    </g>
                    <g id="Group" mask="url(#mask-2)">
                        <g transform="translate(51.975128, 4.200195)">
                            <path d="M2.09999847,0 L2.09999847,2.09999037 L0,2.09999037 L0,0 L2.09999847,0 Z" id="Vector" fill="#4187D4"></path>
                        </g>
                    </g>
                    <g id="Group" mask="url(#mask-2)">
                        <g transform="translate(54.074615, 2.100220)">
                            <path d="M2.1000061,0 L2.1000061,2.09999323 L0,2.09999323 L0,0 L2.1000061,0 Z" id="Vector" fill="#4187D4"></path>
                        </g>
                    </g>
                    <g id="Group" mask="url(#mask-2)">
                        <g transform="translate(56.174744, 4.200195)">
                            <path d="M2.09998703,0 L2.09998703,2.09999037 L0,2.09999037 L0,0 L2.09998703,0 Z" id="Vector" fill="#4187D4"></path>
                        </g>
                    </g>
                    <g id="Group" mask="url(#mask-2)">
                        <g transform="translate(54.074615, 6.300293)">
                            <path d="M2.1000061,0 L2.1000061,2.10000515 L0,2.10000515 L0,0 L2.1000061,0 Z" id="Vector" fill="#4187D4"></path>
                        </g>
                    </g>
                    <g id="Group" mask="url(#mask-2)">
                        <g transform="translate(60.900177, 1.050171)">
                            <path d="M2.09999847,0 L2.09999847,2.09999681 L0,2.09999681 L0,0 L2.09999847,0 Z" id="Vector" fill="#4187D4"></path>
                        </g>
                    </g>
                    <g id="Group" mask="url(#mask-2)">
                        <g transform="translate(52.500031, 12.600342)">
                            <path d="M2.09999847,0 L2.09999847,2.09999561 L0,2.09999561 L0,0 L2.09999847,0 Z" id="Vector" fill="#4187D4"></path>
                        </g>
                    </g>
                    <g id="Group" mask="url(#mask-2)">
                        <g transform="translate(6.825256, 11.550171)">
                            <path d="M2.09999561,0 L2.09999561,2.09999561 L0,2.09999561 L0,0 L2.09999561,0 Z" id="Vector" fill="#4187D4"></path>
                        </g>
                    </g>
                    <g id="Group" mask="url(#mask-2)">
                        <g transform="translate(6.825256, 15.750244)">
                            <path d="M2.09999561,0 L2.09999561,2.09999561 L0,2.09999561 L0,0 L2.09999561,0 Z" id="Vector" fill="#4187D4"></path>
                        </g>
                    </g>
                    <g id="Group" mask="url(#mask-2)">
                        <g transform="translate(8.925385, 13.650146)">
                            <path d="M2.09999561,0 L2.09999561,2.09997749 L0,2.09997749 L0,0 L2.09999561,0 Z" id="Vector" fill="#4187D4"></path>
                        </g>
                    </g>
                    <g id="Group" mask="url(#mask-2)">
                        <g transform="translate(4.724487, 13.650146)">
                            <path d="M2.09999561,0 L2.09999561,2.09997749 L0,2.09997749 L0,0 L2.09999561,0 Z" id="Vector" fill="#4187D4"></path>
                        </g>
                    </g>
                    <g id="Group" mask="url(#mask-2)">
                        <g transform="translate(0.000000, 6.300293)">
                            <path d="M2.09999561,0 L2.09999561,2.10000515 L0,2.10000515 L0,0 L2.09999561,0 Z" id="Vector" fill="#4187D4"></path>
                        </g>
                    </g>
                    <g id="Group" mask="url(#mask-2)">
                        <g transform="translate(9.449951, 1.050171)">
                            <path d="M2.09999561,0 L2.09999561,2.09999681 L0,2.09999681 L0,0 L2.09999561,0 Z" id="Vector" fill="#4187D4"></path>
                        </g>
                    </g>
                    <g id="Diamond" mask="url(#mask-2)" fill-rule="nonzero">
                        <g transform="translate(21.252319, 10.500000)" id="Vector">
                            <path d="M0,5.65380859 L20.4951859,5.65380859 L10.2475929,18.3749619 L0,5.65380859 Z" fill="#4187D4"></path>
                            <path d="M0,5.65384483 L3.53365292,0 L16.9615324,0 L20.4951859,5.65384483 L0,5.65384483 Z" fill="#4187D4"></path>
                            <path d="M16.960659,0 L3.53277588,0 L5.59854959,5.65384483 L14.894885,5.65384483 L16.960659,0 Z" fill="#4187D4"></path>
                            <path d="M10.2477112,0 L5.65396118,5.65384483 L14.8414612,5.65384483 L10.2477112,0 Z" fill="#70ADEF"></path>
                            <path d="M10.2468017,18.3749619 L14.8949699,5.65380859 L5.59863281,5.65380859 L10.2468017,18.3749619 Z" fill="#5095E1"></path>
                        </g>
                    </g>
                </g>
            </g>
        </g>
    </g>
</svg>