<?xml version="1.0" encoding="UTF-8"?>
<svg width="63px" height="63px" viewBox="0 0 63 63" version="1.1" xmlns="http://www.w3.org/2000/svg" xmlns:xlink="http://www.w3.org/1999/xlink">
    <title>B85A08B1-1AAE-4E96-8D7E-82787ADE505E</title>
    <defs>
        <rect id="path-1" x="0" y="0" width="63" height="63"></rect>
    </defs>
    <g id="Page-2" stroke="none" stroke-width="1" fill="none" fill-rule="evenodd">
        <g id="1.0_Home" transform="translate(-906.000000, -2798.000000)">
            <g id="VAL-PROP-Copy" transform="translate(210.000000, 2637.000000)">
                <g id="car_team_24x" transform="translate(696.000000, 161.000000)">
                    <mask id="mask-2" fill="white">
                        <use xlink:href="#path-1"></use>
                    </mask>
                    <g id="car_team_24x-(Background/Mask)"></g>
                    <path d="M46.9483401,12.2555677 L48.5122261,8.59442707 L43.1314064,3.21509568 L39.9594765,5.27960388 C38.7543118,4.60086146 37.4796852,4.07245456 36.1559391,3.70182544 L35.3725076,0 L27.6284935,0 L26.845062,3.70182544 C25.521316,4.07245456 24.2456969,4.60086146 23.0415245,5.27960388 L19.8695946,3.21509568 L14.4932404,8.59145013 L16.0273569,12.2461407 C18.3592935,12.557231 20.2322851,14.2521024 20.981978,16.4391613 L21.3387147,15.6587067 C23.1586175,11.7018567 27.1467253,9.14516105 31.5000044,9.14516105 C35.8145832,9.14516105 39.7887985,11.6691104 41.6235862,15.577337 L41.9832998,16.343403 C42.7131464,14.1791673 44.6223574,12.5646733 46.9483401,12.2555677 Z" id="Vector" fill="#4187D4" fill-rule="nonzero" mask="url(#mask-2)"></path>
                    <path d="M35.5635117,26.6407462 L35.5635117,26.1540156 C37.4573417,24.8322519 38.6128906,22.6486626 38.6128906,20.322676 L38.6128906,18.5464325 C38.6128906,14.599003 35.5198499,11.2955859 31.7182975,11.1804773 C29.7703863,11.1184576 27.9395684,11.8339168 26.5473527,13.1854499 C25.1541448,14.5369831 24.3870866,16.3494469 24.3870866,18.2904152 L24.3870866,20.322676 C24.3870866,22.6486626 25.5416431,24.8312596 27.4354731,26.1530233 L27.4354731,26.6407462 L23.1556257,27.7119503 C20.8896782,28.278066 19.3064423,30.3053658 19.3064423,32.6412756 L19.3064423,34.4358774 L22.1414815,33.8057573 C22.9586516,33.6236675 23.7936832,33.5323745 24.6297072,33.5323745 C25.8155217,33.5323745 26.99439,33.716449 28.1231463,34.0771555 L32.7751112,35.5646358 C33.2772219,35.5646358 33.7773478,35.634594 34.2596119,35.773022 L40.6451483,37.5968971 L41.6612771,37.5968971 L43.6935349,36.5266853 L43.6935349,32.6412756 C43.6935349,30.3053658 42.1102989,28.278066 39.8443514,27.7119503 L35.5635117,26.6407462 Z" id="Vector" fill="#4187D4" fill-rule="nonzero" mask="url(#mask-2)"></path>
                    <path d="M60.7166866,26.4193925 L57.3135474,28.2100232 C56.9305144,27.9986605 56.5321006,27.819548 56.1024288,27.7118818 L51.8215883,26.6406784 L51.8215883,26.1539486 C53.7154187,24.832187 54.8709677,22.648601 54.8709677,20.322618 L54.8709677,18.5463773 C54.8709677,14.598954 51.7779265,11.2955422 47.9763735,11.1804338 C46.031439,11.1233757 44.1976438,11.8338723 42.8054278,13.1854033 C41.4122196,14.5369344 40.6451613,16.3493951 40.6451613,18.2903604 L40.6451613,20.322618 C40.6451613,22.648601 41.7997181,24.8311946 43.6935484,26.1529563 L43.6935484,26.6406784 L39.6290323,27.6582969 L39.8443643,27.7118818 C40.7855738,27.9465641 41.5982784,28.443713 42.2383206,29.1001285 L45.7258065,28.2288772 L45.7258065,25.0108034 L45.2187342,24.7175747 C43.6508789,23.8110964 42.6774194,22.1261479 42.6774194,20.322618 L42.6774194,18.2903604 C42.6774194,16.9045945 43.2251764,15.6086331 44.220963,14.6436081 C45.2157572,13.6790793 46.5355343,13.1591069 47.9153462,13.212692 C50.6298198,13.2940615 52.8387097,15.6870258 52.8387097,18.5463773 L52.8387097,20.322618 C52.8387097,22.1261479 51.8642579,23.8110963 50.2954102,24.7195594 L49.7873456,25.0132842 L49.7913149,28.2288772 L54.8679908,29.4970539 L41.410235,36.5806842 L40.7875583,36.5806842 L34.5404486,34.7955121 C34.0492533,34.6560921 33.5421813,34.5990341 33.0331244,34.5796839 L28.4332551,33.1095714 C26.3369928,32.4377751 24.068068,32.3375514 21.92219,32.8128696 L16.1379946,34.0984118 L16.2203566,33.8106409 L16.2580645,31.9326875 L10.8990754,28.8064037 L13.2096774,28.2288772 L13.2096774,25.0108034 L12.7026052,24.7175747 C11.1347499,23.8110964 10.1612903,22.1261479 10.1612903,20.322618 L10.1612903,18.2903604 C10.1612903,16.9045945 10.7090473,15.6086331 11.704834,14.6436081 C12.6996282,13.6790793 14.0223823,13.1591069 15.3992172,13.212692 C18.1136908,13.2940615 20.3225806,15.6870258 20.3225806,18.5463773 L20.3225806,20.322618 C20.3225806,22.1261479 19.3481289,23.8110963 17.7792811,24.7195594 L17.2712166,25.0132842 L17.2751859,28.2288772 L20.7616794,29.1001285 C21.4027139,28.443713 22.2144262,27.9465641 23.1556357,27.7118818 L23.3709677,27.6582969 L19.3054593,26.6406784 L19.3054593,26.1539486 C21.1992896,24.832187 22.3548387,22.648601 22.3548387,20.322618 L22.3548387,18.5463773 C22.3548387,14.598954 19.2617975,11.2955422 15.4602445,11.1804338 C13.5143178,11.1233757 11.6815147,11.8338723 10.2892988,13.1854033 C8.8960906,14.5369344 8.12903226,16.3493951 8.12903226,18.2903604 L8.12903226,20.322618 C8.12903226,22.648601 9.28358902,24.8311946 11.1774194,26.1529563 L11.1774194,26.6406784 L8.38504914,27.338771 L3.3237541,24.3871343 L0,24.3871343 L0,45.4425384 L9.99656628,48.7742311 L11.9434854,48.7742311 L12.1866022,47.9228261 L15.2508663,49.7620793 C15.3009782,51.4281736 16.6371283,52.7687894 18.3017342,52.8273358 C18.3602806,54.4849957 19.6924614,55.8171766 21.3501213,55.875723 C21.4086677,57.5333829 22.7408485,58.8655638 24.3985084,58.9241102 C24.4590394,60.6204703 25.8482784,61.9839091 27.5585307,61.9839091 C28.1936114,61.9839091 28.8162881,61.7859426 29.3397335,61.4331751 L30.2397618,62.2280182 C30.803892,62.7246711 31.5302656,63.0000381 32.2844238,63.0000381 L32.4724672,63.0000381 C34.1633695,63.0000381 35.5392121,61.6331262 35.5605469,59.9476817 C37.2330913,59.9263469 38.5875992,58.5718389 38.608934,56.8992945 C40.2824707,56.8779597 41.6379709,55.5214672 41.6573211,53.8479303 C43.3462387,53.8082378 44.7096774,52.4284256 44.7096774,50.7300811 C44.7096774,50.6278728 44.7047159,50.527153 44.6942966,50.4254409 L63,41.2733349 L63,26.4193925 L60.7166866,26.4193925 Z M2.7730201,26.4193925 L10.0809129,30.6818763 L6.39347593,45.4311268 L2.03225806,43.9768913 L2.03225806,26.4193925 L2.7730201,26.4193925 Z M8.32600649,46.0756344 L11.9082583,31.7481172 L14.2258065,33.0996483 L14.2258065,33.3899 L10.4113533,46.741973 L10.3260144,46.741973 L8.32600649,46.0756344 Z M17.6076109,48.8615547 L19.3937752,47.0753903 C19.6061303,46.8630352 19.8998551,46.741973 20.1995338,46.741973 C20.8276682,46.741973 21.3387097,47.2530145 21.3387097,47.8811489 C21.3387097,48.1808276 21.2176474,48.4745524 21.0052923,48.6869075 L19.219128,50.4730719 C19.0067729,50.685427 18.7130481,50.8064893 18.4133695,50.8064893 C17.7852351,50.8064893 17.2741935,50.2954477 17.2741935,49.6673133 C17.2741935,49.3676346 17.3952558,49.0739098 17.6076109,48.8615547 Z M20.655998,51.9099419 L22.4421623,50.1237775 C22.6545174,49.9114224 22.9482422,49.7903602 23.2479209,49.7903602 C23.8760553,49.7903602 24.3870968,50.3014017 24.3870968,50.9295361 C24.3870968,51.2292148 24.2660345,51.5229396 24.0536794,51.7352947 L22.2675151,53.5214591 C22.05516,53.7338142 21.7614352,53.8548765 21.4617566,53.8548765 C20.8336222,53.8548765 20.3225806,53.3438349 20.3225806,52.7157005 C20.3225806,52.4160218 20.4436429,52.122297 20.655998,51.9099419 Z M23.7043851,54.9583292 L25.4905494,53.1721648 C25.7029045,52.9598097 25.9966293,52.8387474 26.296308,52.8387474 C26.9244424,52.8387474 27.4354839,53.349789 27.4354839,53.9779234 C27.4354839,54.2776021 27.3144216,54.5713269 27.1020665,54.783682 L25.3159022,56.5698464 C25.1035471,56.7822015 24.8098223,56.9032637 24.5101436,56.9032637 C23.8820093,56.9032637 23.3709677,56.3922222 23.3709677,55.7640878 C23.3709677,55.4644091 23.49203,55.1706843 23.7043851,54.9583292 Z M26.4193548,58.812475 C26.4193548,58.5127963 26.5404171,58.2190715 26.7527722,58.0067164 L28.5389365,56.220552 C28.7512916,56.0081969 29.0450164,55.8871346 29.3446951,55.8871346 C29.9728295,55.8871346 30.483871,56.3981762 30.483871,57.0263106 C30.483871,57.3259893 30.3628087,57.6197141 30.1504536,57.8320692 L28.3642893,59.6182336 C28.1519342,59.8305887 27.8582094,59.9516509 27.5585307,59.9516509 C26.9303964,59.9516509 26.4193548,59.4406094 26.4193548,58.812475 Z M32.2844238,60.96778 C32.0254301,60.96778 31.7773517,60.8735102 31.5843466,60.7023361 L30.8242345,60.0320283 L31.5873236,59.2689392 C31.8597136,58.9965492 32.0710765,58.6725589 32.2273658,58.3247529 L33.1512097,59.0937959 C33.392838,59.2952355 33.5322581,59.5919373 33.5322581,59.9079891 C33.5322581,60.4924618 33.0569398,60.96778 32.4724672,60.96778 L32.4724672,60.96778 L32.2844238,60.96778 Z M41.4092427,51.8226183 C41.1542181,51.8226183 40.9051474,51.7323177 40.7101578,51.5685861 L35.1998409,46.9766551 L33.8979256,48.5385567 L39.2489762,52.9970214 C39.4896123,53.198461 39.6290323,53.4951629 39.6290323,53.8112147 C39.6290323,54.3956873 39.153714,54.8710056 38.5692414,54.8710056 L38.3474594,54.8710056 C38.1008695,54.8710056 37.8597372,54.783682 37.6697092,54.6249118 L32.1504615,50.0260347 L30.8485462,51.5879362 L36.1995968,56.0468971 C36.4412251,56.2468483 36.5806452,56.5435501 36.5806452,56.8596019 C36.5806452,57.4440745 36.1053269,57.9193928 35.5208543,57.9193928 C35.1308752,57.9193928 34.7508191,57.780965 34.4516365,57.5323905 L32.183704,55.6420332 C31.6840742,54.6209427 30.6575258,53.9089575 29.455338,53.8662881 C29.3967915,52.2086282 28.0646106,50.8764473 26.4069509,50.8179009 C26.3484044,49.160241 25.0162235,47.8280601 23.3585638,47.7695137 C23.299025,46.0731536 21.9097861,44.7097148 20.1995338,44.7097148 C19.3645019,44.7097148 18.5473318,45.0480937 17.9569052,45.6385203 L16.1707409,47.4246847 C16.0640672,47.5313584 15.9757514,47.6524207 15.885947,47.7724906 L12.7646248,45.8994988 L15.5009293,36.3226827 L22.3607926,34.7974967 C24.1603531,34.3951136 26.0576566,34.4824372 27.812563,35.0440867 L29.3094679,35.5228779 L24.2347767,38.0602237 C23.0752583,38.6412231 22.3548387,39.8076877 22.3548387,41.1046416 L22.3548387,41.3055851 C22.3548387,43.1825461 23.8820093,44.7097148 25.7589702,44.7097148 C26.3756931,44.7097148 26.9824927,44.5420139 27.5099074,44.2239773 L31.2935988,41.9550544 C32.0537109,41.4995824 33.0738092,41.59931 33.7302246,42.1897365 L42.3157211,49.916384 C42.5454417,50.1247697 42.6774194,50.4204793 42.6774194,50.7300811 C42.6774194,51.3329115 42.1877125,51.8226183 41.5848822,51.8226183 L41.5848822,51.8226183 L41.4092427,51.8226183 Z M43.8488455,48.5772569 C43.7932759,48.5182142 43.7352256,48.4621486 43.6741983,48.4075713 L35.0901903,40.6809238 C34.3380166,40.0021813 33.3655493,39.6290714 32.3523973,39.6290714 C31.6116351,39.6290714 30.8842695,39.8305111 30.2472042,40.2125518 L26.4620243,42.482469 C26.2496691,42.6104774 26.0070486,42.6774586 25.7589702,42.6774586 C25.0018351,42.6774586 24.3870968,42.0627203 24.3870968,41.3055851 L24.3870968,41.1046416 C24.3870968,40.5811962 24.6778446,40.1118319 25.1452243,39.8781421 L30.8133191,37.0440946 C31.7833056,36.5583571 32.9348853,36.4496987 33.9802876,36.7503698 L40.365825,38.5742421 L41.9123456,38.6129423 L60.9677419,28.5836293 L60.9677419,40.017066 L43.8488455,48.5772569 Z" id="Vector" fill="#02133C" mask="url(#mask-2)"></path>
                </g>
            </g>
        </g>
    </g>
</svg>