<?xml version="1.0" encoding="UTF-8"?>
<svg width="63px" height="63px" viewBox="0 0 63 63" version="1.1" xmlns="http://www.w3.org/2000/svg" xmlns:xlink="http://www.w3.org/1999/xlink">
    <title>6A2FEEF3-19C7-4594-B8F7-1EE6EECE2220</title>
    <defs>
        <rect id="path-1" x="0" y="0" width="63" height="63"></rect>
    </defs>
    <g id="Page-2" stroke="none" stroke-width="1" fill="none" fill-rule="evenodd">
        <g id="1.0_Home" transform="translate(-558.000000, -2798.000000)">
            <g id="VAL-PROP-Copy" transform="translate(210.000000, 2637.000000)">
                <g id="car_certified_pros_24x" transform="translate(348.000000, 161.000000)">
                    <mask id="mask-2" fill="white">
                        <use xlink:href="#path-1"></use>
                    </mask>
                    <g id="car_certified_pros_24x-(Background/Mask)"></g>
                    <path d="M49.2184917,12.7959148 L24.6091141,0.4921875 L-0.000274658203,12.7968761 L-0.000274658203,29.0962627 C-0.00987413428,39.3033864 5.09176438,48.8375975 13.5892088,54.4929477 L24.6091141,61.8363474 L33.0983893,56.1814779 C37.686692,62.0588893 45.6126414,64.1876965 52.5282604,61.4003962 C59.4443602,58.6130958 63.6789031,51.5835618 62.9098601,44.167103 C62.1403365,36.7501635 56.5532392,30.7396114 49.2127238,29.4307964 L49.2127238,29.4317577 L49.2184917,12.7959148 Z M14.6817305,52.8568087 C6.7312679,47.5662732 1.95839535,38.6458546 1.96848901,29.0962627 L1.96848901,14.0134061 L24.6091141,2.69309255 L47.2497416,14.0134061 L47.2497416,29.2053707 C46.9228983,29.185664 46.598939,29.1553829 46.2653666,29.1553829 C45.9317941,29.1553829 45.6068736,29.185664 45.2809916,29.2053707 C45.2809916,29.1810177 45.2809916,24.5217384 45.2809916,15.2275328 L24.6091141,4.89255564 L3.93723906,15.2284941 L3.93723906,29.0962627 C3.93002925,37.9868809 8.37365533,46.2906231 15.7742521,51.2168244 L24.6091141,57.1033682 L31.0488879,52.8125887 C31.3243014,53.4134036 31.6352849,53.9973957 31.9799124,54.5612003 L24.6091141,59.4739434 L14.6817305,52.8568087 Z M24.6091141,54.7380802 L16.8672545,49.5792434 C16.4851362,49.3240172 16.1150343,49.0562941 15.7497389,48.7818419 L15.7497389,39.9835088 L13.7809888,39.9835088 L13.7809888,47.1298413 C12.7004834,46.1281626 11.7122632,45.0308346 10.8278638,43.8517953 L10.8278638,38.1315571 C10.8283444,36.7780413 11.7487928,35.598041 13.061453,35.2683137 L19.7372268,33.5946838 C19.9515976,35.7292589 21.5247711,37.4778705 23.6247391,37.916225 L23.6247391,41.952259 L25.5934892,41.952259 L25.5934892,37.916225 C27.6934572,37.4783512 29.26615,35.7292589 29.4800402,33.5946838 L33.8621451,34.6953767 C29.8669668,39.0890157 28.5144106,45.2778895 30.3125292,50.9375656 L30.3125292,50.9385269 L24.6091141,54.7380802 Z M22.4082092,21.2803821 C23.9275499,21.2784597 25.4281449,20.9420032 26.8032899,20.2960071 L27.0700517,20.2960071 L29.5309893,23.5769369 L29.5309893,27.6788202 L26.2500596,30.139758 L22.9681687,30.139758 L19.687239,27.6788202 L19.687239,21.2803821 L22.4082092,21.2803821 Z M19.9088195,16.4666534 C22.0861725,15.4976591 24.5394196,15.3433699 26.821074,16.0316634 L27.0474611,16.3585067 L28.5466142,16.3585067 C29.0902316,16.3585067 29.5309893,16.7992646 29.5309893,17.3428818 L29.5309893,20.2960071 L28.0544267,18.3272569 L26.3457093,18.3272569 L26.1380677,18.430597 C24.9792161,19.0078599 23.7026047,19.3097095 22.4082092,19.311632 L17.8001998,19.311632 C17.9996703,18.0773179 18.7855361,17.0165191 19.9088195,16.4666534 Z M27.5622392,33.0928832 C27.5622392,34.7237352 26.2399659,36.0460085 24.6091141,36.0460085 C22.9782623,36.0460085 21.6559891,34.7237352 21.6559891,33.0928832 L21.6559891,31.6163206 L22.3125595,32.1085081 L26.9056688,32.1085081 L27.5622392,31.6163206 L27.5622392,33.0928832 Z M29.5309893,30.139758 L31.4997412,28.6631953 L31.4997412,17.3428818 C31.4997412,15.7115494 30.177466,14.3897565 28.5466142,14.3897565 L27.8919664,14.3897565 C26.4677949,13.5241025 22.9220261,13.3491451 20.4106201,14.1345304 C17.5944808,14.8261885 15.6492827,17.3976761 15.7497389,20.2960071 L15.7497389,21.2803821 L17.718489,21.2803821 L17.718489,28.6631953 L19.687239,30.139758 L19.687239,31.5730619 L12.5822431,33.359645 C10.3923934,33.9061464 8.85671049,35.8748964 8.85911372,38.1315571 L8.85911372,40.7895621 C6.91920278,37.1976504 5.9040665,33.1789199 5.90598911,29.0962627 L5.90598911,16.445024 L24.6091141,7.09346068 L43.3122415,16.445024 L43.3122415,29.0962627 C43.3122415,29.2092158 43.3055123,29.3216884 43.3045511,29.4336803 C40.4336175,29.9470165 37.7482155,31.2048824 35.5160682,33.0818282 L29.5309893,31.5778684 L29.5309893,30.139758 Z M31.4997412,45.8897594 C31.4997412,37.7345386 38.110627,31.124133 46.2653666,31.124133 C54.4201062,31.124133 61.030992,37.7345386 61.030992,45.8897594 C61.0218596,54.0406543 54.416261,60.6457728 46.2653666,60.6553857 C38.110627,60.6553857 31.4997412,54.0444995 31.4997412,45.8897594 Z" id="Vector" fill="#02133C" mask="url(#mask-2)"></path>
                    <path d="M62.9997559,17.3428955 L62.9997559,19.3116455 L51.1872559,19.3116455 L51.1872559,17.3428955 L62.9997559,17.3428955 Z" id="Vector" fill="#4187D4" fill-rule="nonzero" mask="url(#mask-2)"></path>
                    <path d="M59.0622559,21.2803955 L59.0622559,23.2491455 L51.1872559,23.2491455 L51.1872559,21.2803955 L59.0622559,21.2803955 Z" id="Vector" fill="#4187D4" fill-rule="nonzero" mask="url(#mask-2)"></path>
                    <path d="M55.1247559,25.2178955 L55.1247559,27.1866455 L51.1872559,27.1866455 L51.1872559,25.2178955 L55.1247559,25.2178955 Z" id="Vector" fill="#4187D4" fill-rule="nonzero" mask="url(#mask-2)"></path>
                    <path d="M45.9375,63 C55.3608585,63 63,55.3608585 63,45.9375 C63,36.5141415 55.3608585,28.875 45.9375,28.875 C36.5141415,28.875 28.875,36.5141415 28.875,45.9375 C28.875,55.3608585 36.5141415,63 45.9375,63 Z" id="Ellipse-1" fill="#4187D4" mask="url(#mask-2)"></path>
                    <path d="M40.202378,42.9052809 L36.75,46.0430682 L43.8697182,52.5 L55.125,39.8875157 L51.6726217,36.75 L43.8697182,46.2241563 L40.202378,42.9052809 Z" id="Vector" fill="#FFFFFF" fill-rule="nonzero" mask="url(#mask-2)"></path>
                </g>
            </g>
        </g>
    </g>
</svg>