<svg xmlns="http://www.w3.org/2000/svg" xmlns:xlink="http://www.w3.org/1999/xlink" width="63" height="63" viewBox="0 0 63 63">
    <defs>
        <path id="skg8ykbwfa" d="M0 0H63V63H0z"/>
    </defs>
    <g fill="none" fill-rule="evenodd">
        <g>
            <g>
                <g>
                    <g>
                        <g transform="translate(-689.000000, -1595.000000) translate(210.000000, 1010.000000) translate(348.000000, 535.000000) translate(43.000000, 50.000000) translate(88.000000, 0.000000)">
                            <mask id="6d03yj6pub" fill="#fff">
                                <use xlink:href="#skg8ykbwfa"/>
                            </mask>
                            <path fill="#4187D4" d="M39.63 5.08v18.29H5.08V5.08h34.55z" mask="url(#6d03yj6pub)"/>
                            <g fill="#02133C" mask="url(#6d03yj6pub)">
                                <path d="M58.935 31.5c0-1.68-1.367-3.048-3.048-3.048-1.68 0-3.048 1.367-3.048 3.048v21.339h2.032v5.08c0 1.681-1.368 3.049-3.048 3.049H19.306c-1.68 0-3.048-1.368-3.048-3.049V42.677h12.194v13.21c0 1.68 1.367 3.048 3.048 3.048h10.161c1.681 0 3.049-1.367 3.049-3.048V52.84h2.032V43.88c1.18.42 2.032 1.538 2.032 2.86v6.098h2.032v-6.097c0-2.453-1.748-4.506-4.064-4.978V31.5c0-1.323-.853-2.44-2.032-2.861V0H0v42.677h14.226V57.92c0 2.802 2.279 5.081 5.08 5.081h32.517c2.801 0 5.08-2.28 5.08-5.08v-5.081h2.032V43.88c1.18.42 2.033 1.538 2.033 2.86v6.098H63v-6.097c0-2.453-1.749-4.506-4.065-4.978V31.5zM41.661 56.903H31.5c-.56 0-1.016-.455-1.016-1.016v-13.21h10.161V52.84h2.032v3.048c0 .561-.456 1.016-1.016 1.016zM44.71 31.5v1.016h-2.033V31.5c0-.56.457-1.016 1.017-1.016.56 0 1.016.455 1.016 1.016zm-2.033 3.048h2.033v16.258h-2.033V34.548zm0-32.516V28.64c-1.18.42-2.032 1.538-2.032 2.861v9.145H2.032V2.032h40.645zM56.903 31.5v1.016h-2.032V31.5c0-.56.456-1.016 1.016-1.016s1.016.455 1.016 1.016zm-2.032 3.048h2.032v16.258h-2.032V34.548z"/>
                                <path fill-rule="nonzero" d="M8.211 15.858l1.866.804c.117-.265 2.958-6.5 12.278-6.5s12.161 6.235 12.276 6.497l1.867-.8c-.135-.316-3.435-7.73-14.143-7.73S8.347 15.543 8.21 15.858z"/>
                                <path fill-rule="nonzero" d="M22.355 18.29c-2.802 0-5.08 2.28-5.08 5.081h2.031c0-1.68 1.368-3.048 3.049-3.048 1.68 0 3.048 1.367 3.048 3.048h2.032c0-1.478-.646-2.8-1.657-3.73l3.545-5.908-1.742-1.046-3.548 5.911c-.528-.187-1.087-.308-1.678-.308z"/>
                                <path d="M16.258 32.516c0 3.363 2.734 6.097 6.097 6.097 3.362 0 6.097-2.734 6.097-6.097 0-3.362-2.735-6.097-6.097-6.097-3.363 0-6.097 2.735-6.097 6.097zm2.032 0c0-2.241 1.823-4.064 4.065-4.064 2.241 0 4.064 1.823 4.064 4.064 0 2.242-1.823 4.065-4.064 4.065-2.242 0-4.065-1.823-4.065-4.065z"/>
                            </g>
                            <g fill="#4187D4" mask="url(#6d03yj6pub)">
                                <g>
                                    <path d="M2.032 0v2.032H0V0h2.032zM14.226 0v2.032h-2.032V0h2.032z" transform="translate(42.677368, 34.548340)"/>
                                </g>
                            </g>
                        </g>
                    </g>
                </g>
            </g>
        </g>
    </g>
</svg>
