<svg xmlns="http://www.w3.org/2000/svg" width="63" height="63" viewBox="0 0 63 63">
    <g fill="none" fill-rule="evenodd">
        <g fill-rule="nonzero">
            <g>
                <g>
                    <g>
                        <g>
                            <path fill="#4187D4" d="M5.402 51.472l-2.337 2.433L9.29 60.37l2.336-2.432c.826.466 1.696.846 2.599 1.134v2.912h9.145v-2.912c.902-.288 1.773-.668 2.598-1.134l2.337 2.432 6.226-6.465-2.337-2.433c.45-.862.817-1.765 1.092-2.698h3.294V39.63h-3.294c-.275-.932-.641-1.836-1.092-2.698l2.337-2.432-6.226-6.466-2.337 2.433c-.825-.466-1.696-.846-2.598-1.134v-2.913h-9.145v3.294c-.933.276-1.836.641-2.698 1.092l-2.432-2.337-6.466 6.22 2.432 2.338c-.466.826-.846 1.699-1.133 2.603H1.016v9.145H4.31c.275.933.641 1.836 1.092 2.698zm24.066 3.399l.889-.89-.89.89zm.444-20.006l-2.222-2.222 2.222 2.222zm-11.114-.317c5.332 0 9.654 4.322 9.654 9.654 0 5.33-4.322 9.653-9.654 9.653-5.33 0-9.653-4.322-9.653-9.653 0-5.332 4.322-9.654 9.653-9.654zM8.13 34.421l-.89.89.89-.89zm.89 20.45l-1.78-1.778 1.78 1.778z" transform="translate(-1035.000000, -1231.000000) translate(210.000000, 1010.000000) translate(696.000000, 171.000000) translate(43.000000, 50.000000) translate(86.000000, 0.000000)"/>
                            <path fill="#57A4FF" d="M51.83 17.986c.11-1.838 1.206-3.472 2.866-4.268l.005-.008h-.009c-1.66.8-2.755 2.436-2.861 4.276z" transform="translate(-1035.000000, -1231.000000) translate(210.000000, 1010.000000) translate(696.000000, 171.000000) translate(43.000000, 50.000000) translate(86.000000, 0.000000)"/>
                            <g>
                                <path d="M33.424 51.283c.22-.479.423-.976.602-1.493h2.555c.56 0 1.016-.455 1.016-1.016V39.63c0-.561-.455-1.016-1.016-1.016h-2.555c-.179-.516-.381-1.016-.602-1.493l1.845-1.916c.378-.394.378-1.016 0-1.41l-6.226-6.46c-.406-.4-1.057-.4-1.463 0l-1.812 1.88c-.45-.225-.91-.426-1.38-.604v-2.19c0-.562-.456-1.017-1.017-1.017h-9.145c-.561 0-1.016.455-1.016 1.016v2.555c-.515.179-1.016.381-1.492.602L9.801 27.73c-.394-.378-1.017-.378-1.41 0l-6.46 6.226c-.2.192-.312.456-.312.732 0 .277.113.54.312.732l1.88 1.812c-.224.45-.426.91-.604 1.38h-2.19C.454 38.613 0 39.069 0 39.63v9.145c0 .561.455 1.016 1.016 1.016h2.555c.178.517.38 1.016.602 1.493L2.328 53.2c-.379.394-.379 1.017 0 1.41l6.226 6.465c.406.4 1.057.4 1.463 0l1.812-1.88c.45.223.91.423 1.38.6v2.19c0 .561.456 1.016 1.017 1.016h9.145c.561 0 1.016-.455 1.016-1.016v-2.19c.47-.177.93-.377 1.38-.6l1.813 1.88c.191.2.455.312.731.312.277 0 .54-.113.732-.312l6.226-6.465c.378-.393.378-1.016 0-1.41l-1.845-1.916zm-1.96.894l1.663 1.728-4.816 5.001-1.61-1.673c-.322-.335-.83-.41-1.235-.18-.764.432-1.571.785-2.407 1.052-.42.136-.704.526-.704.967v1.896h-7.113v-1.896c0-.441-.285-.831-.704-.967-.836-.267-1.643-.62-2.407-1.051-.404-.23-.913-.156-1.235.179l-1.61 1.673-4.815-5.001 1.663-1.728c.305-.316.371-.792.166-1.18-.42-.803-.76-1.645-1.016-2.515-.129-.43-.525-.724-.974-.724H2.032v-7.113H3.93c.44 0 .831-.284.967-.704.266-.836.618-1.643 1.05-2.407.23-.404.156-.912-.179-1.235l-1.672-1.61 5-4.815 1.728 1.665c.316.304.792.37 1.18.165.803-.419 1.645-.76 2.515-1.016.43-.129.725-.526.724-.975v-2.278h7.113v1.897c0 .44.285.83.704.966.836.268 1.643.62 2.407 1.052.404.23.913.156 1.235-.179l1.61-1.673 4.815 5-1.664 1.728c-.304.316-.371.792-.166 1.18.419.804.76 1.646 1.016 2.515.129.43.525.724.973.724h2.28v7.113h-2.278c-.448 0-.844.295-.973.724-.257.87-.597 1.712-1.016 2.515-.205.388-.139.864.165 1.18z" transform="translate(-1035.000000, -1231.000000) translate(210.000000, 1010.000000) translate(696.000000, 171.000000) translate(43.000000, 50.000000) translate(86.000000, 0.000000)"/>
                                <path fill="#02133C" d="M18.798 33.532c-5.892 0-10.669 4.777-10.669 10.67 0 5.892 4.777 10.669 10.67 10.669 5.892 0 10.669-4.777 10.669-10.67-.007-5.89-4.78-10.662-10.67-10.669zm0 19.307c-4.77 0-8.637-3.867-8.637-8.637 0-4.77 3.867-8.637 8.637-8.637 4.77 0 8.637 3.867 8.637 8.637-.005 4.768-3.869 8.631-8.637 8.637z" transform="translate(-1035.000000, -1231.000000) translate(210.000000, 1010.000000) translate(696.000000, 171.000000) translate(43.000000, 50.000000) translate(86.000000, 0.000000)"/>
                                <path fill="#004FAC" d="M4.065 41.661c-.562 0-1.017.455-1.017 1.016v1.017c0 .56.455 1.016 1.017 1.016.56 0 1.016-.455 1.016-1.016v-1.017c0-.56-.455-1.016-1.016-1.016zM29.193 35.585c.399.397 1.044.396 1.44-.003.398-.398.397-1.043-.002-1.44l-2.223-2.222c-.399-.385-1.033-.38-1.425.012-.391.392-.397 1.026-.012 1.425l2.222 2.228zM19.306 31.5c.134.003.266-.025.386-.081.124-.052.237-.124.336-.214.09-.098.162-.212.213-.335.052-.122.08-.253.082-.386-.004-.269-.11-.527-.295-.722-.099-.09-.212-.161-.336-.213-.185-.082-.391-.103-.589-.06-.063.01-.125.03-.183.06-.065.022-.126.053-.183.091-.053.038-.104.079-.152.122-.186.195-.29.453-.295.722-.003.27.104.53.295.721.191.192.451.298.721.295zM19.306 57.92h-2.032c-.561 0-1.016.454-1.016 1.015 0 .562.455 1.017 1.016 1.017h2.032c.562 0 1.017-.455 1.017-1.017 0-.56-.455-1.016-1.017-1.016zM7.24 36.327c.27 0 .528-.108.718-.298l.89-.89c.384-.398.379-1.032-.013-1.424-.392-.392-1.025-.397-1.424-.012l-.89.89c-.29.29-.377.727-.22 1.106.157.38.528.628.939.628zM29.638 53.263l-.889.89c-.264.255-.37.633-.277.988.093.355.37.632.726.726.355.093.733-.013.988-.278l.89-.889c.384-.398.379-1.032-.013-1.424-.392-.392-1.026-.398-1.425-.013zM7.958 52.374c-.255-.264-.633-.37-.988-.277-.355.093-.633.37-.725.726-.094.355.013.733.276.988L8.3 55.59c.399.385 1.032.38 1.424-.012.392-.392.398-1.026.013-1.424l-1.779-1.779z" transform="translate(-1035.000000, -1231.000000) translate(210.000000, 1010.000000) translate(696.000000, 171.000000) translate(43.000000, 50.000000) translate(86.000000, 0.000000)"/>
                                <path fill="#02133C" d="M61.984 54.871h-1.016V22.815c.164-.14.322-.29.47-.449 1.278-1.43 1.813-3.375 1.446-5.258-.652-3.302-3.858-5.451-7.162-4.8-.106.022-.213.058-.32.086l-9.32-6.253c.006-.408-.032-.817-.111-1.219-.65-3.305-3.856-5.457-7.161-4.806-3.307.662-5.453 3.878-4.797 7.186.054.27.132.534.233.79.424 1.233 1.245 2.292 2.335 3.01v11.253c0 .561.455 1.016 1.016 1.016.56 0 1.016.455 1.016 1.016 0 .561-.455 1.016-1.016 1.016-.561 0-1.016-.455-1.016-1.016 0-.561-.455-1.016-1.016-1.016H31.5c-.561 0-1.016.455-1.016 1.016-.005 3.212 2.143 6.028 5.242 6.873 3.098.844 6.379-.492 8.005-3.261 1.626-2.77 1.194-6.286-1.054-8.58v-5.77l8.201 5.494c.016.11.023.222.044.33.255 1.26.9 2.407 1.846 3.278L47.9 54.871H36.58c-.56 0-1.015.455-1.015 1.016v6.097c0 .561.454 1.016 1.016 1.016h25.403c.561 0 1.016-.455 1.016-1.016v-6.097c0-.561-.455-1.016-1.016-1.016zM56.91 14.226c1.939.004 3.604 1.376 3.98 3.278.243 1.257-.115 2.555-.969 3.509-1.207 1.337-3.151 1.72-4.776.94-1.151-.557-1.975-1.621-2.227-2.875-.064-.338-.088-.682-.071-1.025v-.01c.083-1.47.96-2.777 2.29-3.41.007 0 .013-.01.022-.015.305-.142.626-.248.956-.317.262-.05.528-.076.795-.075zm-18.717-4.49c-.027-.016-.055-.03-.084-.044-.015-.009-.024-.024-.04-.033-.912-.48-1.601-1.299-1.92-2.28-.064-.16-.114-.325-.147-.494-.192-.943-.036-1.924.44-2.761.875-1.591 2.7-2.408 4.47-2.002 1.769.405 3.054 1.936 3.15 3.749.094 1.813-1.025 3.47-2.743 4.058-.182.065-.363.114-.588.171-.065 0-.13.007-.195.02-.106.017-.214.025-.322.023-.697.036-1.392-.104-2.02-.407zm-.597 19.732c-2.414-.003-4.493-1.7-4.98-4.065h2.104c.474 1.338 1.808 2.172 3.219 2.012 1.41-.16 2.523-1.273 2.683-2.684.162-1.41-.672-2.744-2.01-3.219v-9.484c.542.13 1.1.179 1.656.145.126 0 .251-.005.376-.018v7.7c0 .291.125.568.343.76 1.568 1.403 2.107 3.63 1.354 5.595-.753 1.965-2.641 3.261-4.745 3.258zm5.568-18.189c.186-.111.365-.233.537-.364.096-.072.188-.147.278-.225.157-.136.306-.28.447-.432.08-.084.163-.167.238-.256.153-.185.295-.378.425-.578.044-.068.096-.13.14-.203.158-.268.297-.547.414-.835.01-.024.026-.047.036-.07l7.58 5.08c-.03.023-.055.051-.084.075-.213.163-.414.342-.603.533-.043.043-.089.085-.132.13-.435.467-.795 1-1.063 1.58-.036.079-.065.16-.102.238-.09.216-.167.437-.23.66-.016.053-.042.103-.054.156l-8.01-5.362c.063-.037.12-.087.183-.127zm11.476 12.665c.71.292 1.469.443 2.236.446.702.004 1.4-.117 2.058-.358v30.839h-8.979l4.685-30.927zm6.327 37.024H37.597v-1.016h15.242c.56 0 1.016-.455 1.016-1.017 0-.56-.455-1.016-1.016-1.016H37.597v-1.016h23.37v4.065z" transform="translate(-1035.000000, -1231.000000) translate(210.000000, 1010.000000) translate(696.000000, 171.000000) translate(43.000000, 50.000000) translate(86.000000, 0.000000)"/>
                                <path fill="#02133C" d="M53.913 18.88c.031.165.077.327.138.485.262.703.779 1.283 1.447 1.625.239.13.494.225.76.283.837.176 1.71-.002 2.41-.494.085-.061.167-.126.245-.197.645-.56 1.022-1.368 1.039-2.221.007-.221-.01-.443-.053-.66-.054-.253-.139-.499-.252-.731-.478-1.003-1.465-1.666-2.574-1.728-.255-.012-.51.006-.76.054-.794.156-1.493.622-1.943 1.295-.45.672-.615 1.495-.457 2.289zm2.147-1.156c.15-.223.382-.378.646-.43.07-.013.14-.02.21-.02h.051c.363.023.686.238.848.564.038.081.067.167.085.254.014.073.02.148.016.222-.008.295-.142.574-.37.763-.027.026-.057.046-.056.046-.118.08-.25.135-.39.162-.138.03-.28.03-.418 0-.086-.02-.168-.052-.245-.095-.228-.117-.404-.316-.49-.557-.019-.047-.033-.096-.042-.145-.052-.265.004-.54.155-.764zM41.717 8.609c.093-.064.182-.131.267-.204.013-.009.023-.018.034-.028.635-.57 1.006-1.378 1.025-2.231v-.018c.003-.202-.016-.404-.055-.602-.05-.26-.132-.513-.248-.751-.475-1-1.458-1.663-2.564-1.727-.261-.015-.523.001-.78.05-1.64.33-2.709 1.921-2.393 3.565.03.17.078.338.14.5.264.703.78 1.283 1.449 1.625.23.13.48.225.74.28.211.047.428.071.644.07.21 0 .42-.02.626-.058.4-.082.778-.242 1.115-.471zm-1.503-1.524c-.159.028-.322.024-.478-.01-.072-.02-.14-.05-.204-.09-.229-.116-.405-.315-.493-.557-.019-.049-.032-.1-.04-.151-.108-.541.238-1.069.777-1.185.07-.01.141-.014.212-.011h.072c.36.022.682.237.842.562.043.087.073.18.09.275.006.022 0 .05.008.076.006.04.009.08.01.12-.01.283-.132.55-.342.742-.028.025-.058.049-.089.07-.111.076-.235.131-.365.163v-.004z" transform="translate(-1035.000000, -1231.000000) translate(210.000000, 1010.000000) translate(696.000000, 171.000000) translate(43.000000, 50.000000) translate(86.000000, 0.000000)"/>
                            </g>
                        </g>
                    </g>
                </g>
            </g>
        </g>
    </g>
</svg>
