<svg xmlns="http://www.w3.org/2000/svg" width="63" height="63" viewBox="0 0 63 63">
    <g fill="none" fill-rule="evenodd">
        <g fill-rule="nonzero">
            <g>
                <g>
                    <g>
                        <g>
                            <path fill="#CAD9FC" d="M40.961 1.05c-.556 0-1.091.02-1.626.063h-.01c-.004-.003-.008-.005-.011-.005-.004 0-.008.002-.01.005-10.879.873-19.278 9.928-19.332 20.842v.084c.005 3.739 1.009 7.41 2.907 10.63 3.208 5.468 8.717 9.191 14.986 10.128.483.073.976.136 1.48.178h.053c.514.032 1.038.053 1.563.053 3.97.01 7.86-1.12 11.209-3.254 1.558-.968 2.973-2.148 4.208-3.505 5.659-6.122 7.155-15.015 3.812-22.653C56.847 5.98 49.3 1.046 40.961 1.05zm-1.584 37.633c-.588-.063-1.165-.147-1.743-.262-2.87-.583-5.539-1.911-7.734-3.852-.262-.23-.525-.472-.777-.724-4.6-4.592-6.135-11.428-3.937-17.546 2.197-6.118 7.73-10.415 14.201-11.03h.021c4.252-.406 8.5.82 11.88 3.431v.01c.554.428 1.08.89 1.574 1.386 2.737 2.73 4.442 6.323 4.828 10.17l.063.849c.247 4.744-1.53 9.371-4.89 12.73-.158.158-.305.304-.473.451-3.504 3.247-8.227 4.843-12.982 4.387h-.031z" transform="translate(-1037.000000, -1593.000000) translate(210.000000, 1010.000000) translate(696.000000, 535.000000) translate(43.000000, 48.000000) translate(88.000000, 0.000000)"/>
                            <path fill="#E8EDFC" d="M58.77 21.084c-.467-10.627-8.825-19.215-19.435-19.971h-.01c-.004-.003-.008-.005-.011-.005-.004 0-.008.002-.01.005-10.879.873-19.278 9.928-19.332 20.842v.084c.005 3.739 1.009 7.41 2.907 10.63 3.208 5.468 8.717 9.191 14.986 10.128.483.073.976.136 1.48.178h.053c3.423-.255 6.73-1.355 9.623-3.2 1.558-.97 2.974-2.149 4.208-3.506 3.59-3.869 5.58-8.953 5.573-14.23 0-.326-.01-.64-.031-.955zm-5.908 12.76c-.157.159-.304.305-.472.452-3.504 3.247-8.227 4.843-12.982 4.387h-.031c-1.635.149-3.282.06-4.89-.262-2.792-.567-2.813-1.858-5.07-3.852-.262-.23-.525-.472-.776-.724-3.152-3.145-4.92-7.417-4.912-11.87.004-.708.05-1.416.137-2.12.46-3.694 2.14-7.129 4.775-9.76 3.662-3.651 5.95-5.268 10.746-4.827h.021c4.252-.405 8.5.821 11.88 3.432v.01c.554.428 1.08.89 1.574 1.386 2.737 2.73 4.442 6.323 4.828 10.17l.063.849c.247 4.744-1.53 9.371-4.89 12.73z" transform="translate(-1037.000000, -1593.000000) translate(210.000000, 1010.000000) translate(696.000000, 535.000000) translate(43.000000, 48.000000) translate(88.000000, 0.000000)"/>
                            <path fill="#4187D4" d="M52.862 33.845c-.157.158-.304.304-.472.451-2.436-1.68-5.493-2.192-8.344-1.395-2.85.797-5.2 2.82-6.412 5.52-2.87-.583-5.539-1.911-7.734-3.852.629-1.145 1.374-2.22 2.225-3.211l-2.98-5.174c-.217-.372-.277-.814-.167-1.23.11-.415.382-.77.754-.984l8.427-4.87c.372-.213.813-.27 1.226-.158.414.112.766.384.978.756l2.98 5.174c2.36-.433 4.778-.433 7.137 0l2.98-5.174c.213-.372.565-.644.978-.756.414-.112.855-.055 1.226.158l2.026 1.165c.517 5.022-1.256 10.011-4.828 13.58zM51.288 8.7v.01c-.07.158-.17.3-.294.42l-6.832 6.926c-.63.633-1.652.638-2.288.011l-4.25-4.198c-1.076.518-2.197.94-3.348 1.26-1.154.318-2.334.533-3.526.64l-1.5 5.772c-.105.415-.371.771-.74.99-.368.22-.808.282-1.223.175l-2.938-.85c.753-5.982 4.658-11.1 10.227-13.406 5.57-2.307 11.95-1.448 16.712 2.25z" transform="translate(-1037.000000, -1593.000000) translate(210.000000, 1010.000000) translate(696.000000, 535.000000) translate(43.000000, 48.000000) translate(88.000000, 0.000000)"/>
                            <path fill="#FFF" d="M18.713 30.224l-.102.176c.282-.016.56-.04.837-.075-.247-.03-.495-.057-.735-.1z" transform="translate(-1037.000000, -1593.000000) translate(210.000000, 1010.000000) translate(696.000000, 535.000000) translate(43.000000, 48.000000) translate(88.000000, 0.000000)"/>
                            <path fill="#02133C" d="M37.633 39.47c-.355 0-.686-.181-.88-.48-.192-.298-.221-.674-.076-.999 1.338-2.985 3.935-5.22 7.086-6.101 3.152-.88 6.532-.315 9.224 1.544.476.33.595.983.265 1.46-.33.476-.984.595-1.46.265-2.18-1.503-4.914-1.96-7.464-1.247-2.55.713-4.651 2.521-5.735 4.937-.17.378-.545.621-.96.62z" transform="translate(-1037.000000, -1593.000000) translate(210.000000, 1010.000000) translate(696.000000, 535.000000) translate(43.000000, 48.000000) translate(88.000000, 0.000000)"/>
                            <path fill="#02133C" d="M40.961 44.077c-12.171 0-22.038-9.867-22.038-22.038C18.923 9.867 28.79 0 40.961 0 53.133 0 63 9.867 63 22.039c-.014 12.165-9.873 22.024-22.039 22.038zm0-41.978c-11.012 0-19.94 8.927-19.94 19.94 0 11.012 8.928 19.94 19.94 19.94 11.013 0 19.94-8.928 19.94-19.94-.012-11.008-8.932-19.928-19.94-19.94z" transform="translate(-1037.000000, -1593.000000) translate(210.000000, 1010.000000) translate(696.000000, 535.000000) translate(43.000000, 48.000000) translate(88.000000, 0.000000)"/>
                            <path fill="#02133C" d="M40.994 39.806c-8.507-.005-15.826-6.02-17.48-14.364-1.655-8.345 2.816-16.696 10.677-19.947 7.861-3.251 16.925-.497 21.647 6.579 4.722 7.076 3.79 16.502-2.229 22.515-3.343 3.348-7.883 5.225-12.615 5.217zm0-33.567c-7.506.005-13.964 5.311-15.424 12.675-1.46 7.362 2.485 14.731 9.422 17.6 6.936 2.868 14.933.438 19.1-5.806 4.167-6.243 3.344-14.56-1.967-19.866-2.95-2.954-6.956-4.61-11.13-4.603zM11.311 60.127c-.278 0-.545-.11-.742-.308l-7.42-7.42c-.273-.265-.381-.654-.285-1.02.096-.367.382-.653.748-.75.367-.096.756.013 1.02.285l7.421 7.421c.3.3.39.751.228 1.144-.163.392-.545.648-.97.648z" transform="translate(-1037.000000, -1593.000000) translate(210.000000, 1010.000000) translate(696.000000, 535.000000) translate(43.000000, 48.000000) translate(88.000000, 0.000000)"/>
                            <path fill="#02133C" d="M0.922 53.14L10.569 43.494 12.053 42.009 13.537 43.494 2.406 54.624z" transform="translate(-1037.000000, -1593.000000) translate(210.000000, 1010.000000) translate(696.000000, 535.000000) translate(43.000000, 48.000000) translate(88.000000, 0.000000)"/>
                            <g fill="#02133C">
                                <path d="M7.6 62.432c-.835.002-1.636-.33-2.226-.92L.922 57.059C.332 56.469 0 55.668 0 54.833s.332-1.636.922-2.226c.41-.41 1.075-.41 1.485 0 .41.41.41 1.075-.001 1.485-.197.196-.307.463-.307.741 0 .278.11.545.307.742l4.452 4.452c.41.41 1.075.41 1.485 0l11.131-11.13c.41-.41.41-1.074 0-1.485l-4.453-4.453c-.415-.396-1.069-.396-1.484 0-.41.41-1.075.41-1.485 0-.41-.41-.409-1.075.001-1.484 1.246-1.189 3.206-1.188 4.452 0l4.454 4.453c1.228 1.23 1.228 3.222 0 4.452L9.827 61.512c-.59.59-1.392.922-2.227.92z" transform="translate(-1037.000000, -1593.000000) translate(210.000000, 1010.000000) translate(696.000000, 535.000000) translate(43.000000, 48.000000) translate(88.000000, 0.000000) translate(0.000000, 0.533422)"/>
                                <path d="M20.216 47.72c-.278 0-.545-.11-.742-.308l-4.453-4.453c-.41-.41-.41-1.074 0-1.483l4.453-4.453c.41-.41 1.074-.41 1.484 0l4.452 4.453c.41.41.41 1.074 0 1.483l-4.451 4.453c-.197.197-.464.308-.743.308zm-2.969-5.502l2.97 2.968 2.967-2.968-2.968-2.968-2.969 2.968z" transform="translate(-1037.000000, -1593.000000) translate(210.000000, 1010.000000) translate(696.000000, 535.000000) translate(43.000000, 48.000000) translate(88.000000, 0.000000) translate(0.000000, 0.533422)"/>
                                <path d="M26.152 43.88c-.833.001-1.633-.326-2.226-.912l-4.455-4.466c-.59-.589-.92-1.388-.92-2.222 0-.833.331-1.632.92-2.22l2.666-2.666.774.71.735.749-2.69 2.69c-.407.408-.407 1.069 0 1.476l4.45 4.462c.196.197.464.309.743.308.279 0 .546-.112.742-.31l2.643-2.653c.41-.399 1.065-.395 1.472.009.406.403.413 1.058.016 1.471l-2.647 2.657c-.59.59-1.39.92-2.223.917zM45.16 49.84c-4.315.018-7.932-3.253-8.35-7.547-.047-.57.373-1.075.943-1.131.57-.057 1.08.355 1.146.924.339 3.337 3.234 5.822 6.584 5.65 3.349-.17 5.976-2.938 5.973-6.291-.002-.652-.102-1.3-.298-1.922-.16-.548.148-1.124.694-1.295.545-.17 1.126.126 1.308.668.26.824.394 1.684.395 2.549-.005 4.634-3.761 8.39-8.396 8.396zM29.899 35.085c-.37 0-.714-.196-.903-.516-.188-.319-.194-.714-.015-1.04.543-.988 1.169-1.929 1.871-2.812l-2.617-4.543c-.355-.611-.453-1.34-.272-2.024.182-.683.629-1.267 1.241-1.622l8.43-4.87c.614-.353 1.343-.447 2.027-.262.685.183 1.267.634 1.615 1.25l2.614 4.54c2.004-.295 4.04-.295 6.043 0l2.618-4.545c.349-.614.93-1.063 1.612-1.245.68-.185 1.407-.092 2.02.258l2.03 1.168c.325.186.526.532.527.907 0 .375-.199.722-.523.91-.324.189-.724.19-1.05.003l-2.026-1.165c-.13-.075-.286-.095-.43-.055-.143.038-.265.132-.337.26l-2.984 5.18c-.222.384-.66.587-1.097.51-2.235-.41-4.527-.41-6.762 0-.436.076-.873-.127-1.096-.51l-2.98-5.173c-.074-.132-.196-.228-.341-.267-.147-.04-.304-.019-.436.058l-8.421 4.865c-.13.075-.226.2-.265.346-.038.146-.017.302.06.432l2.982 5.177c.224.387.177.872-.115 1.21-.803.935-1.506 1.95-2.1 3.031-.184.336-.537.545-.92.544z" transform="translate(-1037.000000, -1593.000000) translate(210.000000, 1010.000000) translate(696.000000, 535.000000) translate(43.000000, 48.000000) translate(88.000000, 0.000000) translate(0.000000, 0.533422)"/>
                                <path d="M27.693 21.274c-.224 0-.449-.03-.667-.085l-2.97-.859c-.363-.102-.644-.39-.735-.756-.091-.366.02-.753.294-1.014.273-.26.664-.354 1.025-.246l2.939.85c.137.028.279.004.398-.07.128-.075.22-.2.255-.344l1.502-5.778c.112-.43.48-.742.922-.782 1.13-.101 2.248-.305 3.34-.606 1.092-.304 2.154-.703 3.175-1.194.4-.191.876-.111 1.192.2l4.25 4.197c.108.108.256.168.409.166.153-.003.298-.067.404-.178l6.821-6.915c.026-.026.05-.054.07-.084.19-.464.68-.73 1.171-.635.492.096.848.525.85 1.026v.01c0 .132-.025.264-.074.387-.117.277-.286.53-.498.745L44.91 16.26c-1.041 1.04-2.726 1.048-3.777.016l-3.73-3.684c-.923.406-1.874.745-2.846 1.015-.975.27-1.969.467-2.973.594l-1.318 5.07c-.3 1.176-1.358 2-2.571 2.002zM40.012 58.752c-.362 0-.719-.095-1.035-.273l-5.467-3.154c-.483-.28-.835-.74-.978-1.28-.143-.54-.063-1.114.219-1.595l1.568-2.72c-.716-.93-1.305-1.952-1.752-3.038h-3.15c-1.158-.001-2.097-.94-2.099-2.099v-3.106c0-.58.47-1.05 1.05-1.05.58 0 1.05.47 1.05 1.05v3.106h3.872c.447 0 .844.283.991.706.466 1.337 1.18 2.575 2.104 3.649.29.338.334.821.111 1.207l-1.93 3.347 5.45 3.153 1.925-3.351c.221-.386.662-.59 1.099-.508 1.401.255 2.837.255 4.239 0 .436-.08.877.123 1.098.508l1.931 3.348 5.45-3.145-1.936-3.352c-.222-.386-.178-.87.112-1.207.924-1.074 1.637-2.312 2.103-3.649.147-.423.545-.706.992-.706H60.9v-6.296h-3.872c-.44 0-.835-.275-.985-.689-.164-.47-.36-.928-.588-1.371l-.007-.015c-.188-.332-.181-.74.019-1.065.199-.326.56-.517.94-.5.382.017.724.24.894.58.167.312.316.633.448.96h3.15c1.16.002 2.099.94 2.1 2.1v6.296c-.001 1.159-.94 2.098-2.1 2.099h-3.148c-.448 1.086-1.037 2.107-1.753 3.038l1.571 2.724c.28.481.358 1.054.216 1.592-.143.539-.494.998-.975 1.277l-5.46 3.15c-.483.277-1.056.351-1.594.206-.54-.143-1-.5-1.273-.989l-1.566-2.715c-1.168.15-2.35.15-3.517 0l-1.573 2.726c-.273.484-.73.837-1.268.978-.178.048-.362.073-.548.073zM17.873 25.703c-4.637 0-8.395-3.759-8.395-8.396 0-4.636 3.758-8.396 8.395-8.396 1.915-.006 3.772.652 5.257 1.86.45.365.52 1.026.156 1.477-.364.45-1.025.52-1.476.156-1.112-.906-2.503-1.398-3.937-1.393-3.477 0-6.296 2.819-6.296 6.296 0 3.478 2.819 6.297 6.296 6.297.664.003 1.322-.102 1.952-.312.548-.182 1.14.113 1.325.66.184.547-.107 1.14-.653 1.328-.846.283-1.732.426-2.624.423z" transform="translate(-1037.000000, -1593.000000) translate(210.000000, 1010.000000) translate(696.000000, 535.000000) translate(43.000000, 48.000000) translate(88.000000, 0.000000) translate(0.000000, 0.533422)"/>
                                <path d="M12.726 34.614c-.362 0-.719-.094-1.034-.273l-5.468-3.154c-.483-.279-.835-.74-.978-1.28-.142-.539-.063-1.113.219-1.595l1.569-2.72c-.716-.93-1.306-1.952-1.753-3.037H2.13c-1.158-.002-2.097-.94-2.098-2.1V14.16c0-1.159.94-2.098 2.098-2.099h3.15c.448-1.086 1.037-2.107 1.753-3.038L5.462 6.298c-.28-.481-.358-1.054-.215-1.592.142-.538.493-.998.975-1.277l5.46-3.15c.482-.277 1.055-.35 1.593-.206.54.143 1 .5 1.274.989l1.566 2.715c1.167-.15 2.35-.15 3.517 0l1.572-2.726c.273-.484.73-.837 1.268-.978.534-.144 1.102-.073 1.583.2l5.415 3.122c.502.29.674.932.384 1.434-.29.502-.932.674-1.433.385l-5.405-3.117-1.925 3.352c-.22.385-.661.589-1.098.507-1.402-.255-2.838-.255-4.239 0-.437.083-.878-.121-1.099-.507L12.725 2.1 7.273 5.245 9.21 8.597c.223.386.178.87-.111 1.207-.925 1.074-1.639 2.312-2.105 3.65-.146.422-.544.705-.991.705H2.131v6.297h3.873c.447 0 .844.283.991.705.466 1.338 1.18 2.576 2.105 3.65.29.337.334.82.111 1.206l-1.93 3.348 5.45 3.153 1.924-3.352c.221-.386.662-.59 1.1-.508 1.4.256 2.836.256 4.238 0 .437-.083.88.121 1.1.509l1.878 3.263c.187.326.186.726-.002 1.05-.188.325-.534.525-.91.524-.375 0-.721-.2-.908-.526l-1.519-2.64c-1.168.149-2.35.149-3.517 0l-1.573 2.725c-.273.484-.73.838-1.267.979-.179.048-.363.072-.549.072z" transform="translate(-1037.000000, -1593.000000) translate(210.000000, 1010.000000) translate(696.000000, 535.000000) translate(43.000000, 48.000000) translate(88.000000, 0.000000) translate(0.000000, 0.533422)"/>
                            </g>
                        </g>
                    </g>
                </g>
            </g>
        </g>
    </g>
</svg>
