<svg xmlns="http://www.w3.org/2000/svg" xmlns:xlink="http://www.w3.org/1999/xlink" width="245" height="245" viewBox="0 0 245 245">
    <defs>
        <filter id="vd3vwth75a" width="168.5%" height="199.7%" x="-34.3%" y="-32.6%" filterUnits="objectBoundingBox">
            <feOffset dy="16" in="SourceAlpha" result="shadowOffsetOuter1"/>
            <feGaussianBlur in="shadowOffsetOuter1" result="shadowBlurOuter1" stdDeviation="12"/>
            <feColorMatrix in="shadowBlurOuter1" result="shadowMatrixOuter1" values="0 0 0 0 0.149019614 0 0 0 0 0.149019614 0 0 0 0 0.149019614 0 0 0 0.200000003 0"/>
            <feOffset dy="8" in="SourceAlpha" result="shadowOffsetOuter2"/>
            <feGaussianBlur in="shadowOffsetOuter2" result="shadowBlurOuter2" stdDeviation="8"/>
            <feColorMatrix in="shadowBlurOuter2" result="shadowMatrixOuter2" values="0 0 0 0 0.149019614 0 0 0 0 0.149019614 0 0 0 0 0.149019614 0 0 0 0.239999995 0"/>
            <feMerge>
                <feMergeNode in="shadowMatrixOuter1"/>
                <feMergeNode in="shadowMatrixOuter2"/>
                <feMergeNode in="SourceGraphic"/>
            </feMerge>
        </filter>
        <path id="czk00qgazb" d="M0 0H63V63H0z"/>
    </defs>
    <g fill="none" fill-rule="evenodd">
        <g>
            <g>
                <g filter="url(#vd3vwth75a)" transform="translate(-598.000000, -1140.000000) translate(210.000000, 1010.000000) translate(348.000000, 171.000000)">
                    <g>
                        <g transform="translate(43.000000, 50.000000) translate(88.000000, 0.000000)">
                            <mask id="izajlclnac" fill="#fff">
                                <use xlink:href="#czk00qgazb"/>
                            </mask>
                            <g fill="#02133C" mask="url(#izajlclnac)">
                                <path d="M4.064 33.532c0 1.68 1.368 3.049 3.049 3.049 1.68 0 3.048-1.368 3.048-3.049 0-1.68-1.367-3.048-3.048-3.048-1.68 0-3.049 1.368-3.049 3.048zm2.033 0c0-.56.456-1.016 1.016-1.016s1.016.455 1.016 1.016c0 .561-.456 1.016-1.016 1.016s-1.016-.455-1.016-1.016z"/>
                                <path d="M56.903 0H21.787c-1.314 0-2.476.837-2.892 2.085l-.321.963h-3.332c-1.68 0-3.048 1.368-3.048 3.049v1.316c-2.935.877-5.081 3.597-5.081 6.813 0 2.122.939 4.026 2.418 5.33-2.273 1.729-3.834 4.285-4.294 7.122C2.223 27.505 0 30.26 0 33.532c0 3.921 3.19 7.113 7.113 7.113h1.016v-2.032H7.113c-2.802 0-5.08-2.28-5.08-5.08 0-2.802 2.278-5.081 5.08-5.081 1.808 0 3.493.973 4.4 2.539l1.759-1.018c-.103-.177-.222-.34-.338-.505h1.292v-8.13c3.922 0 7.113-3.19 7.113-7.112s-3.19-7.113-7.113-7.113V6.097c0-.56.456-1.016 1.016-1.016h4.797l.785-2.354c.138-.415.525-.695.963-.695h.67c.473 2.316 2.526 4.065 4.978 4.065 2.453 0 4.506-1.749 4.979-4.065h4.167v11.204c-.852-.645-1.9-1.042-3.049-1.042-2.801 0-5.08 2.279-5.08 5.08 0 2.802 2.279 5.08 5.08 5.08 2.453 0 4.506-1.748 4.978-4.064h16.361v11.178h-13.21V31.5h15.242V16.258h3.049c1.68 0 3.048-1.368 3.048-3.048V3.048C63 1.368 61.632 0 59.952 0h-3.049zM7.342 26.435c.534-2.342 1.991-4.406 4.023-5.702.268.118.545.214.829.3v7.528c-1.272-1.29-3.008-2.066-4.852-2.126zm6.884-7.129c-1.043 0-2.011-.317-2.819-.857l-.027-.057-.029.016c-1.33-.917-2.206-2.448-2.206-4.182 0-2.802 2.28-5.08 5.08-5.08 2.802 0 5.081 2.278 5.081 5.08 0 2.801-2.279 5.08-5.08 5.08zM24.574 2.032h5.722c-.42 1.18-1.538 2.033-2.86 2.033-1.324 0-2.441-.853-2.862-2.033zm5.91 15.242c0-1.68 1.368-3.048 3.048-3.048s3.049 1.368 3.049 3.048-1.368 3.049-3.049 3.049c-1.68 0-3.048-1.368-3.048-3.049zm8.129-1.016V2.032h3.075c-.646.852-1.043 1.9-1.043 3.049 0 2.801 2.28 5.08 5.08 5.08 1.149 0 2.198-.397 3.05-1.042v7.14H38.612zm4.064-11.177c0-1.681 1.368-3.049 3.049-3.049 1.68 0 3.048 1.368 3.048 3.049 0 1.68-1.368 3.048-3.048 3.048s-3.049-1.368-3.049-3.048zm17.275 9.145h-3.049v-2.032h-2.032v4.064h-4.065V5.081c0-1.149-.397-2.197-1.042-3.049h5.107v8.13h2.032v-8.13h3.049c.56 0 1.016.456 1.016 1.016V13.21c0 .56-.457 1.016-1.016 1.016z"/>
                                <path d="M14.226 17.274c1.68 0 3.048-1.367 3.048-3.048 0-1.68-1.367-3.049-3.048-3.049-1.68 0-3.049 1.368-3.049 3.049 0 1.68 1.368 3.048 3.049 3.048zm0-2.032c-.56 0-1.016-.456-1.016-1.016s.456-1.016 1.016-1.016 1.016.456 1.016 1.016-.456 1.016-1.016 1.016z"/>
                            </g>
                            <g mask="url(#izajlclnac)">
                                <g>
                                    <path fill="#4187D4" fill-rule="nonzero" d="M16.258 40.645v-4.577c-1.468-.378-2.873-.962-4.19-1.742l-3.24 3.24-5.75-5.748 3.241-3.241c-.78-1.317-1.363-2.722-1.741-4.19H0v-8.129h4.578c.378-1.468.96-2.873 1.741-4.19l-3.24-3.24 5.748-5.75L12.07 6.32c1.316-.78 2.72-1.363 4.19-1.741V0h8.128v4.578c1.468.378 2.873.96 4.19 1.741l3.241-3.24 5.748 5.748-3.24 3.242c.78 1.316 1.363 2.72 1.741 4.19h4.578v8.128h-4.578c-.378 1.468-.96 2.873-1.741 4.19l3.24 3.241-5.748 5.748-3.241-3.24c-1.317.78-2.722 1.364-4.19 1.742v4.577h-8.129z" transform="translate(7.113037, 22.354736)"/>
                                    <g fill="#02133C">
                                        <path fill-rule="nonzero" d="M0 10.161C0 4.558 4.558 0 10.161 0s10.162 4.558 10.162 10.161c0 2.7-1.048 5.242-2.951 7.159l-1.442-1.43c1.522-1.535 2.36-3.568 2.36-5.729 0-4.482-3.647-8.129-8.129-8.129-4.482 0-8.129 3.647-8.129 8.13 0 4.481 3.647 8.128 8.13 8.128 1.542 0 3.043-.434 4.34-1.254l1.085 1.717c-1.621 1.027-3.498 1.57-5.426 1.57C4.558 20.323 0 15.764 0 10.16z" transform="translate(7.113037, 22.354736) translate(10.161255, 10.161377)"/>
                                        <path d="M4.064 10.161c0-3.362 2.735-6.097 6.097-6.097 3.363 0 6.097 2.735 6.097 6.097 0 3.363-2.734 6.097-6.097 6.097-3.362 0-6.097-2.734-6.097-6.097zm2.033 0c0 2.242 1.823 4.065 4.064 4.065 2.242 0 4.065-1.823 4.065-4.065 0-2.241-1.823-4.064-4.065-4.064-2.241 0-4.064 1.823-4.064 4.064z" transform="translate(7.113037, 22.354736) translate(10.161255, 10.161377)"/>
                                    </g>
                                </g>
                            </g>
                        </g>
                    </g>
                </g>
            </g>
        </g>
    </g>
</svg>
