<svg xmlns="http://www.w3.org/2000/svg" width="63" height="72" viewBox="0 0 63 72">
    <g fill="none" fill-rule="evenodd">
        <g>
            <g>
                <g>
                    <g>
                        <g>
                            <path fill="#000" fill-rule="nonzero" d="M15.469 18.228l1.008 8.41c.07.574.589.985 1.163.914.573-.068.982-.589.913-1.162l-1.119-9.332c-.063-.525-.509-.92-1.038-.92H5.923c-.577 0-1.045.467-1.045 1.045v19.756c0 .577.468 1.045 1.045 1.045h12.842c.609.014 1.124-.567 1.038-1.17l-.698-5.826c-.07-.573-.59-.983-1.163-.913-.573.068-.982.589-.913 1.162l.558 4.656H6.97V18.228h8.5z" transform="translate(-340.000000, -1587.000000) translate(210.000000, 1010.000000) translate(0.000000, 535.000000) translate(43.000000, 42.000000) translate(87.000000, 0.000000)"/>
                            <path fill="#4187D4" fill-rule="nonzero" d="M11.064 4.535c.578 0 1.046-.467 1.046-1.045V1.036c-.043-1.382-2.049-1.38-2.091 0V3.49c0 .578.468 1.045 1.045 1.045zM6.002 5.806c.364.451 1.023.518 1.47.158.45-.362.52-1.02.158-1.47L6.09 2.583c-.361-.45-1.02-.52-1.469-.159-.45.363-.52 1.02-.158 1.47l1.54 1.912zM14.656 5.964c.447.36 1.106.293 1.47-.158l1.54-1.912c.362-.45.29-1.107-.159-1.47-.45-.362-1.108-.29-1.47.159l-1.539 1.91c-.362.45-.291 1.109.158 1.47z" transform="translate(-340.000000, -1587.000000) translate(210.000000, 1010.000000) translate(0.000000, 535.000000) translate(43.000000, 42.000000) translate(87.000000, 0.000000)"/>
                            <path fill="#4187D4" d="M47 34H61V57H47z" transform="translate(-340.000000, -1587.000000) translate(210.000000, 1010.000000) translate(0.000000, 535.000000) translate(43.000000, 42.000000) translate(87.000000, 0.000000)"/>
                            <path fill="#000" fill-rule="nonzero" d="M63 45.848v-15.28c-.435-11.437-16.83-11.429-17.262 0v12.257h-4.585v-2.871c0-2.239-1.823-4.06-4.063-4.06H24.546l-2.075-18.287h2.536c.577 0 1.045-.468 1.045-1.045 0-2.882-2.345-5.226-5.227-5.226H14.2V9.734c-.158-4.156-6.115-4.152-6.272 0v1.602H1.045c-.577 0-1.045.468-1.045 1.045v33.972c.043 1.382 2.048 1.38 2.09 0V13.427h18.735c1.363 0 2.526.873 2.957 2.09H21.3c-.606-.014-1.12.562-1.039 1.163l2.313 20.377c.06.528.507.927 1.039.927h13.476c1.088 0 1.973.884 1.973 1.97v.759h-4.308c-1.382.043-1.381 2.048 0 2.09h4.308V54.92H23.226v-9.492c0-1.447 1.178-2.624 2.627-2.624h4.005c1.382-.042 1.38-2.048 0-2.09h-4.005c-2.602 0-4.718 2.115-4.718 4.714v9.492H2.091v-3.733c-.043-1.382-2.048-1.38-2.091 0v4.779c0 .577.468 1.045 1.045 1.045h8.282v3.897h-4.1c-6.926.264-6.921 10.185 0 10.446h30.7c6.925-.263 6.92-10.185 0-10.446h-4.1V57.01h8.28c.578 0 1.046-.468 1.046-1.045v-3.439l4.585-2.869v7.7c0 .578.468 1.046 1.045 1.046h2.837v3.05c0 .578.468 1.046 1.045 1.046h2.659v2.044H51.58c-1.382.043-1.38 2.048 0 2.09h1.743v3.675c.042 1.382 2.048 1.381 2.09 0v-3.674h1.743c1.382-.043 1.38-2.049 0-2.09h-1.743v-2.045h2.66c.577 0 1.045-.468 1.045-1.046v-3.05h2.836c.577 0 1.045-.468 1.045-1.046V50.7c-.043-1.382-2.048-1.38-2.09 0v5.612H47.828V34.357h13.08v11.49c0 .578.468 1.046 1.046 1.046.577 0 1.045-.468 1.045-1.045zM10.019 11.336V9.734c.044-1.382 2.047-1.38 2.09 0v1.602h-2.09zm13.57 54.794c0 1.728-1.407 3.133-3.137 3.133-4.154-.158-4.153-6.108 0-6.265 1.73 0 3.136 1.405 3.136 3.132zm1.043-3.132h7.115c-1.382 1.74-1.382 4.525 0 6.265h-7.115c1.382-1.74 1.381-4.526 0-6.265zm-8.36 6.265H9.407c1.382-1.74 1.381-4.526 0-6.265h6.867c-1.382 1.74-1.382 4.525 0 6.265zM2.092 66.13c0-1.727 1.406-3.132 3.136-3.132 4.154.158 4.153 6.108 0 6.265-1.73 0-3.136-1.406-3.136-3.133zm36.971 0c0 1.728-1.406 3.133-3.136 3.133-4.154-.158-4.153-6.108 0-6.265 1.73 0 3.136 1.405 3.136 3.132zm-9.327-5.223H11.418V57.01h18.317v3.897zm27.293-.5H51.71v-2.004h5.318v2.005zM41.153 50.06v-5.144h4.585v2.275l-4.585 2.87zm6.676-17.794v-1.698c.33-8.667 12.754-8.66 13.08 0v1.698H47.83z" transform="translate(-340.000000, -1587.000000) translate(210.000000, 1010.000000) translate(0.000000, 535.000000) translate(43.000000, 42.000000) translate(87.000000, 0.000000)"/>
                            <path fill="#000" fill-rule="nonzero" d="M30.099 46.141v4.56c.042 1.381 2.048 1.38 2.09 0v-4.56c-.042-1.382-2.048-1.38-2.09 0zM36.3 50.7v-4.559c-.042-1.382-2.048-1.38-2.09 0v4.56c.043 1.381 2.048 1.38 2.09 0zM25.987 46.141v4.56c.043 1.381 2.049 1.38 2.091 0v-4.56c-.043-1.382-2.048-1.38-2.09 0zM51.233 50.7c0 1.729 1.407 3.134 3.136 3.134 4.155-.157 4.153-6.111 0-6.268-1.73 0-3.136 1.406-3.136 3.134zm4.181 0c-.044 1.38-2.047 1.379-2.09 0 .043-1.379 2.047-1.378 2.09 0z" transform="translate(-340.000000, -1587.000000) translate(210.000000, 1010.000000) translate(0.000000, 535.000000) translate(43.000000, 42.000000) translate(87.000000, 0.000000)"/>
                            <path fill="#4187D4" fill-rule="nonzero" d="M5.923 43.064h4.518c1.382-.043 1.38-2.048 0-2.09H5.923c-1.382.042-1.38 2.048 0 2.09z" transform="translate(-340.000000, -1587.000000) translate(210.000000, 1010.000000) translate(0.000000, 535.000000) translate(43.000000, 42.000000) translate(87.000000, 0.000000)"/>
                            <g fill="#4187D4" fill-rule="nonzero">
                                <path d="M1.036 0c-1.382.043-1.381 2.048 0 2.09 1.382-.042 1.382-2.047 0-2.09zM16.262 0c-1.382.043-1.381 2.048 0 2.09 1.382-.042 1.381-2.047 0-2.09zM31.736 0c-1.382.043-1.381 2.048 0 2.09 1.382-.042 1.381-2.047 0-2.09z" transform="translate(-340.000000, -1587.000000) translate(210.000000, 1010.000000) translate(0.000000, 535.000000) translate(43.000000, 42.000000) translate(87.000000, 0.000000) translate(4.190684, 65.085455)"/>
                            </g>
                        </g>
                    </g>
                </g>
            </g>
        </g>
    </g>
</svg>
