<svg xmlns="http://www.w3.org/2000/svg" xmlns:xlink="http://www.w3.org/1999/xlink" width="63" height="63" viewBox="0 0 63 63">
    <defs>
        <path id="l8o716ocna" d="M0 0H63V63H0z"/>
    </defs>
    <g fill="none" fill-rule="evenodd">
        <g>
            <g>
                <g>
                    <g>
                        <g transform="translate(-341.000000, -1231.000000) translate(210.000000, 1010.000000) translate(0.000000, 171.000000) translate(43.000000, 50.000000) translate(88.000000, 0.000000)">
                            <mask id="cdqxskc44b" fill="#fff">
                                <use xlink:href="#l8o716ocna"/>
                            </mask>
                            <g fill="#4187D4" fill-rule="nonzero" mask="url(#cdqxskc44b)">
                                <g>
                                    <path d="M0 3.048C0 1.368 1.368 0 3.048 0 4.73 0 6.097 1.368 6.097 3.048c0 1.681-1.368 3.049-3.049 3.049C1.368 6.097 0 4.729 0 3.048zM22.355 3.048c0-1.68 1.368-3.048 3.048-3.048s3.049 1.368 3.049 3.048c0 1.681-1.368 3.049-3.049 3.049-1.68 0-3.048-1.368-3.048-3.049z" transform="translate(17.274170, 28.451660)"/>
                                </g>
                            </g>
                            <g fill="#02133C" mask="url(#cdqxskc44b)">
                                <path d="M60.968 0H54.87v3.627l-2.656-1.595h-41.43L8.13 3.627V0H2.032v56.903H0V63h10.161v-6.097H8.13V46.742h5.08c0 2.242 1.824 4.064 4.065 4.064 2.242 0 4.065-1.822 4.065-4.064v-4.065H41.66v4.065c0 2.242 1.823 4.064 4.065 4.064 2.241 0 4.064-1.822 4.064-4.064h5.081v10.161h-2.032V63H63v-6.097h-2.032V0zm-2.033 52.839h-2.032V2.032h2.032V52.84zm-13.21-14.226h4.065c.561 0 1.016.455 1.016 1.016 0 .56-.455 1.016-1.016 1.016H13.21c-.561 0-1.016-.455-1.016-1.016 0-.56.455-1.016 1.016-1.016h30.484V36.58H15.242V29.1c0-.482.343-.901.817-.996l4.264-.852V18.29c0-.56.455-1.016 1.016-1.016H41.66c.561 0 1.016.456 1.016 1.016v8.963l4.264.852c.474.095.817.514.817.997v7.479h-2.032v2.032zM44.71 25.586V18.29c0-1.68-1.368-3.048-3.049-3.048H21.34c-1.681 0-3.049 1.368-3.049 3.048v7.296l-2.63.526c-1.42.284-2.45 1.54-2.45 2.99v.366H8.129V10.736l4.346-2.607h38.049l4.347 2.607v18.732h-5.08v-.366c0-1.45-1.031-2.706-2.45-2.99l-2.631-.526zm6.94-21.521l3.221 1.932v2.37l-3.783-2.27H11.912L8.13 8.367v-2.37l3.22-1.932h40.302zM6.098 52.839H4.065V2.032h2.032V52.84zM4.065 54.87h2.032v2.032H4.065v-2.032zM8.129 31.5h5.08v5.08c-1.68 0-3.048 1.368-3.048 3.049 0 1.68 1.368 3.048 3.049 3.048v2.033H8.129V31.5zM49.79 42.677c1.681 0 3.049-1.367 3.049-3.048 0-1.68-1.368-3.048-3.049-3.048V31.5h5.081v13.21h-5.08v-2.033zm9.145 12.194v2.032h-2.032v-2.032h2.032z"/>
                                <path fill-rule="nonzero" d="M40.645 26.42v-7.114h-18.29v7.113h18.29z"/>
                                <path d="M37.597 32.516v2.032H25.403v-2.032h12.194zM37.597 28.452v2.032H25.403v-2.032h12.194z"/>
                            </g>
                            <g fill="#4187D4" mask="url(#cdqxskc44b)">
                                <g>
                                    <path d="M54.871 4.064v2.033h-2.032V4.064h2.032zM54.871 0v2.032h-2.032V0h2.032zM2.032 4.064v2.033H0V4.064h2.032zM2.032 0v2.032H0V0h2.032z" transform="translate(4.064575, 44.709717)"/>
                                </g>
                            </g>
                        </g>
                    </g>
                </g>
            </g>
        </g>
    </g>
</svg>
