<?xml version="1.0" encoding="UTF-8"?>
<svg width="104px" height="39px" viewBox="0 0 104 39" version="1.1" xmlns="http://www.w3.org/2000/svg" xmlns:xlink="http://www.w3.org/1999/xlink">
    <title>44AFBA17-84CA-48AE-AA06-AF717D588B80</title>
    <defs>
        <path d="M3.91177277,38.8841137 L3.91177277,37.7391608 L1.03572102,37.7391608 L1.03572102,35.8896216 L3.62074373,35.8896216 L3.62074373,34.7446687 L1.03572102,34.7446687 L1.03572102,33.2381518 L3.81761632,33.2381518 L3.81761632,32.0885635 L0,32.0885635 L0,38.8841137 L3.91177277,38.8841137 Z M5.76922286,38.8841137 L5.76922286,34.4526362 L7.8406649,38.8841137 L8.8849456,38.8841137 L8.8849456,32.0885635 L7.917702,32.0885635 L7.917702,36.626656 L5.81202125,32.0885635 L4.80197927,32.0885635 L4.80197927,38.8841137 L5.76922286,38.8841137 Z M12.407253,38.9999996 C12.6183917,38.9999996 12.8266772,38.9737321 13.0321095,38.9211972 C13.2375418,38.8686622 13.4444007,38.7914049 13.6526862,38.6894253 C14.0692571,38.4823758 14.3888184,38.2351525 14.6113701,37.9477555 L14.6113701,37.9477555 L14.6113701,35.2406605 L12.3730143,35.2406605 L12.3730143,36.3856133 L13.5628095,36.3856133 L13.5628095,37.2478045 C13.391616,37.4301317 13.19617,37.5722851 12.9764716,37.6742647 C12.7567732,37.7762443 12.5470611,37.8272341 12.3473353,37.8272341 C11.9136449,37.8272341 11.5698312,37.6433618 11.3158941,37.2756172 C11.0191586,36.849157 10.8707909,36.2264633 10.8707909,35.4075362 C10.8707909,34.6442343 11.008459,34.0763933 11.2837953,33.7040132 C11.5591316,33.3316331 11.9164982,33.1454431 12.355895,33.1454431 C12.6412176,33.1454431 12.886595,33.239697 13.0920273,33.4282047 C13.2974595,33.6167125 13.4386942,33.8824775 13.5157313,34.2254998 L13.5157313,34.2254998 L14.5428927,33.9705508 C14.4316168,33.3092285 14.1926592,32.8109191 13.8260196,32.4756225 C13.4593801,32.1403259 12.9693385,31.9726776 12.355895,31.9726776 C11.850874,31.9726776 11.4136171,32.1047875 11.0441243,32.3690074 C10.6746316,32.6332273 10.3750428,33.0287846 10.1453582,33.5556792 C9.91567347,34.0825739 9.80083113,34.7230367 9.80083113,35.4770677 C9.80083113,36.2032861 9.91496017,36.8375684 10.1432182,37.3799145 C10.3714763,37.9222606 10.680338,38.3278613 11.0698034,38.5967166 C11.4592687,38.8655719 11.9050853,38.9999996 12.407253,38.9999996 Z M16.5758161,38.8841137 L16.5758161,32.0885635 L15.5400951,32.0885635 L15.5400951,38.8841137 L16.5758161,38.8841137 Z M18.5488219,38.8841137 L18.5488219,34.4526362 L20.6202639,38.8841137 L21.6645446,38.8841137 L21.6645446,32.0885635 L20.697301,32.0885635 L20.697301,36.626656 L18.5916203,32.0885635 L17.5815783,32.0885635 L17.5815783,38.8841137 L18.5488219,38.8841137 Z M26.6719562,38.8841137 L26.6719562,37.7391608 L23.7959044,37.7391608 L23.7959044,35.8896216 L26.3809271,35.8896216 L26.3809271,34.7446687 L23.7959044,34.7446687 L23.7959044,33.2381518 L26.5777997,33.2381518 L26.5777997,32.0885635 L22.7601834,32.0885635 L22.7601834,38.8841137 L26.6719562,38.8841137 Z M31.4653757,38.8841137 L31.4653757,37.7391608 L28.589324,37.7391608 L28.589324,35.8896216 L31.1743467,35.8896216 L31.1743467,34.7446687 L28.589324,34.7446687 L28.589324,33.2381518 L31.3712193,33.2381518 L31.3712193,32.0885635 L27.553603,32.0885635 L27.553603,38.8841137 L31.4653757,38.8841137 Z M33.3827436,38.8841137 L33.3827436,36.0472264 L33.5967355,36.0472264 C33.8335533,36.0472264 34.0076001,36.0727213 34.1188759,36.1237111 C34.2301517,36.1747009 34.3342944,36.2674097 34.4313041,36.4018373 C34.5283138,36.536265 34.7109203,36.870789 34.9791235,37.4054094 L34.9791235,37.4054094 L35.7323751,38.8841137 L36.9692486,38.8841137 L36.3443921,37.5583788 C36.090455,37.0237584 35.8914425,36.6536961 35.7473546,36.4481917 C35.6032667,36.2426873 35.4199469,36.0549522 35.1973953,35.8849861 C35.6339388,35.8015483 35.9691929,35.5975891 36.2031574,35.2731085 C36.437122,34.9486279 36.5541042,34.5206226 36.5541042,33.9890925 C36.5541042,33.5657227 36.4777804,33.2041586 36.3251328,32.9044004 C36.1724852,32.6046421 35.9756127,32.3937298 35.7345151,32.2716633 C35.4934175,32.1495968 35.0932525,32.0885635 34.5340202,32.0885635 L34.5340202,32.0885635 L32.3470226,32.0885635 L32.3470226,38.8841137 L33.3827436,38.8841137 Z M34.1531146,34.9625343 L33.3827436,34.9625343 L33.3827436,33.2381518 L34.195913,33.2381518 C34.4327307,33.2381518 34.6210436,33.2427872 34.7608517,33.2520581 C34.9006598,33.261329 34.9933896,33.2736902 35.0390412,33.2891416 C35.1817025,33.3447669 35.2915517,33.4374756 35.3685888,33.5672678 C35.4456259,33.69706 35.4841445,33.8685712 35.4841445,34.0818013 C35.4841445,34.3043022 35.4441993,34.4843117 35.364309,34.6218297 C35.2844187,34.7593476 35.1824158,34.8505112 35.0583005,34.8953204 C34.9341852,34.9401296 34.6324565,34.9625343 34.1531146,34.9625343 L34.1531146,34.9625343 Z M38.5356696,38.8841137 L38.5356696,32.0885635 L37.4999486,32.0885635 L37.4999486,38.8841137 L38.5356696,38.8841137 Z M40.5086754,38.8841137 L40.5086754,34.4526362 L42.5801174,38.8841137 L43.6243981,38.8841137 L43.6243981,32.0885635 L42.6571545,32.0885635 L42.6571545,36.626656 L40.5514738,32.0885635 L39.5414318,32.0885635 L39.5414318,38.8841137 L40.5086754,38.8841137 Z M47.1467055,38.9999996 C47.3578443,38.9999996 47.5661298,38.9737321 47.771562,38.9211972 C47.9769943,38.8686622 48.1838532,38.7914049 48.3921387,38.6894253 C48.8087097,38.4823758 49.128271,38.2351525 49.3508226,37.9477555 L49.3508226,37.9477555 L49.3508226,35.2406605 L47.1124668,35.2406605 L47.1124668,36.3856133 L48.3022621,36.3856133 L48.3022621,37.2478045 C48.1310685,37.4301317 47.9356225,37.5722851 47.7159241,37.6742647 C47.4962257,37.7762443 47.2865136,37.8272341 47.0867878,37.8272341 C46.6530975,37.8272341 46.3092837,37.6433618 46.0553466,37.2756172 C45.7586111,36.849157 45.6102434,36.2264633 45.6102434,35.4075362 C45.6102434,34.6442343 45.7479115,34.0763933 46.0232478,33.7040132 C46.2985841,33.3316331 46.6559507,33.1454431 47.0953475,33.1454431 C47.3806701,33.1454431 47.6260475,33.239697 47.8314798,33.4282047 C48.036912,33.6167125 48.1781467,33.8824775 48.2551838,34.2254998 L48.2551838,34.2254998 L49.2823452,33.9705508 C49.1710694,33.3092285 48.9321117,32.8109191 48.5654721,32.4756225 C48.1988326,32.1403259 47.7087911,31.9726776 47.0953475,31.9726776 C46.5903265,31.9726776 46.1530696,32.1047875 45.7835768,32.3690074 C45.4140841,32.6332273 45.1144954,33.0287846 44.8848107,33.5556792 C44.655126,34.0825739 44.5402836,34.7230367 44.5402836,35.4770677 C44.5402836,36.2032861 44.6544127,36.8375684 44.8826708,37.3799145 C45.1109288,37.9222606 45.4197905,38.3278613 45.8092559,38.5967166 C46.1987212,38.8655719 46.6445378,38.9999996 47.1467055,38.9999996 Z M56.0444907,38.8841137 L56.0444907,37.7391608 L53.1170808,37.7391608 L55.9332148,33.1547139 L55.9332148,32.0885635 L52.1669566,32.0885635 L52.1669566,33.2381518 L54.5679462,33.2381518 L51.863088,37.6464521 L51.863088,38.8841137 L56.0444907,38.8841137 Z M58.9932997,38.9999996 C59.7351384,38.9999996 60.3200497,38.717238 60.7480336,38.1517147 C61.2387885,37.5089341 61.4841659,36.6204754 61.4841659,35.4863386 C61.4841659,34.3645629 61.2530546,33.4985088 60.790832,32.8881763 C60.3286094,32.2778438 59.7280054,31.9726776 58.9890198,31.9726776 C58.4811456,31.9726776 58.0488819,32.1009247 57.6922286,32.3574188 C57.3355754,32.613913 57.0466863,33.0040623 56.8255613,33.5278666 C56.6044363,34.0516709 56.4938737,34.7184013 56.4938737,35.5280575 C56.4938737,36.0904905 56.5552181,36.5895725 56.6779068,37.0253036 C56.8005955,37.4610346 56.9846286,37.8395953 57.230006,38.1609856 C57.6608432,38.7203282 58.2486077,38.9999996 58.9932997,38.9999996 Z M58.9932997,37.8272341 C58.5881416,37.8272341 58.2486077,37.6302281 57.974698,37.2362159 C57.7007883,36.8422038 57.5638335,36.2573662 57.5638335,35.4817032 C57.5638335,34.6844081 57.6979351,34.0957076 57.9661383,33.7156018 C58.2343416,33.335496 58.5767287,33.1454431 58.9932997,33.1454431 C59.4184303,33.1454431 59.7608175,33.3339508 60.020461,33.7109663 C60.2801046,34.0879819 60.4099264,34.6705017 60.4099264,35.458526 C60.4099264,36.2589114 60.2758247,36.8537924 60.0076215,37.2431691 C59.7394183,37.6325458 59.401311,37.8272341 58.9932997,37.8272341 Z M63.2731386,38.8841137 L63.2731386,34.4526362 L65.3445806,38.8841137 L66.3888613,38.8841137 L66.3888613,32.0885635 L65.4216177,32.0885635 L65.4216177,36.626656 L63.315937,32.0885635 L62.305895,32.0885635 L62.305895,38.8841137 L63.2731386,38.8841137 Z M71.3962729,38.8841137 L71.3962729,37.7391608 L68.5202211,37.7391608 L68.5202211,35.8896216 L71.1052438,35.8896216 L71.1052438,34.7446687 L68.5202211,34.7446687 L68.5202211,33.2381518 L71.3021164,33.2381518 L71.3021164,32.0885635 L67.4845001,32.0885635 L67.4845001,38.8841137 L71.3962729,38.8841137 Z M76.442203,38.9999996 C76.9757562,38.9999996 77.4258526,38.8246256 77.7924921,38.4738775 C78.1591317,38.1231295 78.4194885,37.5676497 78.5735627,36.807438 L78.5735627,36.807438 L77.5678006,36.3856133 C77.4736441,36.8893308 77.3281296,37.2555303 77.131257,37.4842118 C76.9343844,37.7128933 76.6989933,37.8272341 76.4250836,37.8272341 C76.0484578,37.8272341 75.7438759,37.6456795 75.511338,37.2825703 C75.2788001,36.9194611 75.1625311,36.3114463 75.1625311,35.458526 C75.1625311,34.6334182 75.2830799,34.0416275 75.5241775,33.6831537 C75.7652751,33.32468 76.0741368,33.1454431 76.4507626,33.1454431 C76.7132594,33.1454431 76.9436574,33.2443324 77.1419566,33.442111 C77.3402558,33.6398897 77.4707909,33.9211061 77.5335619,34.2857605 L77.5335619,34.2857605 L78.5607232,33.9612799 C78.4266216,33.3617635 78.2240426,32.9121261 77.9529861,32.6123679 C77.5592409,32.1859077 77.0770457,31.9726776 76.5064005,31.9726776 C75.8016537,31.9726776 75.2381416,32.2569844 74.8158642,32.8255979 C74.333669,33.4807397 74.0925714,34.3877401 74.0925714,35.5465993 C74.0925714,36.6436526 74.3322424,37.5151147 74.8115843,38.1609856 C75.2310085,38.7203282 75.7745481,38.9999996 76.442203,38.9999996 Z M81.7534831,38.9999996 C82.4953218,38.9999996 83.0802331,38.717238 83.508217,38.1517147 C83.9989719,37.5089341 84.2443493,36.6204754 84.2443493,35.4863386 C84.2443493,34.3645629 84.013238,33.4985088 83.5510154,32.8881763 C83.0887928,32.2778438 82.4881887,31.9726776 81.7492032,31.9726776 C81.241329,31.9726776 80.8090653,32.1009247 80.452412,32.3574188 C80.0957588,32.613913 79.8068697,33.0040623 79.5857446,33.5278666 C79.3646196,34.0516709 79.2540571,34.7184013 79.2540571,35.5280575 C79.2540571,36.0904905 79.3154015,36.5895725 79.4380902,37.0253036 C79.5607789,37.4610346 79.744812,37.8395953 79.9901894,38.1609856 C80.4210265,38.7203282 81.0087911,38.9999996 81.7534831,38.9999996 Z M81.7534831,37.8272341 C81.348325,37.8272341 81.0087911,37.6302281 80.7348814,37.2362159 C80.4609717,36.8422038 80.3240169,36.2573662 80.3240169,35.4817032 C80.3240169,34.6844081 80.4581185,34.0957076 80.7263217,33.7156018 C80.994525,33.335496 81.3369121,33.1454431 81.7534831,33.1454431 C82.1786137,33.1454431 82.5210008,33.3339508 82.7806444,33.7109663 C83.040288,34.0879819 83.1701097,34.6705017 83.1701097,35.458526 C83.1701097,36.2589114 83.0360081,36.8537924 82.7678049,37.2431691 C82.4996016,37.6325458 82.1614944,37.8272341 81.7534831,37.8272341 Z M86.0376018,38.8841137 L86.0376018,37.581556 L85.048959,37.581556 L85.048959,38.8841137 L86.0376018,38.8841137 Z M92.701311,38.8841137 L92.701311,37.7391608 L90.1162883,37.7391608 L90.1162883,32.1441888 L89.0805673,32.1441888 L89.0805673,38.8841137 L92.701311,38.8841137 Z M95.6372805,38.8841137 L95.6372805,33.2381518 L97.1609032,33.2381518 L97.1609032,32.0885635 L93.073657,32.0885635 L93.073657,33.2381518 L94.6015595,33.2381518 L94.6015595,38.8841137 L95.6372805,38.8841137 Z M99.7801646,38.8841137 C100.196736,38.8841137 100.539123,38.8192176 100.807326,38.6894253 C101.075529,38.5596331 101.304501,38.3688076 101.49424,38.1169489 C101.68398,37.8650902 101.838767,37.5228404 101.958603,37.0901997 C102.024227,36.8584279 102.071305,36.6204754 102.099837,36.3763424 C102.12837,36.1322094 102.142636,35.8587187 102.142636,35.5558701 C102.142636,34.906909 102.082718,34.3607001 101.962882,33.9172433 C101.843047,33.4737865 101.683266,33.1176305 101.48354,32.8487751 C101.272402,32.5675586 101.046997,32.3728703 100.807326,32.2647101 C100.681784,32.2029043 100.530563,32.1580951 100.353663,32.1302824 C100.176763,32.1024698 99.9670509,32.0885635 99.7245267,32.0885635 L99.7245267,32.0885635 L97.828558,32.0885635 L97.828558,38.8841137 L99.7801646,38.8841137 Z M99.6432097,37.7391608 L98.8642791,37.7391608 L98.8642791,33.2381518 L99.3350613,33.2381518 C99.7402194,33.2381518 100.021262,33.2582387 100.17819,33.2984125 C100.375062,33.3540377 100.541263,33.4652882 100.676791,33.6321639 C100.812319,33.7990396 100.911469,34.0254035 100.97424,34.3112554 C101.037011,34.5971073 101.068396,34.9949823 101.068396,35.5048803 C101.068396,35.9746046 101.037011,36.3655264 100.97424,36.6776458 C100.902909,36.9804944 100.820165,37.2006776 100.726009,37.3381955 C100.631853,37.4757135 100.512017,37.5769205 100.366503,37.6418166 C100.220988,37.7067128 99.9798904,37.7391608 99.6432097,37.7391608 L99.6432097,37.7391608 Z M104.004366,38.8841137 L104.004366,37.581556 L103.015723,37.581556 L103.015723,38.8841137 L104.004366,38.8841137 Z" id="path-1"></path>
    </defs>
    <g id="Page-2" stroke="none" stroke-width="1" fill="none" fill-rule="evenodd">
        <g id="1.0_Home" transform="translate(-223.000000, -104.000000)" fill-rule="nonzero">
            <g id="E-ZONE-01" transform="translate(223.000000, 104.000000)">
                <g id="Group-30" transform="translate(31.612022, 0.000000)">
                    <rect id="Rectangle" fill="#636469" x="24.136612" y="22.5558697" width="16.0874317" height="2.60260034"></rect>
                    <path d="M39.2185792,7.99767421 L39.2185792,10.2221711 C39.2185792,14.2702954 35.6524087,17.6431848 31.074533,18.1524861 C30.6766709,18.1960489 30.2763235,18.2179931 29.8756084,18.2182024 L24.136612,18.2182024 L24.136612,14.953745 L29.9638175,14.953745 C30.3375469,14.9540256 30.7105271,14.9232307 31.0781333,14.8617422 C33.7226081,14.4132284 35.7316169,12.3973808 35.7316169,10.0168077 L35.7316169,8.25068198 C35.7316169,5.53495572 33.1357471,3.31210173 29.9710183,3.31210173 L24.136612,3.31210173 L24.136612,0 L29.8756084,0 C35.0133423,0 39.2185792,3.59961056 39.2185792,7.99767421 Z" id="Path" fill="#636469"></path>
                    <path d="M23.1256831,22.0848326 L23.1256831,25.15847 L9.68175258,25.15847 C4.35688015,25.15847 0,21.5669303 0,17.1760198 L0,15.1816135 C0,11.7010529 2.7447796,8.72231063 6.52891574,7.63825432 C6.65334575,3.4210501 10.8766466,0 16.0221935,0 L23.1256831,0 L23.1256831,3.25216893 L16.0606204,3.25216893 C13.1987302,3.25216893 10.7979629,4.96510657 10.2910936,7.20720522 L19.5410009,7.20720522 L19.5281919,10.4899336 L10.2526667,10.4899336 C10.6570643,12.8301442 13.1145569,14.6444105 16.0606204,14.6444105 L23.1256831,14.6444105 L23.1256831,17.8402857 L16.0221935,17.8402857 C11.233468,17.8402857 7.23889873,14.8792358 6.61308898,11.0689548 C4.296495,12.0018222 2.68988401,13.9640606 2.68988401,16.22546 L2.68988401,16.3557398 C2.68988401,19.5097968 5.82076261,22.0896578 9.64332566,22.0896578 L23.1256831,22.0848326 Z" id="Path" fill="#016EB9"></path>
                </g>
                <g id="ENGINEERINGZONECO.LTD.">
                    <use fill="#000000" xlink:href="#path-1"></use>
                    <use fill="#646168" xlink:href="#path-1"></use>
                </g>
            </g>
        </g>
    </g>
</svg>