<?xml version="1.0" encoding="UTF-8"?>
<svg width="75px" height="40px" viewBox="0 0 75 40" version="1.1" xmlns="http://www.w3.org/2000/svg" xmlns:xlink="http://www.w3.org/1999/xlink">
    <title>44AFBA17-84CA-48AE-AA06-AF717D588B80</title>
    <defs>
        <path d="M2.79846902,39.9170956 L2.79846902,39.0980002 L0.740951316,39.0980002 L0.740951316,37.7748461 L2.59026782,37.7748461 L2.59026782,36.9557507 L0.740951316,36.9557507 L0.740951316,35.8779936 L2.73110981,35.8779936 L2.73110981,35.055582 L0,35.055582 L0,39.9170956 L2.79846902,39.9170956 Z M4.12728254,39.9170956 L4.12728254,36.7468316 L5.60918517,39.9170956 L6.35626005,39.9170956 L6.35626005,35.055582 L5.66429725,35.055582 L5.66429725,38.302118 L4.15790036,35.055582 L3.43531974,35.055582 L3.43531974,39.9170956 L4.12728254,39.9170956 Z M8.87610688,40 C9.0271548,40 9.17616154,39.9812083 9.32312709,39.943625 C9.47009264,39.9060417 9.61807879,39.8507721 9.76708553,39.7778162 C10.065099,39.6296937 10.2937121,39.452831 10.4529248,39.2472281 L10.4529248,39.2472281 L10.4529248,37.3105815 L8.85161262,37.3105815 L8.85161262,38.1296769 L9.7027881,38.1296769 L9.7027881,38.7464856 C9.58031681,38.8769218 9.44049541,38.9786179 9.28332392,39.0515737 C9.12615243,39.1245296 8.9761251,39.1610075 8.83324193,39.1610075 C8.52298132,39.1610075 8.27701814,39.0294659 8.09535239,38.7663826 C7.88306882,38.4612945 7.77692703,38.0158215 7.77692703,37.4299638 C7.77692703,36.8839002 7.87541436,36.4776687 8.07238902,36.2112692 C8.26936369,35.9448698 8.52502251,35.8116701 8.83936549,35.8116701 C9.04348431,35.8116701 9.21902649,35.879099 9.36599204,36.0139568 C9.51295759,36.1488146 9.61399641,36.338942 9.66910849,36.584339 L9.66910849,36.584339 L10.4039362,36.4019493 C10.3243299,35.9288416 10.1533804,35.5723527 9.89108771,35.3324827 C9.62879503,35.0926126 9.27822095,34.9726776 8.83936549,34.9726776 C8.47807518,34.9726776 8.16526309,35.0671886 7.90092922,35.2562106 C7.63659534,35.4452326 7.42227058,35.728213 7.25795493,36.1051516 C7.09363928,36.4820902 7.01148146,36.9402752 7.01148146,37.4797064 C7.01148146,37.9992406 7.09312899,38.453004 7.25642404,38.8409966 C7.4197191,39.2289891 7.64067772,39.5191545 7.91929991,39.7114927 C8.1979221,39.9038309 8.51685775,40 8.87610688,40 Z M11.8582828,39.9170956 L11.8582828,35.055582 L11.1173315,35.055582 L11.1173315,39.9170956 L11.8582828,39.9170956 Z M13.2697645,39.9170956 L13.2697645,36.7468316 L14.7516671,39.9170956 L15.498742,39.9170956 L15.498742,35.055582 L14.8067792,35.055582 L14.8067792,38.302118 L13.3003823,35.055582 L12.5778017,35.055582 L12.5778017,39.9170956 L13.2697645,39.9170956 Z M19.0810273,39.9170956 L19.0810273,39.0980002 L17.0235096,39.0980002 L17.0235096,37.7748461 L18.8728261,37.7748461 L18.8728261,36.9557507 L17.0235096,36.9557507 L17.0235096,35.8779936 L19.0136681,35.8779936 L19.0136681,35.055582 L16.2825583,35.055582 L16.2825583,39.9170956 L19.0810273,39.9170956 Z M22.5102234,39.9170956 L22.5102234,39.0980002 L20.4527057,39.0980002 L20.4527057,37.7748461 L22.3020222,37.7748461 L22.3020222,36.9557507 L20.4527057,36.9557507 L20.4527057,35.8779936 L22.4428642,35.8779936 L22.4428642,35.055582 L19.7117544,35.055582 L19.7117544,39.9170956 L22.5102234,39.9170956 Z M23.8819019,39.9170956 L23.8819019,37.8875961 L24.034991,37.8875961 C24.2044096,37.8875961 24.3289221,37.905835 24.4085285,37.942313 C24.4881348,37.9787909 24.5626382,38.0451144 24.6320386,38.1412835 C24.701439,38.2374526 24.832075,38.4767699 25.0239467,38.8592355 L25.0239467,38.8592355 L25.5628204,39.9170956 L26.4476755,39.9170956 L26.0006553,38.9686693 C25.8189895,38.5862037 25.6766166,38.3214624 25.5735366,38.1744453 C25.4704566,38.0274281 25.3393103,37.893123 25.1800976,37.7715299 C25.4923994,37.7118387 25.732239,37.565927 25.8996164,37.3337947 C26.0669939,37.1016624 26.1506826,36.7954689 26.1506826,36.415214 C26.1506826,36.1123367 26.0960808,35.8536749 25.9868772,35.6392289 C25.8776737,35.4247829 25.7368317,35.2738969 25.5643513,35.1865709 C25.3918709,35.099245 25.1055942,35.055582 24.7055213,35.055582 L24.7055213,35.055582 L23.1409506,35.055582 L23.1409506,39.9170956 L23.8819019,39.9170956 Z M24.4330227,37.1116109 L23.8819019,37.1116109 L23.8819019,35.8779936 L24.4636405,35.8779936 C24.6330592,35.8779936 24.7677776,35.8813097 24.8677958,35.8879421 C24.967814,35.8945744 25.0341526,35.9034176 25.0668117,35.9144715 C25.1688711,35.9542656 25.2474568,36.0205891 25.3025689,36.113442 C25.357681,36.206295 25.385237,36.3289935 25.385237,36.4815376 C25.385237,36.640714 25.3566604,36.7694921 25.2995071,36.867872 C25.2423538,36.9662519 25.1693814,37.03147 25.0805897,37.0635264 C24.991798,37.0955828 24.7759423,37.1116109 24.4330227,37.1116109 L24.4330227,37.1116109 Z M27.5682878,39.9170956 L27.5682878,35.055582 L26.8273365,35.055582 L26.8273365,39.9170956 L27.5682878,39.9170956 Z M28.9797694,39.9170956 L28.9797694,36.7468316 L30.4616721,39.9170956 L31.2087469,39.9170956 L31.2087469,35.055582 L30.5167841,35.055582 L30.5167841,38.302118 L29.0103873,35.055582 L28.2878066,35.055582 L28.2878066,39.9170956 L28.9797694,39.9170956 Z M33.7285938,40 C33.8796417,40 34.0286484,39.9812083 34.175614,39.943625 C34.3225795,39.9060417 34.4705657,39.8507721 34.6195724,39.7778162 C34.9175859,39.6296937 35.146199,39.452831 35.3054117,39.2472281 L35.3054117,39.2472281 L35.3054117,37.3105815 L33.7040995,37.3105815 L33.7040995,38.1296769 L34.555275,38.1296769 L34.555275,38.7464856 C34.4328037,38.8769218 34.2929823,38.9786179 34.1358108,39.0515737 C33.9786393,39.1245296 33.828612,39.1610075 33.6857288,39.1610075 C33.3754682,39.1610075 33.129505,39.0294659 32.9478393,38.7663826 C32.7355557,38.4612945 32.6294139,38.0158215 32.6294139,37.4299638 C32.6294139,36.8839002 32.7279013,36.4776687 32.9248759,36.2112692 C33.1218506,35.9448698 33.3775094,35.8116701 33.6918524,35.8116701 C33.8959712,35.8116701 34.0715134,35.879099 34.2184789,36.0139568 C34.3654445,36.1488146 34.4664833,36.338942 34.5215954,36.584339 L34.5215954,36.584339 L35.2564231,36.4019493 C35.1768168,35.9288416 35.0058673,35.5723527 34.7435746,35.3324827 C34.4812819,35.0926126 34.1307079,34.9726776 33.6918524,34.9726776 C33.3305621,34.9726776 33.01775,35.0671886 32.7534161,35.2562106 C32.4890822,35.4452326 32.2747575,35.728213 32.1104418,36.1051516 C31.9461262,36.4820902 31.8639684,36.9402752 31.8639684,37.4797064 C31.8639684,37.9992406 31.9456159,38.453004 32.1089109,38.8409966 C32.272206,39.2289891 32.4931646,39.5191545 32.7717868,39.7114927 C33.050409,39.9038309 33.3693447,40 33.7285938,40 Z M40.0940392,39.9170956 L40.0940392,39.0980002 L37.9997801,39.0980002 L40.0144328,35.8183024 L40.0144328,35.055582 L37.3200644,35.055582 L37.3200644,35.8779936 L39.0377243,35.8779936 L37.1026779,39.0316767 L37.1026779,39.9170956 L40.0940392,39.9170956 Z M42.2036072,40 C42.7343161,40 43.1527597,39.7977133 43.4589379,39.3931398 C43.8100223,38.9332968 43.9855645,38.2976965 43.9855645,37.4863388 C43.9855645,36.6838243 43.8202282,36.0642521 43.4895557,35.6276223 C43.1588832,35.1909925 42.7292131,34.9726776 42.2005454,34.9726776 C41.8372139,34.9726776 41.5279739,35.0644251 41.2728254,35.2479202 C41.0176768,35.4314152 40.8110065,35.7105267 40.6528144,36.0852546 C40.4946224,36.4599824 40.4155263,36.936959 40.4155263,37.5161844 C40.4155263,37.918547 40.4594119,38.2755886 40.547183,38.5873091 C40.634954,38.8990297 40.7666107,39.1698507 40.9421529,39.3997722 C41.2503723,39.7999241 41.6708571,40 42.2036072,40 Z M42.2036072,39.1610075 C41.9137584,39.1610075 41.6708571,39.0200701 41.474903,38.7381951 C41.2789489,38.4563202 41.1809719,38.0379294 41.1809719,37.4830226 C41.1809719,36.9126404 41.2769077,36.4914861 41.4687794,36.2195597 C41.6606511,35.9476333 41.9055937,35.8116701 42.2036072,35.8116701 C42.5077442,35.8116701 42.7526868,35.9465279 42.9384349,36.2162435 C43.1241831,36.4859591 43.2170571,36.9026919 43.2170571,37.4664417 C43.2170571,38.0390348 43.1211213,38.4646106 42.9292496,38.7431694 C42.7373779,39.0217282 42.4954971,39.1610075 42.2036072,39.1610075 Z M45.2653895,39.9170956 L45.2653895,36.7468316 L46.7472921,39.9170956 L47.494367,39.9170956 L47.494367,35.055582 L46.8024042,35.055582 L46.8024042,38.302118 L45.2960073,35.055582 L44.5734267,35.055582 L44.5734267,39.9170956 L45.2653895,39.9170956 Z M51.0766523,39.9170956 L51.0766523,39.0980002 L49.0191346,39.0980002 L49.0191346,37.7748461 L50.8684511,37.7748461 L50.8684511,36.9557507 L49.0191346,36.9557507 L49.0191346,35.8779936 L51.0092931,35.8779936 L51.0092931,35.055582 L48.2781832,35.055582 L48.2781832,39.9170956 L51.0766523,39.9170956 Z M54.6864936,40 C55.0681958,40 55.3901932,39.874538 55.6524859,39.6236141 C55.9147786,39.3726901 56.101037,38.9753017 56.2112612,38.4314489 L56.2112612,38.4314489 L55.4917423,38.1296769 C55.4243831,38.4900347 55.3202825,38.7520125 55.1794405,38.9156105 C55.0385986,39.0792085 54.8702005,39.1610075 54.6742465,39.1610075 C54.4048096,39.1610075 54.1869128,39.031124 54.0205559,38.7713569 C53.8541991,38.5115898 53.7710207,38.0766181 53.7710207,37.4664417 C53.7710207,36.8761625 53.8572609,36.4527974 54.0297413,36.1963464 C54.2022217,35.9398955 54.4231803,35.8116701 54.6926172,35.8116701 C54.8804065,35.8116701 55.0452324,35.8824151 55.187095,36.0239053 C55.3289576,36.1653955 55.4223419,36.3665768 55.4672481,36.6274493 L55.4672481,36.6274493 L56.2020758,36.395317 C56.10614,35.9664249 55.9612156,35.6447559 55.7673027,35.4303098 C55.4856188,35.1252217 55.140658,34.9726776 54.7324203,34.9726776 C54.2282468,34.9726776 53.8251122,35.1760697 53.5230163,35.5828539 C53.1780555,36.0515401 53.0055751,36.7004052 53.0055751,37.5294491 C53.0055751,38.3142773 53.1770349,38.9377184 53.5199545,39.3997722 C53.8200092,39.7999241 54.2088556,40 54.6864936,40 Z M58.4861654,40 C59.0168744,40 59.4353179,39.7977133 59.7414962,39.3931398 C60.0925805,38.9332968 60.2681227,38.2976965 60.2681227,37.4863388 C60.2681227,36.6838243 60.1027865,36.0642521 59.772114,35.6276223 C59.4414415,35.1909925 59.0117714,34.9726776 58.4831036,34.9726776 C58.1197721,34.9726776 57.8105321,35.0644251 57.5553836,35.2479202 C57.3002351,35.4314152 57.0935648,35.7105267 56.9353727,36.0852546 C56.7771806,36.4599824 56.6980846,36.936959 56.6980846,37.5161844 C56.6980846,37.918547 56.7419701,38.2755886 56.8297412,38.5873091 C56.9175123,38.8990297 57.0491689,39.1698507 57.2247111,39.3997722 C57.5329305,39.7999241 57.9534153,40 58.4861654,40 Z M58.4861654,39.1610075 C58.1963167,39.1610075 57.9534153,39.0200701 57.7574612,38.7381951 C57.5615072,38.4563202 57.4635301,38.0379294 57.4635301,37.4830226 C57.4635301,36.9126404 57.559466,36.4914861 57.7513377,36.2195597 C57.9432094,35.9476333 58.1881519,35.8116701 58.4861654,35.8116701 C58.7903025,35.8116701 59.0352451,35.9465279 59.2209932,36.2162435 C59.4067413,36.4859591 59.4996154,36.9026919 59.4996154,37.4664417 C59.4996154,38.0390348 59.4036795,38.4646106 59.2118078,38.7431694 C59.0199361,39.0217282 58.7780553,39.1610075 58.4861654,39.1610075 Z M61.5510095,39.9170956 L61.5510095,38.9852502 L60.8437378,38.9852502 L60.8437378,39.9170956 L61.5510095,39.9170956 Z M66.3182045,39.9170956 L66.3182045,39.0980002 L64.468888,39.0980002 L64.468888,35.0953761 L63.7279367,35.0953761 L63.7279367,39.9170956 L66.3182045,39.9170956 Z M68.4185872,39.9170956 L68.4185872,35.8779936 L69.5085817,35.8779936 L69.5085817,35.055582 L66.5845796,35.055582 L66.5845796,35.8779936 L67.6776359,35.8779936 L67.6776359,39.9170956 L68.4185872,39.9170956 Z M71.3823925,39.9170956 C71.6804059,39.9170956 71.9253485,39.8706691 72.1172202,39.7778162 C72.3090919,39.6849633 72.4728973,39.5484474 72.6086363,39.3682685 C72.7443753,39.1880896 72.8551097,38.9432453 72.9408396,38.6337356 C72.987787,38.4679268 73.0214666,38.2976965 73.0418785,38.1230445 C73.0622903,37.9483926 73.0724963,37.7527382 73.0724963,37.5360814 C73.0724963,37.0718168 73.0296313,36.6810608 72.9439014,36.3638133 C72.8581715,36.0465658 72.743865,35.791773 72.6009818,35.5994348 C72.4499339,35.3982535 72.28868,35.2589741 72.1172202,35.1815967 C72.0274079,35.137381 71.919225,35.1053246 71.7926713,35.0854276 C71.6661176,35.0655305 71.5160903,35.055582 71.3425893,35.055582 L71.3425893,35.055582 L69.9862197,35.055582 L69.9862197,39.9170956 L71.3823925,39.9170956 Z M71.2844154,39.0980002 L70.727171,39.0980002 L70.727171,35.8779936 L71.0639671,35.8779936 C71.3538158,35.8779936 71.5548729,35.8923637 71.6671382,35.9211039 C71.8079802,35.960898 71.9268794,36.0404862 72.0238358,36.1598685 C72.1207923,36.2792508 72.1917236,36.4411907 72.2366297,36.6456883 C72.2815359,36.8501858 72.3039889,37.1348242 72.3039889,37.4996035 C72.3039889,37.8356426 72.2815359,38.1153068 72.2366297,38.338596 C72.1856,38.5552528 72.1264056,38.7127711 72.0590463,38.811151 C71.9916871,38.9095309 71.9059572,38.9819341 71.8018566,39.0283605 C71.697756,39.074787 71.5252756,39.0980002 71.2844154,39.0980002 L71.2844154,39.0980002 Z M74.4043716,39.9170956 L74.4043716,38.9852502 L73.6970999,38.9852502 L73.6970999,39.9170956 L74.4043716,39.9170956 Z" id="path-1"></path>
    </defs>
    <g id="Page-2" stroke="none" stroke-width="1" fill="none" fill-rule="evenodd">
        <g id="1.0_Home" transform="translate(-241.000000, -104.000000)" fill-rule="nonzero">
            <g id="E-ZONE-01" transform="translate(241.000000, 104.000000)">
                <g id="Group-30" transform="translate(16.612022, 0.000000)">
                    <rect id="Rectangle" fill="#636469" x="25.136612" y="26.1420765" width="16.0874317" height="3.01639344"></rect>
                    <path d="M40.2185792,9.26924186 L40.2185792,11.8474164 C40.2185792,16.5391608 36.6524087,20.4483131 32.074533,21.0385894 C31.6766709,21.0890784 31.2763235,21.1145115 30.8756084,21.1147541 L25.136612,21.1147541 L25.136612,17.3312735 L30.9638175,17.3312735 C31.3375469,17.3315987 31.7105271,17.2959077 32.0781333,17.2246429 C34.7226081,16.704819 36.7316169,14.3684673 36.7316169,11.6094017 L36.7316169,9.56247588 C36.7316169,6.41497038 34.1357471,3.8387 30.9710183,3.8387 L25.136612,3.8387 L25.136612,0 L30.8756084,0 C36.0133423,0 40.2185792,4.17192048 40.2185792,9.26924186 Z" id="Path" fill="#636469"></path>
                    <path d="M23.1256831,25.5961482 L23.1256831,29.1584699 L9.68175258,29.1584699 C4.35688015,29.1584699 0,24.9959036 0,19.9068726 L0,17.5953713 C0,13.5614288 2.7447796,10.1090898 6.52891574,8.85267701 C6.65334575,3.96497031 10.8766466,0 16.0221935,0 L23.1256831,0 L23.1256831,3.76923835 L16.0606204,3.76923835 C13.1987302,3.76923835 10.7979629,5.75451967 10.2910936,8.35309448 L19.5410009,8.35309448 L19.5281919,12.157751 L10.2526667,12.157751 C10.6570643,14.8700367 13.1145569,16.9727572 16.0606204,16.9727572 L23.1256831,16.9727572 L23.1256831,20.6767516 L16.0221935,20.6767516 C11.233468,20.6767516 7.23889873,17.2449179 6.61308898,12.828832 C4.296495,13.9100181 2.68988401,16.1842371 2.68988401,18.8051812 L2.68988401,18.9561745 C2.68988401,22.6117019 5.82076261,25.6017406 9.64332566,25.6017406 L23.1256831,25.5961482 Z" id="Path" fill="#016EB9"></path>
                </g>
                <g id="ENGINEERINGZONECO.LTD.">
                    <use fill="#000000" xlink:href="#path-1"></use>
                    <use fill="#646168" xlink:href="#path-1"></use>
                </g>
            </g>
        </g>
    </g>
</svg>