<svg xmlns="http://www.w3.org/2000/svg" xmlns:xlink="http://www.w3.org/1999/xlink" width="204" height="29" viewBox="0 0 204 29">
    <defs>
        <path id="gwh1a5qsua" d="M5.724 10.113V8.438H1.515V5.73h3.783V4.056H1.515V1.852h4.071V.17H0v9.943h5.724zm2.718 0V3.629l3.03 6.484h1.529V.17h-1.416v6.64L8.505.17H7.025v9.943h1.416zm9.713.17c.309 0 .613-.039.914-.116.3-.077.603-.19.908-.339.61-.303 1.077-.665 1.403-1.085V4.782h-3.276v1.675h1.741V7.72c-.25.266-.536.474-.858.624-.321.149-.628.224-.92.224-.635 0-1.138-.27-1.51-.808-.434-.624-.65-1.535-.65-2.733 0-1.117.2-1.948.604-2.493.403-.545.925-.817 1.568-.817.418 0 .777.138 1.078.414.3.276.507.664.62 1.166l1.502-.373c-.162-.967-.512-1.696-1.048-2.187C19.694.246 18.977 0 18.079 0c-.739 0-1.378.193-1.919.58-.54.387-.979.965-1.315 1.736-.336.771-.504 1.708-.504 2.812 0 1.062.167 1.99.5 2.784.335.794.787 1.387 1.357 1.78.57.394 1.222.59 1.957.59zm6.1-.17V.17h-1.516v9.943h1.515zm2.886 0V3.629l3.031 6.484H31.7V.17h-1.415v6.64L27.204.17h-1.478v9.943h1.415zm11.886 0V8.438h-4.208V5.73H38.6V4.056H34.82V1.852h4.07V.17h-5.586v9.943h5.724zm7.014 0V8.438h-4.208V5.73h3.782V4.056h-3.782V1.852h4.07V.17h-5.586v9.943h5.724zm2.805 0V5.962h.314c.346 0 .6.037.764.112.162.074.315.21.457.407.142.197.409.686.801 1.468l1.102 2.164h1.81l-.914-1.94c-.372-.782-.663-1.324-.874-1.624-.21-.301-.479-.576-.804-.824.638-.123 1.129-.42 1.471-.896.343-.475.514-1.1.514-1.879 0-.619-.112-1.148-.335-1.587-.224-.438-.512-.747-.864-.926C51.935.26 51.349.17 50.53.17h-3.2v9.943h1.515zm1.128-5.738h-1.128V1.852h1.19c.347 0 .622.006.827.02.204.014.34.032.407.054.209.082.37.217.482.407.113.19.17.441.17.753 0 .326-.06.59-.176.79-.117.202-.266.335-.448.4-.182.066-.623.099-1.324.099zm6.412 5.738V.17h-1.515v9.943h1.515zm2.887 0V3.629l3.031 6.484h1.528V.17h-1.415v6.64L59.336.17h-1.478v9.943h1.415zm9.713.17c.31 0 .614-.039.914-.116.301-.077.604-.19.908-.339.61-.303 1.078-.665 1.403-1.085V4.782h-3.275v1.675h1.741V7.72c-.25.266-.537.474-.858.624-.321.149-.628.224-.92.224-.635 0-1.138-.27-1.51-.808-.434-.624-.651-1.535-.651-2.733 0-1.117.201-1.948.604-2.493.403-.545.926-.817 1.569-.817.417 0 .777.138 1.077.414.3.276.507.664.62 1.166l1.503-.373c-.163-.967-.512-1.696-1.049-2.187C70.526.246 69.81 0 68.911 0c-.739 0-1.379.193-1.92.58-.54.387-.978.965-1.315 1.736-.336.771-.504 1.708-.504 2.812 0 1.062.167 1.99.501 2.784.334.794.786 1.387 1.356 1.78.57.394 1.222.59 1.957.59zm13.02-.17V8.438h-4.284l4.12-6.708V.17h-5.51v1.682h3.513l-3.958 6.45v1.811h6.119zm4.314.17c1.086 0 1.942-.414 2.568-1.242.718-.94 1.077-2.24 1.077-3.9 0-1.641-.338-2.908-1.014-3.801C88.274.447 87.395 0 86.314 0c-.743 0-1.376.188-1.897.563-.522.375-.945.946-1.269 1.713-.323.766-.485 1.742-.485 2.926 0 .823.09 1.554.27 2.191.179.638.448 1.192.807 1.662.63.818 1.49 1.228 2.58 1.228zm0-1.716c-.592 0-1.09-.289-1.49-.865-.4-.577-.601-1.433-.601-2.568 0-1.166.196-2.028.588-2.584.393-.556.894-.834 1.503-.834.622 0 1.123.276 1.503.828.38.551.57 1.404.57 2.557 0 1.17-.196 2.041-.588 2.61-.393.57-.888.856-1.485.856zm6.263 1.546V3.629l3.03 6.484h1.529V.17h-1.416v6.64L92.646.17h-1.479v9.943h1.416zm11.886 0V8.438h-4.209V5.73h3.783V4.056h-3.783V1.852h4.07V.17h-5.585v9.943h5.724zm7.383.17c.78 0 1.44-.257 1.976-.77.536-.514.917-1.326 1.143-2.439l-1.472-.617c-.138.737-.35 1.273-.639 1.608-.288.334-.632.502-1.033.502-.551 0-.997-.266-1.337-.797-.34-.532-.51-1.421-.51-2.67 0-1.207.176-2.073.529-2.597.352-.525.804-.787 1.355-.787.385 0 .722.145 1.012.434.29.29.481.701.573 1.235l1.503-.475c-.196-.877-.493-1.535-.89-1.974-.576-.624-1.281-.936-2.116-.936-1.031 0-1.856.416-2.474 1.248-.705.959-1.058 2.286-1.058 3.981 0 1.606.35 2.88 1.052 3.826.614.818 1.409 1.228 2.386 1.228zm7.772 0c1.085 0 1.94-.414 2.567-1.242.718-.94 1.077-2.24 1.077-3.9 0-1.641-.338-2.908-1.014-3.801-.677-.893-1.555-1.34-2.637-1.34-.743 0-1.375.188-1.897.563-.522.375-.945.946-1.268 1.713-.324.766-.486 1.742-.486 2.926 0 .823.09 1.554.27 2.191.18.638.448 1.192.807 1.662.63.818 1.49 1.228 2.58 1.228zm0-1.716c-.593 0-1.09-.289-1.49-.865-.402-.577-.602-1.433-.602-2.568 0-1.166.196-2.028.589-2.584.392-.556.893-.834 1.503-.834.622 0 1.123.276 1.503.828.38.551.57 1.404.57 2.557 0 1.17-.197 2.041-.59 2.61-.392.57-.886.856-1.483.856zm6.268 1.546V8.207h-1.446v1.906h1.446zm9.75 0V8.438h-3.782V.25h-1.515v9.862h5.298zm4.297 0V1.852h2.229V.17h-5.98v1.682h2.235v8.261h1.516zm6.062 0c.61 0 1.11-.095 1.503-.285.392-.19.727-.469 1.005-.838.277-.368.504-.869.68-1.502.095-.34.164-.687.206-1.044.042-.358.062-.758.062-1.201 0-.95-.087-1.749-.263-2.398-.175-.649-.409-1.17-.701-1.563-.309-.412-.639-.696-.99-.855-.183-.09-.404-.156-.663-.196-.26-.041-.566-.061-.92-.061h-2.775v9.943h2.856zm-.2-1.675h-1.14V1.852h.688c.593 0 1.004.03 1.234.088.288.081.531.244.73.488.198.244.343.576.435.994.092.418.138 1 .138 1.746 0 .688-.046 1.26-.138 1.716-.105.444-.226.766-.363.967-.138.201-.314.35-.526.444-.213.095-.566.143-1.059.143zm6.38 1.675V8.207h-1.446v1.906h1.447z"/>
    </defs>
    <g fill="none" fill-rule="evenodd">
        <g fill-rule="nonzero">
            <g>
                <g>
                    <g>
                        <g>
                            <path fill="#636469" d="M25 26H41V29H25zM40 9.219v2.564c0 4.666-3.547 8.554-8.1 9.141-.395.05-.794.076-1.192.076H25v-3.763h5.796c.371 0 .742-.035 1.108-.106 2.63-.517 4.628-2.84 4.628-5.585V9.511c0-3.13-2.582-5.693-5.73-5.693H25V0h5.708C35.818 0 40 4.15 40 9.219z" transform="translate(-210.000000, -7088.000000) translate(0.000000, 5753.000000) translate(0.000000, 1242.000000) translate(210.000000, 93.000000)"/>
                            <path fill="#016EB9" d="M23 25.457V29H9.63C4.332 29 0 24.86 0 19.799v-2.3c0-4.011 2.73-7.445 6.493-8.694C6.617 3.943 10.818 0 15.935 0H23v3.749h-7.027c-2.846 0-5.234 1.974-5.738 4.559h9.2l-.013 3.784h-9.225c.402 2.697 2.846 4.789 5.776 4.789H23v3.683h-7.065c-4.763 0-8.735-3.413-9.358-7.805-2.304 1.075-3.902 3.337-3.902 5.944v.15c0 3.636 3.114 6.61 6.916 6.61L23 25.457z" transform="translate(-210.000000, -7088.000000) translate(0.000000, 5753.000000) translate(0.000000, 1242.000000) translate(210.000000, 93.000000)"/>
                        </g>
                        <g>
                            <g transform="translate(-210.000000, -7088.000000) translate(0.000000, 5753.000000) translate(0.000000, 1242.000000) translate(210.000000, 93.000000) translate(51.000000, 0.000000)">
                                <use fill="#000" xlink:href="#gwh1a5qsua"/>
                                <use fill="#646168" xlink:href="#gwh1a5qsua"/>
                            </g>
                            <path fill="#646168" d="M148.687 17.791c.192 0 .352-.075.479-.227.126-.151.19-.321.19-.51 0-.204-.064-.378-.19-.521-.127-.143-.287-.215-.479-.215s-.352.072-.479.215c-.127.143-.19.317-.19.522 0 .188.063.358.19.51.127.15.287.226.479.226zm-.83 1.596c.207 0 .378-.08.513-.239.134-.16.202-.35.202-.57 0-.214-.068-.4-.202-.56-.135-.16-.306-.239-.513-.239-.208 0-.381.08-.52.24-.138.16-.207.345-.207.558 0 .221.07.411.208.571.138.16.311.24.519.24zm1.695 0c.208 0 .379-.08.513-.239.135-.16.202-.35.202-.57 0-.214-.067-.4-.202-.56-.134-.16-.305-.239-.513-.239-.208 0-.38.08-.519.24-.138.16-.208.345-.208.558 0 .221.07.411.208.571.138.16.311.24.519.24zm-2.999 6.667c.377 0 .692-.086.946-.258.254-.172.477-.422.669-.75.146.304.36.527.64.67.28.143.656.215 1.125.215h2.249v-3.364c0-.54-.018-1.064-.052-1.571-.035-.508-.083-.95-.145-1.326l-1.487.208c.061.401.113.84.155 1.314.043.475.064 1.007.064 1.596v1.866h-.704c-.546 0-.819-.32-.819-.958v-3.412h-1.453v2.443c0 .712-.061 1.225-.184 1.54-.123.315-.354.473-.692.473-.246 0-.437-.098-.571-.295-.135-.196-.202-.515-.202-.957v-3.204h-1.476v2.443c0 .262-.025.51-.075.742-.05.234-.125.438-.225.614s-.227.315-.38.418c-.155.102-.335.153-.543.153h-.415v1.277h.53c.285 0 .548-.055.79-.166.243-.11.452-.342.63-.694.184.336.42.584.708.743.289.16.594.24.917.24zM139.207 29c.584 0 1.065-.084 1.441-.252.377-.167.675-.39.894-.669.22-.278.371-.6.456-.963.084-.365.127-.743.127-1.136v-.05h1.084v-1.276h-1.084v-4.37h-1.477v5.757c0 .639-.115 1.079-.346 1.32-.23.242-.588.362-1.072.362-.17 0-.339-.012-.508-.037l-.115 1.277c.192.025.392.037.6.037zm-.727-3.07v-1.165c0-.54-.052-1.046-.156-1.517-.103-.47-.269-.9-.496-1.289-.226-.388-.515-.73-.865-1.025-.35-.294-.77-.528-1.262-.7.322-.18.615-.34.876-.478.261-.14.507-.272.738-.4l.68-.374c.224-.123.466-.258.727-.405v-1.694c-.869.516-1.726 1.033-2.572 1.553-.845.52-1.71 1.037-2.595 1.553v1.117c.592.041 1.104.166 1.534.375.43.208.788.472 1.073.791.284.32.498.686.64 1.1.142.412.217.84.225 1.282h-3.449v1.277h4.902zm-7.22-6.543c.23 0 .421-.088.571-.264.15-.176.225-.386.225-.632 0-.237-.075-.444-.225-.62-.15-.176-.34-.264-.57-.264-.231 0-.424.088-.577.264-.154.176-.231.383-.231.62 0 .246.077.456.23.632.154.176.347.264.577.264zm-1.88 0c.23 0 .421-.088.571-.264.15-.176.225-.386.225-.632 0-.237-.075-.444-.225-.62-.15-.176-.34-.264-.57-.264-.231 0-.424.088-.577.264-.154.176-.231.383-.231.62 0 .246.077.456.23.632.154.176.347.264.577.264zm4.429 6.544v-1.277h-1.061v-4.37c-.315-.058-.638-.103-.969-.135-.33-.033-.669-.05-1.015-.05-.507 0-.945.086-1.315.258-.369.172-.674.401-.916.688-.243.286-.423.616-.542.988-.12.372-.18.76-.18 1.16 0 .851.226 1.52.675 2.007.45.487 1.156.73 2.117.73h3.206zm-2.526-1.277h-.542c-.261 0-.48-.047-.657-.141-.177-.094-.321-.22-.433-.375-.111-.155-.192-.335-.242-.54-.05-.204-.075-.421-.075-.65 0-.491.115-.88.346-1.167.23-.286.546-.43.946-.43.084 0 .184.007.3.02.115.011.234.034.357.067v3.216zm-13.263 1.277c.477 0 .846-.09 1.107-.27.262-.18.446-.442.554-.786.046.115.125.235.236.362.112.127.262.242.45.344.188.102.417.186.686.252.27.065.585.098.946.098h2.26v-2.824c0-.45-.051-.86-.155-1.227-.104-.369-.254-.686-.45-.952-.196-.266-.44-.47-.732-.614-.293-.143-.63-.215-1.015-.215-.415 0-.792.064-1.13.19-.339.128-.63.32-.871.578-.243.258-.429.585-.56.982-.13.397-.196.865-.196 1.406 0 .163-.019.329-.057.497-.039.168-.095.319-.168.454-.073.135-.165.243-.276.325-.112.082-.24.123-.387.123h-.461v1.277h.219zm4.763-1.277h-.588c-.569 0-.965-.137-1.188-.411-.223-.274-.334-.735-.334-1.381 0-.442.103-.804.311-1.087.208-.282.465-.423.773-.423.3 0 .546.124.738.374.192.25.288.636.288 1.16v1.768zm-6.458-5.279c.23 0 .426-.088.588-.264.161-.176.242-.387.242-.632 0-.237-.08-.444-.242-.62-.162-.176-.358-.264-.588-.264-.231 0-.43.088-.594.264-.166.176-.248.383-.248.62 0 .245.082.456.248.632.165.176.363.264.594.264zm1.707 6.556v-1.277h-.97v-4.37h-1.464v4.37h-1.615v1.277h4.049zm-3.818 0v-1.277h-1.073v-1.756c0-.933-.205-1.632-.617-2.099-.411-.466-.978-.7-1.7-.7-.378 0-.737.082-1.08.246-.341.164-.653.372-.933.626-.281.254-.527.53-.738.829-.212.298-.383.583-.514.853h-.011c.054-.278.096-.569.127-.872.03-.303.046-.618.046-.945v-3.781h-1.476v7.6h-1.488v1.276h9.457zm-2.641-1.277h-3.887c.139-.417.308-.82.508-1.21.2-.388.426-.734.68-1.037.254-.302.527-.546.819-.73.292-.184.596-.276.911-.276.361 0 .613.13.756.393.142.261.213.683.213 1.264v1.596zm-11.13-5.414c.23 0 .421-.088.571-.264.15-.176.225-.387.225-.632 0-.237-.075-.444-.225-.62-.15-.176-.34-.264-.57-.264-.231 0-.424.088-.577.264-.154.176-.231.383-.231.62 0 .245.077.456.23.632.154.176.347.264.577.264zm1.88 0c.23 0 .421-.088.571-.264.15-.176.225-.387.225-.632 0-.237-.075-.444-.225-.62-.15-.176-.34-.264-.57-.264-.231 0-.424.088-.577.264-.154.176-.231.383-.231.62 0 .245.077.456.23.632.154.176.347.264.577.264zm2.664 6.69v-1.276h-1.21c.092-.14.197-.358.317-.657.119-.298.178-.644.178-1.037 0-.491-.073-.917-.219-1.277-.146-.36-.336-.657-.57-.89-.235-.233-.506-.407-.814-.522-.307-.114-.623-.172-.946-.172-.438 0-.828.082-1.17.246-.342.164-.633.38-.87.65-.24.27-.42.58-.543.928-.123.347-.185.701-.185 1.061 0 .352.039.665.116.94.077.274.184.517.323.73H97.79v1.277h7.196zm-3.425-1.264c-.185 0-.346-.045-.484-.135-.139-.09-.254-.21-.346-.362-.093-.151-.16-.323-.202-.515-.043-.193-.064-.391-.064-.596 0-.205.02-.405.058-.601.038-.197.104-.37.196-.522.092-.152.212-.274.358-.369.146-.094.326-.14.542-.14.346 0 .624.138.836.417.211.278.317.65.317 1.117 0 .204-.025.41-.075.614-.05.204-.123.386-.22.546-.095.16-.22.29-.374.393-.154.102-.334.153-.542.153zm-6.09-5.279c.231 0 .421-.088.571-.264.15-.176.225-.386.225-.632 0-.237-.075-.444-.225-.62-.15-.176-.34-.264-.57-.264-.231 0-.423.088-.577.264-.154.176-.23.383-.23.62 0 .246.076.456.23.632.154.176.346.264.576.264zm-1.88 0c.231 0 .421-.088.571-.264.15-.176.225-.386.225-.632 0-.237-.075-.444-.225-.62-.15-.176-.34-.264-.57-.264-.231 0-.423.088-.577.264-.154.176-.23.383-.23.62 0 .246.076.456.23.632.154.176.346.264.577.264zm4.43 6.544v-1.277H96.96v-4.37c-.315-.058-.638-.103-.969-.135-.33-.033-.668-.05-1.014-.05-.508 0-.946.086-1.315.258-.37.172-.675.401-.917.688-.242.286-.423.616-.542.988-.12.372-.179.76-.179 1.16 0 .851.225 1.52.675 2.007.45.487 1.155.73 2.116.73h3.206zm-2.526-1.277h-.543c-.261 0-.48-.047-.657-.141-.177-.094-.321-.22-.432-.375-.112-.155-.193-.335-.243-.54-.05-.204-.075-.421-.075-.65 0-.491.116-.88.346-1.167.231-.286.546-.43.946-.43.085 0 .185.007.3.02.115.011.234.034.358.067v3.216zm-7.37 1.277v-8.864c-.43-.016-.86-.008-1.286.025-.427.032-.825.077-1.194.135v.982c.17.016.344.03.525.043.18.012.34.026.478.043v7.636h1.477zm-3.749 0v-8.876h-1.476v7.6h-1.58v1.276h3.056zm-2.825 0v-1.277h-.969v-.172c0-.843-.096-1.567-.288-2.173-.193-.605-.466-1.103-.82-1.491-.353-.39-.782-.676-1.285-.86-.504-.184-1.067-.276-1.69-.276-.407 0-.823.029-1.245.086-.423.057-.815.143-1.177.258l-.08 1.313c.445-.122.853-.217 1.222-.282.37-.065.738-.098 1.107-.098.523 0 .961.08 1.315.24.354.159.64.394.86.705.218.311.376.696.472 1.154.096.458.144.99.144 1.596h-.91c0-.876-.15-1.543-.45-2.001-.3-.458-.808-.688-1.523-.688-.3 0-.575.052-.825.154-.25.102-.461.241-.634.417s-.308.387-.404.633c-.096.245-.144.515-.144.81 0 .114.01.233.029.356.02.123.048.229.086.32h-1.418v1.276h8.627zm-4.729-1.277h-.45c-.161 0-.292-.027-.392-.08-.1-.053-.179-.118-.236-.196-.058-.078-.096-.162-.116-.252-.019-.09-.028-.176-.028-.258 0-.188.052-.35.155-.485.104-.135.237-.202.398-.202.23 0 .4.09.508.27.107.18.161.405.161.675v.528zm-5.374-5.279c.23 0 .426-.088.588-.264.161-.176.242-.387.242-.632 0-.237-.08-.444-.242-.62-.162-.176-.358-.264-.588-.264-.231 0-.429.088-.594.264-.166.176-.248.383-.248.62 0 .245.082.456.248.632.165.176.363.264.594.264zm1.707 6.556v-1.277h-.97v-4.37h-1.464v4.37h-1.615v1.277h4.049zm-3.818 0v-1.277H68.6v-.037c0-.507-.071-1.023-.213-1.547-.143-.523-.375-1.006-.698-1.448-.323-.442-.748-.825-1.275-1.148-.526-.323-1.178-.538-1.955-.645l-.115 1.338c.6.164 1.082.385 1.448.663.365.279.647.58.847.903.2.323.333.652.398.988.066.336.098.647.098.933h-3.38v1.277h5.583zm-12.364.123c.377 0 .692-.086.946-.258.254-.172.477-.422.669-.75.146.304.36.527.64.67.28.143.656.215 1.125.215h2.249v-3.364c0-.54-.018-1.064-.052-1.571-.035-.508-.083-.95-.144-1.326l-1.488.208c.061.401.113.84.155 1.314.043.475.064 1.007.064 1.596v1.866h-.704c-.546 0-.819-.32-.819-.958v-3.412h-1.453v2.443c0 .712-.061 1.225-.184 1.54-.123.315-.354.473-.692.473-.246 0-.437-.098-.571-.295-.135-.196-.202-.515-.202-.957v-3.204h-1.476v2.443c0 .262-.025.51-.075.742-.05.234-.125.438-.225.614s-.227.315-.38.418c-.154.102-.335.153-.543.153H53.4v1.277h.53c.285 0 .548-.055.79-.166.243-.11.452-.342.63-.694.184.336.42.584.708.743.289.16.594.24.917.24zm-5.893-6.667c.23 0 .42-.088.57-.264.15-.176.226-.386.226-.632 0-.237-.075-.444-.225-.62-.15-.176-.34-.264-.571-.264-.23 0-.423.088-.577.264-.154.176-.23.383-.23.62 0 .246.076.456.23.632.154.176.346.264.577.264zm-1.88 0c.23 0 .42-.088.57-.264.15-.176.226-.386.226-.632 0-.237-.075-.444-.225-.62-.15-.176-.34-.264-.571-.264-.23 0-.423.088-.577.264-.153.176-.23.383-.23.62 0 .246.077.456.23.632.154.176.346.264.577.264zm4.429 6.544v-1.277h-1.061v-4.37c-.316-.058-.639-.103-.97-.135-.33-.033-.668-.05-1.014-.05-.508 0-.946.086-1.315.258-.369.172-.675.401-.917.688-.242.286-.423.616-.542.988-.119.372-.179.76-.179 1.16 0 .851.225 1.52.675 2.007.45.487 1.155.73 2.116.73h3.207zm-2.526-1.277h-.542c-.262 0-.48-.047-.658-.141-.176-.094-.32-.22-.432-.375-.112-.155-.192-.335-.242-.54-.05-.204-.075-.421-.075-.65 0-.491.115-.88.346-1.167.23-.286.546-.43.946-.43.084 0 .184.007.3.02.115.011.234.034.357.067v3.216zm-7.37 1.277v-8.864c-.43-.016-.86-.008-1.286.025-.427.032-.824.077-1.193.135v.982c.169.016.344.03.524.043.181.012.34.026.479.043v7.636h1.476zm-3.748 0v-8.876H38.51v7.6h-1.58v1.276h3.056zm-10.15 0c.477 0 .846-.09 1.108-.27.261-.18.446-.442.553-.786.047.115.125.235.237.362.111.127.261.242.45.344.188.102.417.186.686.252.269.065.584.098.946.098h3.344v-1.277h-1.084v-1.547c0-.45-.052-.86-.156-1.227-.103-.369-.253-.686-.45-.952-.195-.266-.44-.47-.732-.614-.292-.143-.63-.215-1.015-.215-.415 0-.792.064-1.13.19-.338.128-.629.32-.87.578-.243.258-.43.585-.56.982-.13.397-.196.865-.196 1.406 0 .163-.02.329-.058.497-.038.168-.094.319-.167.454-.073.135-.165.243-.277.325-.111.082-.24.123-.386.123h-.462v1.277h.22zm4.764-1.277h-.588c-.57 0-.965-.137-1.188-.411-.223-.274-.335-.735-.335-1.381 0-.442.104-.804.312-1.087.207-.282.465-.423.772-.423.3 0 .546.124.738.374.193.25.289.636.289 1.16v1.768zm-4.752 1.277v-1.277h-1.084V23.28c0-.417-.06-.808-.179-1.172-.119-.365-.317-.682-.594-.952-.277-.27-.638-.483-1.084-.638-.446-.156-.992-.233-1.638-.233-.246 0-.453.004-.622.012-.17.008-.32.02-.45.037l-.116 1.252c.131-.016.287-.029.468-.037.18-.008.378-.012.594-.012.384 0 .709.037.974.11.265.074.483.19.652.35.169.16.29.366.363.62.073.254.11.565.11.933v1.105H23.32v1.277h6.528zm-6.297 0v-1.277h-.738v-.037c0-.507-.071-1.023-.214-1.547-.142-.523-.374-1.006-.697-1.448-.323-.442-.748-.825-1.275-1.148-.526-.323-1.178-.538-1.955-.645l-.115 1.338c.6.164 1.082.385 1.447.663.366.279.648.58.848.903.2.323.333.652.398.988.065.336.098.647.098.933h-3.38v1.277h5.583zm-10.242 3.057c.654 0 1.204-.096 1.65-.289.446-.192.807-.442 1.084-.749s.475-.648.594-1.025c.119-.376.179-.745.179-1.105v-5.536c-.316-.058-.639-.103-.97-.135-.33-.033-.668-.05-1.014-.05-.515 0-.96.088-1.332.264-.373.176-.68.41-.923.7-.242.29-.419.62-.53.988-.112.369-.168.75-.168 1.142 0 .377.048.733.144 1.068.097.336.254.626.473.872.22.245.506.44.86.583.353.143.791.215 1.314.215h.68c-.015.54-.182.966-.5 1.277-.32.31-.799.466-1.437.466-.269 0-.54-.016-.813-.049-.273-.033-.54-.082-.801-.147l.08 1.387c.185.033.414.061.687.086.272.024.52.037.743.037zm2.042-4.334h-.542c-.485 0-.84-.15-1.067-.448-.227-.299-.34-.718-.34-1.258 0-.5.119-.89.357-1.173.239-.282.55-.423.934-.423.085 0 .185.006.3.018.116.012.235.035.358.068v3.216zm-4.36 1.277v-1.314c0-.507-.07-1.023-.213-1.547-.142-.523-.375-1.006-.698-1.448-.323-.442-.748-.825-1.274-1.148-.527-.323-1.179-.538-1.955-.645l-.116 1.338c.6.164 1.083.385 1.448.663.365.279.648.58.848.903.2.323.332.652.397.988.066.336.098.647.098.933H6.147v1.277h4.844zm-9.434-6.544c.23 0 .421-.088.57-.264.15-.176.226-.386.226-.632 0-.237-.075-.444-.225-.62-.15-.176-.34-.264-.571-.264-.23 0-.423.088-.577.264-.153.176-.23.383-.23.62 0 .246.077.456.23.632.154.176.346.264.577.264zm1.88 0c.23 0 .42-.088.57-.264.15-.176.226-.386.226-.632 0-.237-.075-.444-.225-.62-.15-.176-.34-.264-.571-.264-.23 0-.423.088-.577.264-.154.176-.23.383-.23.62 0 .246.076.456.23.632.154.176.346.264.577.264zm1.672 6.544v-2.824c0-.434-.046-.835-.138-1.203-.092-.368-.237-.685-.433-.951-.196-.266-.44-.475-.732-.626-.292-.152-.642-.228-1.05-.228-.422 0-.803.068-1.141.203-.339.135-.627.33-.865.583-.239.254-.423.565-.554.933-.13.368-.196.786-.196 1.252 0 1.907.95 2.86 2.849 2.86h2.26zm-1.476-1.277h-.588c-.562 0-.956-.137-1.182-.411-.227-.274-.34-.735-.34-1.381 0-.467.103-.835.31-1.105.208-.27.466-.405.774-.405.322 0 .574.133.755.399.18.266.271.644.271 1.135v1.768z" transform="translate(-210.000000, -7088.000000) translate(0.000000, 5753.000000) translate(0.000000, 1242.000000) translate(210.000000, 93.000000) translate(51.000000, 0.000000)"/>
                        </g>
                    </g>
                </g>
            </g>
        </g>
    </g>
</svg>
